G04 MADE WITH FRITZING*
G04 WWW.FRITZING.ORG*
G04 DOUBLE SIDED*
G04 HOLES PLATED*
G04 CONTOUR ON CENTER OF CONTOUR VECTOR*
%ASAXBY*%
%FSLAX23Y23*%
%MOIN*%
%OFA0B0*%
%SFA1.0B1.0*%
%ADD10C,0.080000*%
%ADD11C,0.057559*%
%ADD12C,0.086139*%
%ADD13C,0.049370*%
%ADD14R,0.072992X0.167480*%
%ADD15R,0.080000X0.080000*%
%ADD16R,0.001000X0.001000*%
%LNMASK0*%
G90*
G70*
G54D10*
X4031Y1393D03*
X3531Y1393D03*
X4031Y1493D03*
X3531Y1493D03*
X4031Y1593D03*
X3531Y1593D03*
X4031Y1693D03*
X3531Y1693D03*
X4031Y1793D03*
X3531Y1793D03*
X4031Y1893D03*
X3531Y1893D03*
X4031Y1993D03*
X3531Y1993D03*
X4031Y2093D03*
X3531Y2093D03*
X753Y2993D03*
X1253Y2993D03*
X753Y2893D03*
X1253Y2893D03*
X753Y2793D03*
X1253Y2793D03*
X753Y2693D03*
X1253Y2693D03*
X753Y2593D03*
X1253Y2593D03*
X753Y2493D03*
X1253Y2493D03*
X753Y2393D03*
X1253Y2393D03*
X753Y2293D03*
X1253Y2293D03*
X753Y4793D03*
X1253Y4793D03*
X753Y4693D03*
X1253Y4693D03*
X753Y4593D03*
X1253Y4593D03*
X753Y4493D03*
X1253Y4493D03*
X753Y4393D03*
X1253Y4393D03*
X753Y4293D03*
X1253Y4293D03*
X753Y4193D03*
X1253Y4193D03*
X753Y4093D03*
X1253Y4093D03*
X4053Y2293D03*
X3553Y2293D03*
X4053Y2393D03*
X3553Y2393D03*
X4053Y2493D03*
X3553Y2493D03*
X4053Y2593D03*
X3553Y2593D03*
X4053Y2693D03*
X3553Y2693D03*
X4053Y2793D03*
X3553Y2793D03*
X4053Y2893D03*
X3553Y2893D03*
X4053Y2993D03*
X3553Y2993D03*
X735Y2156D03*
X1235Y2156D03*
X735Y2056D03*
X1235Y2056D03*
X735Y1956D03*
X1235Y1956D03*
X735Y1856D03*
X1235Y1856D03*
X735Y1756D03*
X1235Y1756D03*
X735Y1656D03*
X1235Y1656D03*
X735Y1556D03*
X1235Y1556D03*
X735Y1456D03*
X1235Y1456D03*
X4053Y3194D03*
X3553Y3194D03*
X4053Y3294D03*
X3553Y3294D03*
X4053Y3394D03*
X3553Y3394D03*
X4053Y3494D03*
X3553Y3494D03*
X4053Y3594D03*
X3553Y3594D03*
X4053Y3694D03*
X3553Y3694D03*
X4053Y3794D03*
X3553Y3794D03*
X4053Y3894D03*
X3553Y3894D03*
X753Y3894D03*
X1253Y3894D03*
X753Y3794D03*
X1253Y3794D03*
X753Y3694D03*
X1253Y3694D03*
X753Y3594D03*
X1253Y3594D03*
X753Y3494D03*
X1253Y3494D03*
X753Y3394D03*
X1253Y3394D03*
X753Y3294D03*
X1253Y3294D03*
X753Y3194D03*
X1253Y3194D03*
X4053Y4093D03*
X3553Y4093D03*
X4053Y4194D03*
X3553Y4194D03*
X4053Y4294D03*
X3553Y4294D03*
X4053Y4394D03*
X3553Y4394D03*
X4053Y4494D03*
X3553Y4494D03*
X4053Y4594D03*
X3553Y4594D03*
X4053Y4694D03*
X3553Y4694D03*
X4053Y4794D03*
X3553Y4794D03*
G54D11*
X453Y3094D03*
X453Y3015D03*
X453Y2936D03*
X453Y2857D03*
X453Y3094D03*
X453Y3015D03*
X453Y2936D03*
X453Y2857D03*
X453Y3094D03*
X453Y3015D03*
X453Y2936D03*
X453Y2857D03*
X453Y2493D03*
X453Y2415D03*
X453Y2336D03*
X453Y2257D03*
X453Y2493D03*
X453Y2415D03*
X453Y2336D03*
X453Y2257D03*
X453Y2493D03*
X453Y2415D03*
X453Y2336D03*
X453Y2257D03*
X4753Y3094D03*
X4753Y3172D03*
X4753Y3251D03*
X4753Y3330D03*
X4753Y3094D03*
X4753Y3172D03*
X4753Y3251D03*
X4753Y3330D03*
X4753Y3094D03*
X4753Y3172D03*
X4753Y3251D03*
X4753Y3330D03*
X4753Y2593D03*
X4753Y2672D03*
X4753Y2751D03*
X4753Y2830D03*
X4753Y2593D03*
X4753Y2672D03*
X4753Y2751D03*
X4753Y2830D03*
X4753Y2593D03*
X4753Y2672D03*
X4753Y2751D03*
X4753Y2830D03*
X453Y4094D03*
X453Y4015D03*
X453Y3936D03*
X453Y3857D03*
X453Y4094D03*
X453Y4015D03*
X453Y3936D03*
X453Y3857D03*
X453Y4094D03*
X453Y4015D03*
X453Y3936D03*
X453Y3857D03*
X4753Y3594D03*
X4753Y3672D03*
X4753Y3751D03*
X4753Y3830D03*
X4753Y3594D03*
X4753Y3672D03*
X4753Y3751D03*
X4753Y3830D03*
X4753Y3594D03*
X4753Y3672D03*
X4753Y3751D03*
X4753Y3830D03*
X453Y3594D03*
X453Y3515D03*
X453Y3436D03*
X453Y3357D03*
X453Y3594D03*
X453Y3515D03*
X453Y3436D03*
X453Y3357D03*
X453Y3594D03*
X453Y3515D03*
X453Y3436D03*
X453Y3357D03*
X4753Y4093D03*
X4753Y4172D03*
X4753Y4251D03*
X4753Y4330D03*
X4753Y4093D03*
X4753Y4172D03*
X4753Y4251D03*
X4753Y4330D03*
X4753Y4093D03*
X4753Y4172D03*
X4753Y4251D03*
X4753Y4330D03*
G54D12*
X4753Y594D03*
X4616Y594D03*
X4478Y594D03*
X4340Y594D03*
X4753Y594D03*
X4616Y594D03*
X4478Y594D03*
X4340Y594D03*
X1153Y594D03*
X1016Y594D03*
X878Y594D03*
X740Y594D03*
X1153Y594D03*
X1016Y594D03*
X878Y594D03*
X740Y594D03*
X553Y594D03*
X416Y594D03*
X278Y594D03*
X140Y594D03*
X553Y594D03*
X416Y594D03*
X278Y594D03*
X140Y594D03*
X4181Y601D03*
X4043Y601D03*
X3905Y601D03*
X3767Y601D03*
X4181Y601D03*
X4043Y601D03*
X3905Y601D03*
X3767Y601D03*
X2353Y594D03*
X2216Y594D03*
X2078Y594D03*
X1940Y594D03*
X2353Y594D03*
X2216Y594D03*
X2078Y594D03*
X1940Y594D03*
X3553Y594D03*
X3416Y594D03*
X3278Y594D03*
X3140Y594D03*
X3553Y594D03*
X3416Y594D03*
X3278Y594D03*
X3140Y594D03*
X1753Y594D03*
X1616Y594D03*
X1478Y594D03*
X1340Y594D03*
X1753Y594D03*
X1616Y594D03*
X1478Y594D03*
X1340Y594D03*
X2953Y594D03*
X2816Y594D03*
X2678Y594D03*
X2540Y594D03*
X2953Y594D03*
X2816Y594D03*
X2678Y594D03*
X2540Y594D03*
G54D13*
X2242Y3201D03*
X2361Y2793D03*
X2246Y3031D03*
X2242Y2175D03*
X2240Y2055D03*
X2353Y1593D03*
X2353Y2412D03*
X2353Y4693D03*
X2253Y4093D03*
X2353Y3893D03*
X2361Y3419D03*
X2235Y4953D03*
X2242Y4193D03*
X2368Y4308D03*
X2250Y1238D03*
X1353Y1893D03*
X1453Y1893D03*
X1553Y1893D03*
X1653Y1893D03*
X1753Y1493D03*
X1850Y1490D03*
X1953Y1493D03*
X2053Y1493D03*
X1853Y4293D03*
X1953Y4360D03*
X2087Y4460D03*
X2176Y4571D03*
X1887Y3671D03*
X1979Y3679D03*
X2090Y3679D03*
X2183Y3682D03*
X1894Y3108D03*
X2005Y3112D03*
X2109Y3219D03*
X2183Y3127D03*
X3101Y2805D03*
X3083Y2090D03*
X3179Y2708D03*
X3176Y1993D03*
X3324Y2090D03*
X3335Y2606D03*
X3437Y2491D03*
X3427Y2101D03*
X2972Y3405D03*
X2913Y3518D03*
X2857Y3625D03*
X2794Y3714D03*
X2970Y1242D03*
X3423Y1532D03*
X3416Y1324D03*
X3316Y1627D03*
X3322Y1300D03*
X2909Y1155D03*
X2837Y1056D03*
X2753Y988D03*
X2694Y934D03*
X2635Y868D03*
X2553Y801D03*
X2479Y764D03*
X3168Y1734D03*
X3168Y1290D03*
X3076Y1742D03*
X3076Y1245D03*
G54D14*
X2531Y2250D03*
X2531Y2490D03*
G54D15*
X3531Y2093D03*
X3531Y1493D03*
X1253Y2293D03*
X1253Y2893D03*
X1253Y4093D03*
X1253Y4693D03*
X3553Y2994D03*
X3553Y2393D03*
X1235Y1456D03*
X1235Y2056D03*
X3553Y3894D03*
X3553Y3294D03*
X1253Y3194D03*
X1253Y3794D03*
X3553Y4794D03*
X3553Y4194D03*
G54D14*
X1553Y3034D03*
X1553Y2794D03*
X1853Y2334D03*
X1853Y2094D03*
X2642Y1268D03*
X2642Y1508D03*
X1753Y4934D03*
X1753Y4693D03*
X1653Y4134D03*
X1653Y3894D03*
X2605Y3094D03*
X2605Y3334D03*
X3037Y4109D03*
X3037Y4349D03*
G54D16*
X4136Y647D02*
X4225Y647D01*
X4136Y646D02*
X4225Y646D01*
X4136Y645D02*
X4225Y645D01*
X4136Y644D02*
X4225Y644D01*
X4136Y643D02*
X4225Y643D01*
X4136Y642D02*
X4225Y642D01*
X4136Y641D02*
X4225Y641D01*
X4136Y640D02*
X4225Y640D01*
X508Y639D02*
X597Y639D01*
X1108Y639D02*
X1197Y639D01*
X1708Y639D02*
X1797Y639D01*
X2308Y639D02*
X2397Y639D01*
X2908Y639D02*
X2997Y639D01*
X3508Y639D02*
X3597Y639D01*
X4136Y639D02*
X4225Y639D01*
X4708Y639D02*
X4797Y639D01*
X508Y638D02*
X597Y638D01*
X1108Y638D02*
X1197Y638D01*
X1708Y638D02*
X1797Y638D01*
X2308Y638D02*
X2397Y638D01*
X2908Y638D02*
X2997Y638D01*
X3508Y638D02*
X3597Y638D01*
X4136Y638D02*
X4225Y638D01*
X4708Y638D02*
X4797Y638D01*
X508Y637D02*
X597Y637D01*
X1108Y637D02*
X1197Y637D01*
X1708Y637D02*
X1797Y637D01*
X2308Y637D02*
X2397Y637D01*
X2908Y637D02*
X2997Y637D01*
X3508Y637D02*
X3597Y637D01*
X4136Y637D02*
X4225Y637D01*
X4708Y637D02*
X4797Y637D01*
X508Y636D02*
X597Y636D01*
X1108Y636D02*
X1197Y636D01*
X1708Y636D02*
X1797Y636D01*
X2308Y636D02*
X2397Y636D01*
X2908Y636D02*
X2997Y636D01*
X3508Y636D02*
X3597Y636D01*
X4136Y636D02*
X4225Y636D01*
X4708Y636D02*
X4797Y636D01*
X508Y635D02*
X597Y635D01*
X1108Y635D02*
X1197Y635D01*
X1708Y635D02*
X1797Y635D01*
X2308Y635D02*
X2397Y635D01*
X2908Y635D02*
X2997Y635D01*
X3508Y635D02*
X3597Y635D01*
X4136Y635D02*
X4225Y635D01*
X4708Y635D02*
X4797Y635D01*
X508Y634D02*
X597Y634D01*
X1108Y634D02*
X1197Y634D01*
X1708Y634D02*
X1797Y634D01*
X2308Y634D02*
X2397Y634D01*
X2908Y634D02*
X2997Y634D01*
X3508Y634D02*
X3597Y634D01*
X4136Y634D02*
X4225Y634D01*
X4708Y634D02*
X4797Y634D01*
X508Y633D02*
X597Y633D01*
X1108Y633D02*
X1197Y633D01*
X1708Y633D02*
X1797Y633D01*
X2308Y633D02*
X2397Y633D01*
X2908Y633D02*
X2997Y633D01*
X3508Y633D02*
X3597Y633D01*
X4136Y633D02*
X4225Y633D01*
X4708Y633D02*
X4797Y633D01*
X508Y632D02*
X597Y632D01*
X1108Y632D02*
X1197Y632D01*
X1708Y632D02*
X1797Y632D01*
X2308Y632D02*
X2397Y632D01*
X2908Y632D02*
X2997Y632D01*
X3508Y632D02*
X3597Y632D01*
X4136Y632D02*
X4225Y632D01*
X4708Y632D02*
X4797Y632D01*
X508Y631D02*
X597Y631D01*
X1108Y631D02*
X1197Y631D01*
X1708Y631D02*
X1797Y631D01*
X2308Y631D02*
X2397Y631D01*
X2908Y631D02*
X2997Y631D01*
X3508Y631D02*
X3597Y631D01*
X4136Y631D02*
X4225Y631D01*
X4708Y631D02*
X4797Y631D01*
X508Y630D02*
X597Y630D01*
X1108Y630D02*
X1197Y630D01*
X1708Y630D02*
X1797Y630D01*
X2308Y630D02*
X2397Y630D01*
X2908Y630D02*
X2997Y630D01*
X3508Y630D02*
X3597Y630D01*
X4136Y630D02*
X4225Y630D01*
X4708Y630D02*
X4797Y630D01*
X508Y629D02*
X597Y629D01*
X1108Y629D02*
X1197Y629D01*
X1708Y629D02*
X1797Y629D01*
X2308Y629D02*
X2397Y629D01*
X2908Y629D02*
X2997Y629D01*
X3508Y629D02*
X3597Y629D01*
X4136Y629D02*
X4225Y629D01*
X4708Y629D02*
X4797Y629D01*
X508Y628D02*
X597Y628D01*
X1108Y628D02*
X1197Y628D01*
X1708Y628D02*
X1797Y628D01*
X2308Y628D02*
X2397Y628D01*
X2908Y628D02*
X2997Y628D01*
X3508Y628D02*
X3597Y628D01*
X4136Y628D02*
X4225Y628D01*
X4708Y628D02*
X4797Y628D01*
X508Y627D02*
X597Y627D01*
X1108Y627D02*
X1197Y627D01*
X1708Y627D02*
X1797Y627D01*
X2308Y627D02*
X2397Y627D01*
X2908Y627D02*
X2997Y627D01*
X3508Y627D02*
X3597Y627D01*
X4136Y627D02*
X4225Y627D01*
X4708Y627D02*
X4797Y627D01*
X508Y626D02*
X597Y626D01*
X1108Y626D02*
X1197Y626D01*
X1708Y626D02*
X1797Y626D01*
X2308Y626D02*
X2397Y626D01*
X2908Y626D02*
X2997Y626D01*
X3508Y626D02*
X3597Y626D01*
X4136Y626D02*
X4225Y626D01*
X4708Y626D02*
X4797Y626D01*
X508Y625D02*
X597Y625D01*
X1108Y625D02*
X1197Y625D01*
X1708Y625D02*
X1797Y625D01*
X2308Y625D02*
X2397Y625D01*
X2908Y625D02*
X2997Y625D01*
X3508Y625D02*
X3597Y625D01*
X4136Y625D02*
X4225Y625D01*
X4708Y625D02*
X4797Y625D01*
X508Y624D02*
X597Y624D01*
X1108Y624D02*
X1197Y624D01*
X1708Y624D02*
X1797Y624D01*
X2308Y624D02*
X2397Y624D01*
X2908Y624D02*
X2997Y624D01*
X3508Y624D02*
X3597Y624D01*
X4136Y624D02*
X4225Y624D01*
X4708Y624D02*
X4797Y624D01*
X508Y623D02*
X597Y623D01*
X1108Y623D02*
X1197Y623D01*
X1708Y623D02*
X1797Y623D01*
X2308Y623D02*
X2397Y623D01*
X2908Y623D02*
X2997Y623D01*
X3508Y623D02*
X3597Y623D01*
X4136Y623D02*
X4225Y623D01*
X4708Y623D02*
X4797Y623D01*
X508Y622D02*
X597Y622D01*
X1108Y622D02*
X1197Y622D01*
X1708Y622D02*
X1797Y622D01*
X2308Y622D02*
X2397Y622D01*
X2908Y622D02*
X2997Y622D01*
X3508Y622D02*
X3597Y622D01*
X4136Y622D02*
X4225Y622D01*
X4708Y622D02*
X4797Y622D01*
X508Y621D02*
X597Y621D01*
X1108Y621D02*
X1197Y621D01*
X1708Y621D02*
X1797Y621D01*
X2308Y621D02*
X2397Y621D01*
X2908Y621D02*
X2997Y621D01*
X3508Y621D02*
X3597Y621D01*
X4136Y621D02*
X4176Y621D01*
X4185Y621D02*
X4225Y621D01*
X4708Y621D02*
X4797Y621D01*
X508Y620D02*
X597Y620D01*
X1108Y620D02*
X1197Y620D01*
X1708Y620D02*
X1797Y620D01*
X2308Y620D02*
X2397Y620D01*
X2908Y620D02*
X2997Y620D01*
X3508Y620D02*
X3597Y620D01*
X4136Y620D02*
X4172Y620D01*
X4188Y620D02*
X4225Y620D01*
X4708Y620D02*
X4797Y620D01*
X508Y619D02*
X597Y619D01*
X1108Y619D02*
X1197Y619D01*
X1708Y619D02*
X1797Y619D01*
X2308Y619D02*
X2397Y619D01*
X2908Y619D02*
X2997Y619D01*
X3508Y619D02*
X3597Y619D01*
X4136Y619D02*
X4171Y619D01*
X4190Y619D02*
X4225Y619D01*
X4708Y619D02*
X4797Y619D01*
X508Y618D02*
X597Y618D01*
X1108Y618D02*
X1197Y618D01*
X1708Y618D02*
X1797Y618D01*
X2308Y618D02*
X2397Y618D01*
X2908Y618D02*
X2997Y618D01*
X3508Y618D02*
X3597Y618D01*
X4136Y618D02*
X4169Y618D01*
X4191Y618D02*
X4225Y618D01*
X4708Y618D02*
X4797Y618D01*
X508Y617D02*
X597Y617D01*
X1108Y617D02*
X1197Y617D01*
X1708Y617D02*
X1797Y617D01*
X2308Y617D02*
X2397Y617D01*
X2908Y617D02*
X2997Y617D01*
X3508Y617D02*
X3597Y617D01*
X4136Y617D02*
X4168Y617D01*
X4193Y617D02*
X4225Y617D01*
X4708Y617D02*
X4797Y617D01*
X508Y616D02*
X597Y616D01*
X1108Y616D02*
X1197Y616D01*
X1708Y616D02*
X1797Y616D01*
X2308Y616D02*
X2397Y616D01*
X2908Y616D02*
X2997Y616D01*
X3508Y616D02*
X3597Y616D01*
X4136Y616D02*
X4167Y616D01*
X4194Y616D02*
X4225Y616D01*
X4708Y616D02*
X4797Y616D01*
X508Y615D02*
X597Y615D01*
X1108Y615D02*
X1197Y615D01*
X1708Y615D02*
X1797Y615D01*
X2308Y615D02*
X2397Y615D01*
X2908Y615D02*
X2997Y615D01*
X3508Y615D02*
X3597Y615D01*
X4136Y615D02*
X4166Y615D01*
X4195Y615D02*
X4225Y615D01*
X4708Y615D02*
X4797Y615D01*
X508Y614D02*
X597Y614D01*
X1108Y614D02*
X1197Y614D01*
X1708Y614D02*
X1797Y614D01*
X2308Y614D02*
X2397Y614D01*
X2908Y614D02*
X2997Y614D01*
X3508Y614D02*
X3597Y614D01*
X4136Y614D02*
X4165Y614D01*
X4195Y614D02*
X4225Y614D01*
X4708Y614D02*
X4797Y614D01*
X508Y613D02*
X548Y613D01*
X558Y613D02*
X597Y613D01*
X1108Y613D02*
X1148Y613D01*
X1158Y613D02*
X1197Y613D01*
X1708Y613D02*
X1748Y613D01*
X1758Y613D02*
X1797Y613D01*
X2308Y613D02*
X2348Y613D01*
X2358Y613D02*
X2397Y613D01*
X2908Y613D02*
X2948Y613D01*
X2958Y613D02*
X2997Y613D01*
X3508Y613D02*
X3548Y613D01*
X3558Y613D02*
X3597Y613D01*
X4136Y613D02*
X4164Y613D01*
X4196Y613D02*
X4225Y613D01*
X4708Y613D02*
X4748Y613D01*
X4758Y613D02*
X4797Y613D01*
X508Y612D02*
X545Y612D01*
X561Y612D02*
X597Y612D01*
X1108Y612D02*
X1145Y612D01*
X1161Y612D02*
X1197Y612D01*
X1708Y612D02*
X1745Y612D01*
X1761Y612D02*
X1797Y612D01*
X2308Y612D02*
X2345Y612D01*
X2361Y612D02*
X2397Y612D01*
X2908Y612D02*
X2945Y612D01*
X2961Y612D02*
X2997Y612D01*
X3508Y612D02*
X3545Y612D01*
X3561Y612D02*
X3597Y612D01*
X4136Y612D02*
X4163Y612D01*
X4197Y612D02*
X4225Y612D01*
X4708Y612D02*
X4745Y612D01*
X4761Y612D02*
X4797Y612D01*
X508Y611D02*
X543Y611D01*
X563Y611D02*
X597Y611D01*
X1108Y611D02*
X1143Y611D01*
X1163Y611D02*
X1197Y611D01*
X1708Y611D02*
X1743Y611D01*
X1763Y611D02*
X1797Y611D01*
X2308Y611D02*
X2343Y611D01*
X2363Y611D02*
X2397Y611D01*
X2908Y611D02*
X2943Y611D01*
X2963Y611D02*
X2997Y611D01*
X3508Y611D02*
X3543Y611D01*
X3563Y611D02*
X3597Y611D01*
X4136Y611D02*
X4163Y611D01*
X4197Y611D02*
X4225Y611D01*
X4708Y611D02*
X4743Y611D01*
X4763Y611D02*
X4797Y611D01*
X508Y610D02*
X541Y610D01*
X564Y610D02*
X597Y610D01*
X1108Y610D02*
X1141Y610D01*
X1164Y610D02*
X1197Y610D01*
X1708Y610D02*
X1741Y610D01*
X1764Y610D02*
X1797Y610D01*
X2308Y610D02*
X2341Y610D01*
X2364Y610D02*
X2397Y610D01*
X2908Y610D02*
X2941Y610D01*
X2964Y610D02*
X2997Y610D01*
X3508Y610D02*
X3541Y610D01*
X3564Y610D02*
X3597Y610D01*
X4136Y610D02*
X4162Y610D01*
X4198Y610D02*
X4225Y610D01*
X4708Y610D02*
X4741Y610D01*
X4764Y610D02*
X4797Y610D01*
X508Y609D02*
X540Y609D01*
X565Y609D02*
X597Y609D01*
X1108Y609D02*
X1140Y609D01*
X1165Y609D02*
X1197Y609D01*
X1708Y609D02*
X1740Y609D01*
X1765Y609D02*
X1797Y609D01*
X2308Y609D02*
X2340Y609D01*
X2365Y609D02*
X2397Y609D01*
X2908Y609D02*
X2940Y609D01*
X2965Y609D02*
X2997Y609D01*
X3508Y609D02*
X3540Y609D01*
X3565Y609D02*
X3597Y609D01*
X4136Y609D02*
X4162Y609D01*
X4198Y609D02*
X4225Y609D01*
X4708Y609D02*
X4740Y609D01*
X4765Y609D02*
X4797Y609D01*
X508Y608D02*
X539Y608D01*
X567Y608D02*
X597Y608D01*
X1108Y608D02*
X1139Y608D01*
X1167Y608D02*
X1197Y608D01*
X1708Y608D02*
X1739Y608D01*
X1767Y608D02*
X1797Y608D01*
X2308Y608D02*
X2339Y608D01*
X2367Y608D02*
X2397Y608D01*
X2908Y608D02*
X2939Y608D01*
X2967Y608D02*
X2997Y608D01*
X3508Y608D02*
X3539Y608D01*
X3567Y608D02*
X3597Y608D01*
X4136Y608D02*
X4162Y608D01*
X4199Y608D02*
X4225Y608D01*
X4708Y608D02*
X4739Y608D01*
X4766Y608D02*
X4797Y608D01*
X508Y607D02*
X538Y607D01*
X567Y607D02*
X597Y607D01*
X1108Y607D02*
X1138Y607D01*
X1167Y607D02*
X1197Y607D01*
X1708Y607D02*
X1738Y607D01*
X1767Y607D02*
X1797Y607D01*
X2308Y607D02*
X2338Y607D01*
X2367Y607D02*
X2397Y607D01*
X2908Y607D02*
X2938Y607D01*
X2967Y607D02*
X2997Y607D01*
X3508Y607D02*
X3538Y607D01*
X3567Y607D02*
X3597Y607D01*
X4136Y607D02*
X4161Y607D01*
X4199Y607D02*
X4225Y607D01*
X4708Y607D02*
X4738Y607D01*
X4767Y607D02*
X4797Y607D01*
X508Y606D02*
X537Y606D01*
X568Y606D02*
X597Y606D01*
X1108Y606D02*
X1137Y606D01*
X1168Y606D02*
X1197Y606D01*
X1708Y606D02*
X1737Y606D01*
X1768Y606D02*
X1797Y606D01*
X2308Y606D02*
X2337Y606D01*
X2368Y606D02*
X2397Y606D01*
X2908Y606D02*
X2937Y606D01*
X2968Y606D02*
X2997Y606D01*
X3508Y606D02*
X3537Y606D01*
X3568Y606D02*
X3597Y606D01*
X4136Y606D02*
X4161Y606D01*
X4199Y606D02*
X4225Y606D01*
X4708Y606D02*
X4737Y606D01*
X4768Y606D02*
X4797Y606D01*
X508Y605D02*
X537Y605D01*
X569Y605D02*
X597Y605D01*
X1108Y605D02*
X1137Y605D01*
X1169Y605D02*
X1197Y605D01*
X1708Y605D02*
X1737Y605D01*
X1769Y605D02*
X1797Y605D01*
X2308Y605D02*
X2337Y605D01*
X2369Y605D02*
X2397Y605D01*
X2908Y605D02*
X2937Y605D01*
X2969Y605D02*
X2997Y605D01*
X3508Y605D02*
X3537Y605D01*
X3569Y605D02*
X3597Y605D01*
X4136Y605D02*
X4161Y605D01*
X4199Y605D02*
X4225Y605D01*
X4708Y605D02*
X4737Y605D01*
X4769Y605D02*
X4797Y605D01*
X508Y604D02*
X536Y604D01*
X570Y604D02*
X597Y604D01*
X1108Y604D02*
X1136Y604D01*
X1170Y604D02*
X1197Y604D01*
X1708Y604D02*
X1736Y604D01*
X1770Y604D02*
X1797Y604D01*
X2308Y604D02*
X2336Y604D01*
X2370Y604D02*
X2397Y604D01*
X2908Y604D02*
X2936Y604D01*
X2970Y604D02*
X2997Y604D01*
X3508Y604D02*
X3536Y604D01*
X3570Y604D02*
X3597Y604D01*
X4136Y604D02*
X4161Y604D01*
X4199Y604D02*
X4225Y604D01*
X4708Y604D02*
X4736Y604D01*
X4770Y604D02*
X4797Y604D01*
X508Y603D02*
X536Y603D01*
X570Y603D02*
X597Y603D01*
X1108Y603D02*
X1136Y603D01*
X1170Y603D02*
X1197Y603D01*
X1708Y603D02*
X1736Y603D01*
X1770Y603D02*
X1797Y603D01*
X2308Y603D02*
X2336Y603D01*
X2370Y603D02*
X2397Y603D01*
X2908Y603D02*
X2935Y603D01*
X2970Y603D02*
X2997Y603D01*
X3508Y603D02*
X3535Y603D01*
X3570Y603D02*
X3597Y603D01*
X4136Y603D02*
X4161Y603D01*
X4199Y603D02*
X4225Y603D01*
X4708Y603D02*
X4735Y603D01*
X4770Y603D02*
X4797Y603D01*
X508Y602D02*
X535Y602D01*
X571Y602D02*
X597Y602D01*
X1108Y602D02*
X1135Y602D01*
X1171Y602D02*
X1197Y602D01*
X1708Y602D02*
X1735Y602D01*
X1771Y602D02*
X1797Y602D01*
X2308Y602D02*
X2335Y602D01*
X2371Y602D02*
X2397Y602D01*
X2908Y602D02*
X2935Y602D01*
X2971Y602D02*
X2997Y602D01*
X3508Y602D02*
X3535Y602D01*
X3571Y602D02*
X3597Y602D01*
X4136Y602D02*
X4161Y602D01*
X4199Y602D02*
X4225Y602D01*
X4708Y602D02*
X4735Y602D01*
X4771Y602D02*
X4797Y602D01*
X508Y601D02*
X535Y601D01*
X571Y601D02*
X597Y601D01*
X1108Y601D02*
X1135Y601D01*
X1171Y601D02*
X1197Y601D01*
X1708Y601D02*
X1735Y601D01*
X1771Y601D02*
X1797Y601D01*
X2308Y601D02*
X2335Y601D01*
X2371Y601D02*
X2397Y601D01*
X2908Y601D02*
X2935Y601D01*
X2971Y601D02*
X2997Y601D01*
X3508Y601D02*
X3535Y601D01*
X3571Y601D02*
X3597Y601D01*
X4136Y601D02*
X4161Y601D01*
X4199Y601D02*
X4225Y601D01*
X4708Y601D02*
X4735Y601D01*
X4771Y601D02*
X4797Y601D01*
X508Y600D02*
X534Y600D01*
X571Y600D02*
X597Y600D01*
X1108Y600D02*
X1134Y600D01*
X1171Y600D02*
X1197Y600D01*
X1708Y600D02*
X1734Y600D01*
X1771Y600D02*
X1797Y600D01*
X2308Y600D02*
X2334Y600D01*
X2371Y600D02*
X2397Y600D01*
X2908Y600D02*
X2934Y600D01*
X2971Y600D02*
X2997Y600D01*
X3508Y600D02*
X3534Y600D01*
X3571Y600D02*
X3597Y600D01*
X4136Y600D02*
X4161Y600D01*
X4199Y600D02*
X4225Y600D01*
X4708Y600D02*
X4734Y600D01*
X4771Y600D02*
X4797Y600D01*
X508Y599D02*
X534Y599D01*
X572Y599D02*
X597Y599D01*
X1108Y599D02*
X1134Y599D01*
X1172Y599D02*
X1197Y599D01*
X1708Y599D02*
X1734Y599D01*
X1772Y599D02*
X1797Y599D01*
X2308Y599D02*
X2334Y599D01*
X2372Y599D02*
X2397Y599D01*
X2908Y599D02*
X2934Y599D01*
X2972Y599D02*
X2997Y599D01*
X3508Y599D02*
X3534Y599D01*
X3571Y599D02*
X3597Y599D01*
X4136Y599D02*
X4161Y599D01*
X4199Y599D02*
X4225Y599D01*
X4708Y599D02*
X4734Y599D01*
X4771Y599D02*
X4797Y599D01*
X508Y598D02*
X534Y598D01*
X572Y598D02*
X597Y598D01*
X1108Y598D02*
X1134Y598D01*
X1172Y598D02*
X1197Y598D01*
X1708Y598D02*
X1734Y598D01*
X1772Y598D02*
X1797Y598D01*
X2308Y598D02*
X2334Y598D01*
X2372Y598D02*
X2397Y598D01*
X2908Y598D02*
X2934Y598D01*
X2972Y598D02*
X2997Y598D01*
X3508Y598D02*
X3534Y598D01*
X3572Y598D02*
X3597Y598D01*
X4136Y598D02*
X4162Y598D01*
X4199Y598D02*
X4225Y598D01*
X4708Y598D02*
X4734Y598D01*
X4772Y598D02*
X4797Y598D01*
X508Y597D02*
X534Y597D01*
X572Y597D02*
X597Y597D01*
X1108Y597D02*
X1134Y597D01*
X1172Y597D02*
X1197Y597D01*
X1708Y597D02*
X1734Y597D01*
X1772Y597D02*
X1797Y597D01*
X2308Y597D02*
X2334Y597D01*
X2372Y597D02*
X2397Y597D01*
X2908Y597D02*
X2934Y597D01*
X2972Y597D02*
X2997Y597D01*
X3508Y597D02*
X3534Y597D01*
X3572Y597D02*
X3597Y597D01*
X4136Y597D02*
X4162Y597D01*
X4198Y597D02*
X4225Y597D01*
X4708Y597D02*
X4734Y597D01*
X4772Y597D02*
X4797Y597D01*
X508Y596D02*
X534Y596D01*
X572Y596D02*
X597Y596D01*
X1108Y596D02*
X1134Y596D01*
X1172Y596D02*
X1197Y596D01*
X1708Y596D02*
X1734Y596D01*
X1772Y596D02*
X1797Y596D01*
X2308Y596D02*
X2334Y596D01*
X2372Y596D02*
X2397Y596D01*
X2908Y596D02*
X2934Y596D01*
X2972Y596D02*
X2997Y596D01*
X3508Y596D02*
X3534Y596D01*
X3572Y596D02*
X3597Y596D01*
X4136Y596D02*
X4162Y596D01*
X4198Y596D02*
X4225Y596D01*
X4708Y596D02*
X4734Y596D01*
X4772Y596D02*
X4797Y596D01*
X508Y595D02*
X534Y595D01*
X572Y595D02*
X597Y595D01*
X1108Y595D02*
X1134Y595D01*
X1172Y595D02*
X1197Y595D01*
X1708Y595D02*
X1734Y595D01*
X1772Y595D02*
X1797Y595D01*
X2308Y595D02*
X2334Y595D01*
X2372Y595D02*
X2397Y595D01*
X2908Y595D02*
X2934Y595D01*
X2972Y595D02*
X2997Y595D01*
X3508Y595D02*
X3534Y595D01*
X3572Y595D02*
X3597Y595D01*
X4136Y595D02*
X4163Y595D01*
X4198Y595D02*
X4225Y595D01*
X4708Y595D02*
X4734Y595D01*
X4772Y595D02*
X4797Y595D01*
X508Y594D02*
X534Y594D01*
X572Y594D02*
X597Y594D01*
X1108Y594D02*
X1134Y594D01*
X1172Y594D02*
X1197Y594D01*
X1708Y594D02*
X1734Y594D01*
X1772Y594D02*
X1797Y594D01*
X2308Y594D02*
X2334Y594D01*
X2372Y594D02*
X2397Y594D01*
X2908Y594D02*
X2934Y594D01*
X2972Y594D02*
X2997Y594D01*
X3508Y594D02*
X3534Y594D01*
X3572Y594D02*
X3597Y594D01*
X4136Y594D02*
X4163Y594D01*
X4197Y594D02*
X4225Y594D01*
X4708Y594D02*
X4734Y594D01*
X4772Y594D02*
X4797Y594D01*
X508Y593D02*
X534Y593D01*
X572Y593D02*
X597Y593D01*
X1108Y593D02*
X1134Y593D01*
X1172Y593D02*
X1197Y593D01*
X1708Y593D02*
X1734Y593D01*
X1772Y593D02*
X1797Y593D01*
X2308Y593D02*
X2334Y593D01*
X2372Y593D02*
X2397Y593D01*
X2908Y593D02*
X2934Y593D01*
X2972Y593D02*
X2997Y593D01*
X3508Y593D02*
X3534Y593D01*
X3572Y593D02*
X3597Y593D01*
X4136Y593D02*
X4164Y593D01*
X4197Y593D02*
X4225Y593D01*
X4708Y593D02*
X4734Y593D01*
X4772Y593D02*
X4797Y593D01*
X508Y592D02*
X534Y592D01*
X572Y592D02*
X597Y592D01*
X1108Y592D02*
X1134Y592D01*
X1172Y592D02*
X1197Y592D01*
X1708Y592D02*
X1734Y592D01*
X1772Y592D02*
X1797Y592D01*
X2308Y592D02*
X2334Y592D01*
X2372Y592D02*
X2397Y592D01*
X2908Y592D02*
X2934Y592D01*
X2972Y592D02*
X2997Y592D01*
X3508Y592D02*
X3534Y592D01*
X3572Y592D02*
X3597Y592D01*
X4136Y592D02*
X4164Y592D01*
X4196Y592D02*
X4225Y592D01*
X4708Y592D02*
X4734Y592D01*
X4772Y592D02*
X4797Y592D01*
X508Y591D02*
X534Y591D01*
X572Y591D02*
X597Y591D01*
X1108Y591D02*
X1134Y591D01*
X1172Y591D02*
X1197Y591D01*
X1708Y591D02*
X1734Y591D01*
X1772Y591D02*
X1797Y591D01*
X2308Y591D02*
X2334Y591D01*
X2372Y591D02*
X2397Y591D01*
X2908Y591D02*
X2934Y591D01*
X2972Y591D02*
X2997Y591D01*
X3508Y591D02*
X3534Y591D01*
X3572Y591D02*
X3597Y591D01*
X4136Y591D02*
X4165Y591D01*
X4195Y591D02*
X4225Y591D01*
X4708Y591D02*
X4734Y591D01*
X4772Y591D02*
X4797Y591D01*
X508Y590D02*
X534Y590D01*
X571Y590D02*
X597Y590D01*
X1108Y590D02*
X1134Y590D01*
X1171Y590D02*
X1197Y590D01*
X1708Y590D02*
X1734Y590D01*
X1771Y590D02*
X1797Y590D01*
X2308Y590D02*
X2334Y590D01*
X2371Y590D02*
X2397Y590D01*
X2908Y590D02*
X2934Y590D01*
X2971Y590D02*
X2997Y590D01*
X3508Y590D02*
X3534Y590D01*
X3571Y590D02*
X3597Y590D01*
X4136Y590D02*
X4166Y590D01*
X4194Y590D02*
X4225Y590D01*
X4708Y590D02*
X4734Y590D01*
X4771Y590D02*
X4797Y590D01*
X508Y589D02*
X535Y589D01*
X571Y589D02*
X597Y589D01*
X1108Y589D02*
X1135Y589D01*
X1171Y589D02*
X1197Y589D01*
X1708Y589D02*
X1735Y589D01*
X1771Y589D02*
X1797Y589D01*
X2308Y589D02*
X2335Y589D01*
X2371Y589D02*
X2397Y589D01*
X2908Y589D02*
X2935Y589D01*
X2971Y589D02*
X2997Y589D01*
X3508Y589D02*
X3535Y589D01*
X3571Y589D02*
X3597Y589D01*
X4136Y589D02*
X4167Y589D01*
X4193Y589D02*
X4225Y589D01*
X4708Y589D02*
X4735Y589D01*
X4771Y589D02*
X4797Y589D01*
X508Y588D02*
X535Y588D01*
X571Y588D02*
X597Y588D01*
X1108Y588D02*
X1135Y588D01*
X1171Y588D02*
X1197Y588D01*
X1708Y588D02*
X1735Y588D01*
X1771Y588D02*
X1797Y588D01*
X2308Y588D02*
X2335Y588D01*
X2371Y588D02*
X2397Y588D01*
X2908Y588D02*
X2935Y588D01*
X2971Y588D02*
X2997Y588D01*
X3508Y588D02*
X3535Y588D01*
X3571Y588D02*
X3597Y588D01*
X4136Y588D02*
X4168Y588D01*
X4192Y588D02*
X4225Y588D01*
X4708Y588D02*
X4735Y588D01*
X4771Y588D02*
X4797Y588D01*
X508Y587D02*
X535Y587D01*
X570Y587D02*
X597Y587D01*
X1108Y587D02*
X1135Y587D01*
X1170Y587D02*
X1197Y587D01*
X1708Y587D02*
X1735Y587D01*
X1770Y587D02*
X1797Y587D01*
X2308Y587D02*
X2335Y587D01*
X2370Y587D02*
X2397Y587D01*
X2908Y587D02*
X2935Y587D01*
X2970Y587D02*
X2997Y587D01*
X3508Y587D02*
X3535Y587D01*
X3570Y587D02*
X3597Y587D01*
X4136Y587D02*
X4170Y587D01*
X4191Y587D02*
X4225Y587D01*
X4708Y587D02*
X4735Y587D01*
X4770Y587D02*
X4797Y587D01*
X508Y586D02*
X536Y586D01*
X570Y586D02*
X597Y586D01*
X1108Y586D02*
X1136Y586D01*
X1170Y586D02*
X1197Y586D01*
X1708Y586D02*
X1736Y586D01*
X1770Y586D02*
X1797Y586D01*
X2308Y586D02*
X2336Y586D01*
X2370Y586D02*
X2397Y586D01*
X2908Y586D02*
X2936Y586D01*
X2970Y586D02*
X2997Y586D01*
X3508Y586D02*
X3536Y586D01*
X3570Y586D02*
X3597Y586D01*
X4136Y586D02*
X4172Y586D01*
X4189Y586D02*
X4225Y586D01*
X4708Y586D02*
X4736Y586D01*
X4770Y586D02*
X4797Y586D01*
X508Y585D02*
X537Y585D01*
X569Y585D02*
X597Y585D01*
X1108Y585D02*
X1137Y585D01*
X1169Y585D02*
X1197Y585D01*
X1708Y585D02*
X1737Y585D01*
X1769Y585D02*
X1797Y585D01*
X2308Y585D02*
X2337Y585D01*
X2369Y585D02*
X2397Y585D01*
X2908Y585D02*
X2937Y585D01*
X2969Y585D02*
X2997Y585D01*
X3508Y585D02*
X3537Y585D01*
X3569Y585D02*
X3597Y585D01*
X4136Y585D02*
X4174Y585D01*
X4186Y585D02*
X4225Y585D01*
X4708Y585D02*
X4736Y585D01*
X4769Y585D02*
X4797Y585D01*
X508Y584D02*
X537Y584D01*
X568Y584D02*
X597Y584D01*
X1108Y584D02*
X1137Y584D01*
X1168Y584D02*
X1197Y584D01*
X1708Y584D02*
X1737Y584D01*
X1768Y584D02*
X1797Y584D01*
X2308Y584D02*
X2337Y584D01*
X2368Y584D02*
X2397Y584D01*
X2908Y584D02*
X2937Y584D01*
X2968Y584D02*
X2997Y584D01*
X3508Y584D02*
X3537Y584D01*
X3568Y584D02*
X3597Y584D01*
X4136Y584D02*
X4225Y584D01*
X4708Y584D02*
X4737Y584D01*
X4768Y584D02*
X4797Y584D01*
X508Y583D02*
X538Y583D01*
X568Y583D02*
X597Y583D01*
X1108Y583D02*
X1138Y583D01*
X1168Y583D02*
X1197Y583D01*
X1708Y583D02*
X1738Y583D01*
X1768Y583D02*
X1797Y583D01*
X2308Y583D02*
X2338Y583D01*
X2368Y583D02*
X2397Y583D01*
X2908Y583D02*
X2938Y583D01*
X2967Y583D02*
X2997Y583D01*
X3508Y583D02*
X3538Y583D01*
X3567Y583D02*
X3597Y583D01*
X4136Y583D02*
X4225Y583D01*
X4708Y583D02*
X4738Y583D01*
X4767Y583D02*
X4797Y583D01*
X508Y582D02*
X539Y582D01*
X567Y582D02*
X597Y582D01*
X1108Y582D02*
X1139Y582D01*
X1167Y582D02*
X1197Y582D01*
X1708Y582D02*
X1739Y582D01*
X1767Y582D02*
X1797Y582D01*
X2308Y582D02*
X2339Y582D01*
X2367Y582D02*
X2397Y582D01*
X2908Y582D02*
X2939Y582D01*
X2967Y582D02*
X2997Y582D01*
X3508Y582D02*
X3539Y582D01*
X3567Y582D02*
X3597Y582D01*
X4136Y582D02*
X4225Y582D01*
X4708Y582D02*
X4739Y582D01*
X4767Y582D02*
X4797Y582D01*
X508Y581D02*
X540Y581D01*
X566Y581D02*
X597Y581D01*
X1108Y581D02*
X1140Y581D01*
X1166Y581D02*
X1197Y581D01*
X1708Y581D02*
X1740Y581D01*
X1766Y581D02*
X1797Y581D01*
X2308Y581D02*
X2340Y581D01*
X2366Y581D02*
X2397Y581D01*
X2908Y581D02*
X2940Y581D01*
X2966Y581D02*
X2997Y581D01*
X3508Y581D02*
X3540Y581D01*
X3566Y581D02*
X3597Y581D01*
X4136Y581D02*
X4225Y581D01*
X4708Y581D02*
X4740Y581D01*
X4766Y581D02*
X4797Y581D01*
X508Y580D02*
X541Y580D01*
X564Y580D02*
X597Y580D01*
X1108Y580D02*
X1141Y580D01*
X1164Y580D02*
X1197Y580D01*
X1708Y580D02*
X1741Y580D01*
X1764Y580D02*
X1797Y580D01*
X2308Y580D02*
X2341Y580D01*
X2364Y580D02*
X2397Y580D01*
X2908Y580D02*
X2941Y580D01*
X2964Y580D02*
X2997Y580D01*
X3508Y580D02*
X3541Y580D01*
X3564Y580D02*
X3597Y580D01*
X4136Y580D02*
X4225Y580D01*
X4708Y580D02*
X4741Y580D01*
X4764Y580D02*
X4797Y580D01*
X508Y579D02*
X543Y579D01*
X563Y579D02*
X597Y579D01*
X1108Y579D02*
X1143Y579D01*
X1163Y579D02*
X1197Y579D01*
X1708Y579D02*
X1743Y579D01*
X1763Y579D02*
X1797Y579D01*
X2308Y579D02*
X2343Y579D01*
X2363Y579D02*
X2397Y579D01*
X2908Y579D02*
X2943Y579D01*
X2963Y579D02*
X2997Y579D01*
X3508Y579D02*
X3543Y579D01*
X3563Y579D02*
X3597Y579D01*
X4136Y579D02*
X4225Y579D01*
X4708Y579D02*
X4743Y579D01*
X4763Y579D02*
X4797Y579D01*
X508Y578D02*
X545Y578D01*
X561Y578D02*
X597Y578D01*
X1108Y578D02*
X1145Y578D01*
X1161Y578D02*
X1197Y578D01*
X1708Y578D02*
X1744Y578D01*
X1761Y578D02*
X1797Y578D01*
X2308Y578D02*
X2344Y578D01*
X2361Y578D02*
X2397Y578D01*
X2908Y578D02*
X2944Y578D01*
X2961Y578D02*
X2997Y578D01*
X3508Y578D02*
X3544Y578D01*
X3561Y578D02*
X3597Y578D01*
X4136Y578D02*
X4225Y578D01*
X4708Y578D02*
X4744Y578D01*
X4761Y578D02*
X4797Y578D01*
X508Y577D02*
X547Y577D01*
X558Y577D02*
X597Y577D01*
X1108Y577D02*
X1147Y577D01*
X1158Y577D02*
X1197Y577D01*
X1708Y577D02*
X1747Y577D01*
X1758Y577D02*
X1797Y577D01*
X2308Y577D02*
X2347Y577D01*
X2358Y577D02*
X2397Y577D01*
X2908Y577D02*
X2947Y577D01*
X2958Y577D02*
X2997Y577D01*
X3508Y577D02*
X3547Y577D01*
X3558Y577D02*
X3597Y577D01*
X4136Y577D02*
X4225Y577D01*
X4708Y577D02*
X4747Y577D01*
X4758Y577D02*
X4797Y577D01*
X508Y576D02*
X597Y576D01*
X1108Y576D02*
X1197Y576D01*
X1708Y576D02*
X1797Y576D01*
X2308Y576D02*
X2397Y576D01*
X2908Y576D02*
X2997Y576D01*
X3508Y576D02*
X3597Y576D01*
X4136Y576D02*
X4225Y576D01*
X4708Y576D02*
X4797Y576D01*
X508Y575D02*
X597Y575D01*
X1108Y575D02*
X1197Y575D01*
X1708Y575D02*
X1797Y575D01*
X2308Y575D02*
X2397Y575D01*
X2908Y575D02*
X2997Y575D01*
X3508Y575D02*
X3597Y575D01*
X4136Y575D02*
X4225Y575D01*
X4708Y575D02*
X4797Y575D01*
X508Y574D02*
X597Y574D01*
X1108Y574D02*
X1197Y574D01*
X1708Y574D02*
X1797Y574D01*
X2308Y574D02*
X2397Y574D01*
X2908Y574D02*
X2997Y574D01*
X3508Y574D02*
X3597Y574D01*
X4136Y574D02*
X4225Y574D01*
X4708Y574D02*
X4797Y574D01*
X508Y573D02*
X597Y573D01*
X1108Y573D02*
X1197Y573D01*
X1708Y573D02*
X1797Y573D01*
X2308Y573D02*
X2397Y573D01*
X2908Y573D02*
X2997Y573D01*
X3508Y573D02*
X3597Y573D01*
X4136Y573D02*
X4225Y573D01*
X4708Y573D02*
X4797Y573D01*
X508Y572D02*
X597Y572D01*
X1108Y572D02*
X1197Y572D01*
X1708Y572D02*
X1797Y572D01*
X2308Y572D02*
X2397Y572D01*
X2908Y572D02*
X2997Y572D01*
X3508Y572D02*
X3597Y572D01*
X4136Y572D02*
X4225Y572D01*
X4708Y572D02*
X4797Y572D01*
X508Y571D02*
X597Y571D01*
X1108Y571D02*
X1197Y571D01*
X1708Y571D02*
X1797Y571D01*
X2308Y571D02*
X2397Y571D01*
X2908Y571D02*
X2997Y571D01*
X3508Y571D02*
X3597Y571D01*
X4136Y571D02*
X4225Y571D01*
X4708Y571D02*
X4797Y571D01*
X508Y570D02*
X597Y570D01*
X1108Y570D02*
X1197Y570D01*
X1708Y570D02*
X1797Y570D01*
X2308Y570D02*
X2397Y570D01*
X2908Y570D02*
X2997Y570D01*
X3508Y570D02*
X3597Y570D01*
X4136Y570D02*
X4225Y570D01*
X4708Y570D02*
X4797Y570D01*
X508Y569D02*
X597Y569D01*
X1108Y569D02*
X1197Y569D01*
X1708Y569D02*
X1797Y569D01*
X2308Y569D02*
X2397Y569D01*
X2908Y569D02*
X2997Y569D01*
X3508Y569D02*
X3597Y569D01*
X4136Y569D02*
X4225Y569D01*
X4708Y569D02*
X4797Y569D01*
X508Y568D02*
X597Y568D01*
X1108Y568D02*
X1197Y568D01*
X1708Y568D02*
X1797Y568D01*
X2308Y568D02*
X2397Y568D01*
X2908Y568D02*
X2997Y568D01*
X3508Y568D02*
X3597Y568D01*
X4136Y568D02*
X4225Y568D01*
X4708Y568D02*
X4797Y568D01*
X508Y567D02*
X597Y567D01*
X1108Y567D02*
X1197Y567D01*
X1708Y567D02*
X1797Y567D01*
X2308Y567D02*
X2397Y567D01*
X2908Y567D02*
X2997Y567D01*
X3508Y567D02*
X3597Y567D01*
X4136Y567D02*
X4225Y567D01*
X4708Y567D02*
X4797Y567D01*
X508Y566D02*
X597Y566D01*
X1108Y566D02*
X1197Y566D01*
X1708Y566D02*
X1797Y566D01*
X2308Y566D02*
X2397Y566D01*
X2908Y566D02*
X2997Y566D01*
X3508Y566D02*
X3597Y566D01*
X4136Y566D02*
X4225Y566D01*
X4708Y566D02*
X4797Y566D01*
X508Y565D02*
X597Y565D01*
X1108Y565D02*
X1197Y565D01*
X1708Y565D02*
X1797Y565D01*
X2308Y565D02*
X2397Y565D01*
X2908Y565D02*
X2997Y565D01*
X3508Y565D02*
X3597Y565D01*
X4136Y565D02*
X4225Y565D01*
X4708Y565D02*
X4797Y565D01*
X508Y564D02*
X597Y564D01*
X1108Y564D02*
X1197Y564D01*
X1708Y564D02*
X1797Y564D01*
X2308Y564D02*
X2397Y564D01*
X2908Y564D02*
X2997Y564D01*
X3508Y564D02*
X3597Y564D01*
X4136Y564D02*
X4225Y564D01*
X4708Y564D02*
X4797Y564D01*
X508Y563D02*
X597Y563D01*
X1108Y563D02*
X1197Y563D01*
X1708Y563D02*
X1797Y563D01*
X2308Y563D02*
X2397Y563D01*
X2908Y563D02*
X2997Y563D01*
X3508Y563D02*
X3597Y563D01*
X4136Y563D02*
X4225Y563D01*
X4708Y563D02*
X4797Y563D01*
X508Y562D02*
X597Y562D01*
X1108Y562D02*
X1197Y562D01*
X1708Y562D02*
X1797Y562D01*
X2308Y562D02*
X2397Y562D01*
X2908Y562D02*
X2997Y562D01*
X3508Y562D02*
X3597Y562D01*
X4136Y562D02*
X4225Y562D01*
X4708Y562D02*
X4797Y562D01*
X508Y561D02*
X597Y561D01*
X1108Y561D02*
X1197Y561D01*
X1708Y561D02*
X1797Y561D01*
X2308Y561D02*
X2397Y561D01*
X2908Y561D02*
X2997Y561D01*
X3508Y561D02*
X3597Y561D01*
X4136Y561D02*
X4225Y561D01*
X4708Y561D02*
X4797Y561D01*
X508Y560D02*
X597Y560D01*
X1108Y560D02*
X1197Y560D01*
X1708Y560D02*
X1797Y560D01*
X2308Y560D02*
X2397Y560D01*
X2908Y560D02*
X2997Y560D01*
X3508Y560D02*
X3597Y560D01*
X4136Y560D02*
X4225Y560D01*
X4708Y560D02*
X4797Y560D01*
X508Y559D02*
X597Y559D01*
X1108Y559D02*
X1197Y559D01*
X1708Y559D02*
X1797Y559D01*
X2308Y559D02*
X2397Y559D01*
X2908Y559D02*
X2997Y559D01*
X3508Y559D02*
X3597Y559D01*
X4136Y559D02*
X4225Y559D01*
X4708Y559D02*
X4797Y559D01*
X508Y558D02*
X597Y558D01*
X1108Y558D02*
X1197Y558D01*
X1708Y558D02*
X1797Y558D01*
X2308Y558D02*
X2397Y558D01*
X2908Y558D02*
X2997Y558D01*
X3508Y558D02*
X3597Y558D01*
X4136Y558D02*
X4224Y558D01*
X4708Y558D02*
X4797Y558D01*
X508Y557D02*
X597Y557D01*
X1108Y557D02*
X1197Y557D01*
X1708Y557D02*
X1797Y557D01*
X2308Y557D02*
X2397Y557D01*
X2908Y557D02*
X2997Y557D01*
X3508Y557D02*
X3597Y557D01*
X4708Y557D02*
X4797Y557D01*
X508Y556D02*
X597Y556D01*
X1108Y556D02*
X1197Y556D01*
X1708Y556D02*
X1797Y556D01*
X2308Y556D02*
X2397Y556D01*
X2908Y556D02*
X2997Y556D01*
X3508Y556D02*
X3597Y556D01*
X4708Y556D02*
X4797Y556D01*
X508Y555D02*
X597Y555D01*
X1108Y555D02*
X1197Y555D01*
X1708Y555D02*
X1797Y555D01*
X2308Y555D02*
X2397Y555D01*
X2908Y555D02*
X2997Y555D01*
X3508Y555D02*
X3597Y555D01*
X4708Y555D02*
X4797Y555D01*
X508Y554D02*
X597Y554D01*
X1108Y554D02*
X1197Y554D01*
X1708Y554D02*
X1797Y554D01*
X2308Y554D02*
X2397Y554D01*
X2908Y554D02*
X2997Y554D01*
X3508Y554D02*
X3597Y554D01*
X4708Y554D02*
X4797Y554D01*
X508Y553D02*
X597Y553D01*
X1108Y553D02*
X1197Y553D01*
X1708Y553D02*
X1797Y553D01*
X2308Y553D02*
X2397Y553D01*
X2908Y553D02*
X2997Y553D01*
X3508Y553D02*
X3597Y553D01*
X4708Y553D02*
X4797Y553D01*
X508Y552D02*
X597Y552D01*
X1108Y552D02*
X1197Y552D01*
X1708Y552D02*
X1797Y552D01*
X2308Y552D02*
X2397Y552D01*
X2908Y552D02*
X2997Y552D01*
X3508Y552D02*
X3597Y552D01*
X4708Y552D02*
X4797Y552D01*
X508Y551D02*
X597Y551D01*
X1108Y551D02*
X1197Y551D01*
X1708Y551D02*
X1797Y551D01*
X2308Y551D02*
X2397Y551D01*
X2908Y551D02*
X2997Y551D01*
X3508Y551D02*
X3597Y551D01*
X4708Y551D02*
X4797Y551D01*
X509Y550D02*
X597Y550D01*
X1109Y550D02*
X1197Y550D01*
X1709Y550D02*
X1797Y550D01*
X2309Y550D02*
X2397Y550D01*
X2909Y550D02*
X2997Y550D01*
X3509Y550D02*
X3597Y550D01*
X4709Y550D02*
X4797Y550D01*
D02*
G04 End of Mask0*
M02*