; NON-PLATED HOLES START AT T1
; THROUGH (PLATED) HOLES START AT T100
M48
INCH
T100C0.030000
T101C0.027559
T102C0.051139
T103C0.015748
%
T100
X007533Y028934
X035311Y019934
X040533Y047935
X007533Y047934
X035533Y040934
X007348Y018564
X012533Y038935
X040533Y031935
X012533Y022934
X007533Y031935
X040311Y013934
X012533Y041934
X007348Y021564
X040533Y027934
X035533Y036935
X007533Y027934
X035311Y018934
X040533Y046935
X007533Y046934
X007348Y017564
X012533Y037935
X012533Y040934
X007348Y020564
X040533Y026934
X035533Y035935
X007533Y026934
X035311Y017934
X040533Y045935
X007533Y045934
X007348Y016564
X012533Y036935
X035311Y020934
X040533Y025934
X035533Y034935
X007533Y025934
X035311Y016934
X040533Y044935
X007533Y044934
X007348Y015564
X012533Y035935
X040533Y024934
X035533Y033935
X007533Y024934
X035311Y015934
X040533Y043935
X007533Y043934
X007348Y014564
X035533Y029934
X012533Y034935
X040533Y023934
X035533Y032935
X007533Y023934
X035311Y014934
X040533Y042935
X007533Y042934
X035533Y028934
X012533Y033935
X035533Y047935
X040533Y038935
X012533Y029934
X007533Y038935
X040533Y022934
X035533Y031935
X012348Y019564
X007533Y022934
X035311Y013934
X040533Y041935
X007533Y041934
X035533Y027934
X012533Y032935
X035533Y046935
X040533Y037935
X012533Y028934
X007533Y037935
X040311Y019934
X012533Y047934
X012348Y018564
X040533Y040934
X007533Y040934
X035533Y026934
X012533Y031935
X012348Y021564
X035533Y045935
X040533Y036935
X012533Y027934
X007533Y036935
X040311Y018934
X012533Y046934
X012348Y017564
X035533Y025934
X012348Y020564
X035533Y044935
X040533Y035935
X012533Y026934
X007533Y035935
X040311Y017934
X012533Y045934
X012348Y016564
X040311Y020934
X035533Y024934
X035533Y043935
X040533Y034935
X012533Y025934
X007533Y034935
X040311Y016934
X012533Y044934
X012348Y015564
X035533Y023934
X035533Y042935
X040533Y033935
X012533Y024934
X007533Y033935
X040311Y015934
X012533Y043934
X012348Y014564
X040533Y029934
X035533Y038935
X007533Y029934
X035533Y022934
X007348Y019564
X035533Y041935
X040533Y032935
X012533Y023934
X007533Y032935
X040311Y014934
X012533Y042934
X040533Y028934
X035533Y037935
T101
X047533Y031722
X047533Y033297
X004533Y030935
X047533Y026722
X047533Y028297
X047533Y040934
X004533Y039360
X047533Y032509
X004533Y023360
X004533Y024934
X004533Y030147
X047533Y035935
X004533Y033572
X047533Y027509
X004533Y028572
X004533Y024147
X047533Y041722
X047533Y043297
X004533Y040935
X047533Y036722
X047533Y038297
X004533Y034360
X004533Y035935
X047533Y042509
X047533Y030935
X004533Y040147
X004533Y029360
X047533Y025934
X047533Y037509
X004533Y035147
X004533Y038572
X004533Y022572
T102
X031399Y005935
X046155Y005935
X037673Y006013
X011533Y005935
X002777Y005935
X008777Y005935
X017533Y005935
X001399Y005935
X016155Y005935
X044777Y005935
X010155Y005935
X043399Y005935
X023533Y005935
X007399Y005935
X014777Y005935
X029533Y005935
X013399Y005935
X022155Y005935
X028155Y005935
X041807Y006013
X019399Y005935
X040429Y006013
X020777Y005935
X026777Y005935
X035533Y005935
X034155Y005935
X025399Y005935
X005533Y005935
X039051Y006013
X032777Y005935
X004155Y005935
X047533Y005935
T103
X031681Y017342
X031792Y027083
X022496Y012379
X013533Y018934
X026348Y008675
X022348Y049527
X023533Y015934
X016533Y018934
X014533Y018934
X020052Y031120
X024792Y007638
X015533Y018934
X020866Y044601
X026940Y009342
X021089Y032194
X020903Y036786
X019792Y036786
X033155Y016268
X028570Y036249
X023681Y043083
X033237Y020897
X022533Y040934
X034274Y021008
X029089Y011546
X022422Y032008
X023533Y024120
X034232Y015315
X029700Y012416
X019533Y014934
X017533Y014934
X030755Y012453
X018866Y036712
X022422Y041934
X031755Y019934
X031014Y028046
X022422Y021749
X030829Y020897
X023607Y027934
X022459Y030305
X030755Y017416
X019533Y043601
X027533Y009879
X020533Y014934
X018496Y014897
X028366Y010564
X033348Y026064
X029718Y034046
X033222Y013001
X034163Y013243
X021755Y045712
X034370Y024912
X023533Y046934
X021829Y031268
X031681Y012897
X023607Y034194
X023533Y038934
X022403Y020546
X025533Y008008
X021829Y036823
X027940Y037138
X029126Y035175
X018533Y042934
X018940Y031083
T00
M30
