; NON-PLATED HOLES START AT T1
; THROUGH (PLATED) HOLES START AT T100
M48
INCH
T1C0.125984
T100C0.051139
T101C0.030000
T102C0.015748
%
T1
X000853Y018460
X018519Y018460
X000853Y001460
X018519Y001460
T100
X003188Y003201
X003170Y015368
X017962Y009616
X017890Y012215
X003188Y004579
X003181Y007951
X003181Y010706
X003170Y016746
X003181Y009328
X017962Y005482
X003188Y005957
X017890Y013593
X003181Y012084
X017962Y006860
X003170Y018124
X003188Y001823
X017890Y014971
X017962Y008238
X003170Y013990
X017890Y016349
T101
X005649Y002442
X008649Y007442
X011649Y007442
X013112Y013256
X007649Y007442
X010649Y007442
X005649Y007442
X007112Y013256
X010112Y013256
X013112Y018256
X009649Y002442
X012649Y002442
X007112Y018256
X010112Y018256
X006649Y002442
X009649Y007442
X012649Y007442
X014112Y013256
X009112Y013256
X012112Y013256
X006649Y007442
X008112Y013256
X011112Y013256
X014112Y018256
X009112Y018256
X012112Y018256
X008649Y002442
X008112Y018256
X011649Y002442
X011112Y018256
X007649Y002442
X010649Y002442
T102
X011556Y008423
X004927Y009979
X006964Y004590
X008769Y004571
X011464Y011590
X016066Y008812
X007408Y010053
X006454Y012488
X014464Y006905
T00
M30
