G04 MADE WITH FRITZING*
G04 WWW.FRITZING.ORG*
G04 DOUBLE SIDED*
G04 HOLES PLATED*
G04 CONTOUR ON CENTER OF CONTOUR VECTOR*
%ASAXBY*%
%FSLAX23Y23*%
%MOIN*%
%OFA0B0*%
%SFA1.0B1.0*%
%ADD10C,0.080000*%
%ADD11C,0.086139*%
%ADD12C,0.049370*%
%ADD13C,0.135984*%
%ADD14R,0.080000X0.080000*%
%ADD15R,0.001000X0.001000*%
%LNMASK1*%
G90*
G70*
G54D10*
X1411Y1826D03*
X1411Y1326D03*
X1311Y1826D03*
X1311Y1326D03*
X1211Y1826D03*
X1211Y1326D03*
X1111Y1826D03*
X1111Y1326D03*
X1011Y1826D03*
X1011Y1326D03*
X911Y1826D03*
X911Y1326D03*
X811Y1826D03*
X811Y1326D03*
X711Y1826D03*
X711Y1326D03*
X1265Y744D03*
X1265Y244D03*
X1165Y744D03*
X1165Y244D03*
X1065Y744D03*
X1065Y244D03*
X965Y744D03*
X965Y244D03*
X865Y744D03*
X865Y244D03*
X765Y744D03*
X765Y244D03*
X665Y744D03*
X665Y244D03*
X565Y744D03*
X565Y244D03*
G54D11*
X318Y795D03*
X318Y933D03*
X318Y1071D03*
X318Y1208D03*
X318Y795D03*
X318Y933D03*
X318Y1071D03*
X318Y1208D03*
X1789Y1635D03*
X1789Y1497D03*
X1789Y1359D03*
X1789Y1222D03*
X1789Y1635D03*
X1789Y1497D03*
X1789Y1359D03*
X1789Y1222D03*
X1796Y962D03*
X1796Y824D03*
X1796Y686D03*
X1796Y548D03*
X1796Y962D03*
X1796Y824D03*
X1796Y686D03*
X1796Y548D03*
G54D12*
X1446Y691D03*
X877Y457D03*
X696Y459D03*
X1146Y1159D03*
X1156Y842D03*
G54D11*
X317Y1399D03*
X317Y1537D03*
X317Y1675D03*
X317Y1812D03*
X317Y1399D03*
X317Y1537D03*
X317Y1675D03*
X317Y1812D03*
G54D12*
X645Y1249D03*
G54D13*
X1852Y146D03*
X1852Y1846D03*
X85Y1846D03*
X85Y146D03*
G54D12*
X741Y1005D03*
X493Y998D03*
X1607Y881D03*
G54D11*
X319Y182D03*
X319Y320D03*
X319Y458D03*
X319Y596D03*
X319Y182D03*
X319Y320D03*
X319Y458D03*
X319Y596D03*
G54D14*
X711Y1326D03*
X1311Y1326D03*
X565Y244D03*
X1165Y244D03*
G54D15*
X1744Y1681D02*
X1832Y1681D01*
X1744Y1680D02*
X1833Y1680D01*
X1744Y1679D02*
X1833Y1679D01*
X1744Y1678D02*
X1833Y1678D01*
X1744Y1677D02*
X1833Y1677D01*
X1744Y1676D02*
X1833Y1676D01*
X1744Y1675D02*
X1833Y1675D01*
X1744Y1674D02*
X1833Y1674D01*
X1744Y1673D02*
X1833Y1673D01*
X1744Y1672D02*
X1833Y1672D01*
X1744Y1671D02*
X1833Y1671D01*
X1744Y1670D02*
X1833Y1670D01*
X1744Y1669D02*
X1833Y1669D01*
X1744Y1668D02*
X1833Y1668D01*
X1744Y1667D02*
X1833Y1667D01*
X1744Y1666D02*
X1833Y1666D01*
X1744Y1665D02*
X1833Y1665D01*
X1744Y1664D02*
X1833Y1664D01*
X1744Y1663D02*
X1833Y1663D01*
X1744Y1662D02*
X1833Y1662D01*
X1744Y1661D02*
X1833Y1661D01*
X1744Y1660D02*
X1833Y1660D01*
X1744Y1659D02*
X1833Y1659D01*
X1744Y1658D02*
X1833Y1658D01*
X1744Y1657D02*
X1833Y1657D01*
X1744Y1656D02*
X1833Y1656D01*
X1744Y1655D02*
X1833Y1655D01*
X1744Y1654D02*
X1783Y1654D01*
X1793Y1654D02*
X1833Y1654D01*
X1744Y1653D02*
X1780Y1653D01*
X1796Y1653D02*
X1833Y1653D01*
X1744Y1652D02*
X1778Y1652D01*
X1798Y1652D02*
X1833Y1652D01*
X1744Y1651D02*
X1777Y1651D01*
X1800Y1651D02*
X1833Y1651D01*
X1744Y1650D02*
X1775Y1650D01*
X1801Y1650D02*
X1833Y1650D01*
X1744Y1649D02*
X1774Y1649D01*
X1802Y1649D02*
X1833Y1649D01*
X1744Y1648D02*
X1773Y1648D01*
X1803Y1648D02*
X1833Y1648D01*
X1744Y1647D02*
X1773Y1647D01*
X1804Y1647D02*
X1833Y1647D01*
X1744Y1646D02*
X1772Y1646D01*
X1804Y1646D02*
X1833Y1646D01*
X1744Y1645D02*
X1771Y1645D01*
X1805Y1645D02*
X1833Y1645D01*
X1744Y1644D02*
X1771Y1644D01*
X1805Y1644D02*
X1833Y1644D01*
X1744Y1643D02*
X1770Y1643D01*
X1806Y1643D02*
X1833Y1643D01*
X1744Y1642D02*
X1770Y1642D01*
X1806Y1642D02*
X1833Y1642D01*
X1744Y1641D02*
X1770Y1641D01*
X1806Y1641D02*
X1833Y1641D01*
X1744Y1640D02*
X1769Y1640D01*
X1807Y1640D02*
X1833Y1640D01*
X1744Y1639D02*
X1769Y1639D01*
X1807Y1639D02*
X1833Y1639D01*
X1744Y1638D02*
X1769Y1638D01*
X1807Y1638D02*
X1833Y1638D01*
X1744Y1637D02*
X1769Y1637D01*
X1807Y1637D02*
X1833Y1637D01*
X1744Y1636D02*
X1769Y1636D01*
X1807Y1636D02*
X1833Y1636D01*
X1744Y1635D02*
X1769Y1635D01*
X1807Y1635D02*
X1833Y1635D01*
X1744Y1634D02*
X1769Y1634D01*
X1807Y1634D02*
X1833Y1634D01*
X1744Y1633D02*
X1769Y1633D01*
X1807Y1633D02*
X1833Y1633D01*
X1744Y1632D02*
X1769Y1632D01*
X1807Y1632D02*
X1833Y1632D01*
X1744Y1631D02*
X1770Y1631D01*
X1806Y1631D02*
X1833Y1631D01*
X1744Y1630D02*
X1770Y1630D01*
X1806Y1630D02*
X1833Y1630D01*
X1744Y1629D02*
X1770Y1629D01*
X1806Y1629D02*
X1833Y1629D01*
X1744Y1628D02*
X1771Y1628D01*
X1805Y1628D02*
X1833Y1628D01*
X1744Y1627D02*
X1771Y1627D01*
X1805Y1627D02*
X1833Y1627D01*
X1744Y1626D02*
X1772Y1626D01*
X1804Y1626D02*
X1833Y1626D01*
X1744Y1625D02*
X1773Y1625D01*
X1804Y1625D02*
X1833Y1625D01*
X1744Y1624D02*
X1773Y1624D01*
X1803Y1624D02*
X1833Y1624D01*
X1744Y1623D02*
X1774Y1623D01*
X1802Y1623D02*
X1833Y1623D01*
X1744Y1622D02*
X1775Y1622D01*
X1801Y1622D02*
X1833Y1622D01*
X1744Y1621D02*
X1777Y1621D01*
X1799Y1621D02*
X1833Y1621D01*
X1744Y1620D02*
X1778Y1620D01*
X1798Y1620D02*
X1833Y1620D01*
X1744Y1619D02*
X1780Y1619D01*
X1796Y1619D02*
X1833Y1619D01*
X1744Y1618D02*
X1783Y1618D01*
X1793Y1618D02*
X1833Y1618D01*
X1744Y1617D02*
X1833Y1617D01*
X1744Y1616D02*
X1833Y1616D01*
X1744Y1615D02*
X1833Y1615D01*
X1744Y1614D02*
X1833Y1614D01*
X1744Y1613D02*
X1833Y1613D01*
X1744Y1612D02*
X1833Y1612D01*
X1744Y1611D02*
X1833Y1611D01*
X1744Y1610D02*
X1833Y1610D01*
X1744Y1609D02*
X1833Y1609D01*
X1744Y1608D02*
X1833Y1608D01*
X1744Y1607D02*
X1833Y1607D01*
X1744Y1606D02*
X1833Y1606D01*
X1744Y1605D02*
X1833Y1605D01*
X1744Y1604D02*
X1833Y1604D01*
X1744Y1603D02*
X1833Y1603D01*
X1744Y1602D02*
X1833Y1602D01*
X1744Y1601D02*
X1833Y1601D01*
X1744Y1600D02*
X1833Y1600D01*
X1744Y1599D02*
X1833Y1599D01*
X1744Y1598D02*
X1833Y1598D01*
X1744Y1597D02*
X1833Y1597D01*
X1744Y1596D02*
X1833Y1596D01*
X1744Y1595D02*
X1833Y1595D01*
X1744Y1594D02*
X1833Y1594D01*
X1744Y1593D02*
X1833Y1593D01*
X1744Y1592D02*
X1833Y1592D01*
X272Y1445D02*
X361Y1445D01*
X272Y1444D02*
X361Y1444D01*
X272Y1443D02*
X361Y1443D01*
X272Y1442D02*
X361Y1442D01*
X272Y1441D02*
X361Y1441D01*
X272Y1440D02*
X361Y1440D01*
X272Y1439D02*
X361Y1439D01*
X272Y1438D02*
X361Y1438D01*
X272Y1437D02*
X361Y1437D01*
X272Y1436D02*
X361Y1436D01*
X272Y1435D02*
X361Y1435D01*
X272Y1434D02*
X361Y1434D01*
X272Y1433D02*
X361Y1433D01*
X272Y1432D02*
X361Y1432D01*
X272Y1431D02*
X361Y1431D01*
X272Y1430D02*
X361Y1430D01*
X272Y1429D02*
X361Y1429D01*
X272Y1428D02*
X361Y1428D01*
X272Y1427D02*
X361Y1427D01*
X272Y1426D02*
X361Y1426D01*
X272Y1425D02*
X361Y1425D01*
X272Y1424D02*
X361Y1424D01*
X272Y1423D02*
X361Y1423D01*
X272Y1422D02*
X361Y1422D01*
X272Y1421D02*
X361Y1421D01*
X272Y1420D02*
X361Y1420D01*
X272Y1419D02*
X361Y1419D01*
X272Y1418D02*
X311Y1418D01*
X322Y1418D02*
X361Y1418D01*
X272Y1417D02*
X308Y1417D01*
X325Y1417D02*
X361Y1417D01*
X272Y1416D02*
X306Y1416D01*
X327Y1416D02*
X361Y1416D01*
X272Y1415D02*
X305Y1415D01*
X328Y1415D02*
X361Y1415D01*
X272Y1414D02*
X304Y1414D01*
X329Y1414D02*
X361Y1414D01*
X272Y1413D02*
X302Y1413D01*
X330Y1413D02*
X361Y1413D01*
X272Y1412D02*
X302Y1412D01*
X331Y1412D02*
X361Y1412D01*
X272Y1411D02*
X301Y1411D01*
X332Y1411D02*
X361Y1411D01*
X272Y1410D02*
X300Y1410D01*
X333Y1410D02*
X361Y1410D01*
X272Y1409D02*
X300Y1409D01*
X333Y1409D02*
X361Y1409D01*
X272Y1408D02*
X299Y1408D01*
X334Y1408D02*
X361Y1408D01*
X272Y1407D02*
X299Y1407D01*
X334Y1407D02*
X361Y1407D01*
X272Y1406D02*
X298Y1406D01*
X335Y1406D02*
X361Y1406D01*
X272Y1405D02*
X298Y1405D01*
X335Y1405D02*
X361Y1405D01*
X272Y1404D02*
X298Y1404D01*
X335Y1404D02*
X361Y1404D01*
X272Y1403D02*
X298Y1403D01*
X335Y1403D02*
X361Y1403D01*
X272Y1402D02*
X297Y1402D01*
X335Y1402D02*
X361Y1402D01*
X272Y1401D02*
X297Y1401D01*
X335Y1401D02*
X361Y1401D01*
X272Y1400D02*
X297Y1400D01*
X336Y1400D02*
X361Y1400D01*
X272Y1399D02*
X297Y1399D01*
X335Y1399D02*
X361Y1399D01*
X272Y1398D02*
X298Y1398D01*
X335Y1398D02*
X361Y1398D01*
X272Y1397D02*
X298Y1397D01*
X335Y1397D02*
X361Y1397D01*
X272Y1396D02*
X298Y1396D01*
X335Y1396D02*
X361Y1396D01*
X272Y1395D02*
X298Y1395D01*
X335Y1395D02*
X361Y1395D01*
X272Y1394D02*
X298Y1394D01*
X335Y1394D02*
X361Y1394D01*
X272Y1393D02*
X299Y1393D01*
X334Y1393D02*
X361Y1393D01*
X272Y1392D02*
X299Y1392D01*
X334Y1392D02*
X361Y1392D01*
X272Y1391D02*
X300Y1391D01*
X333Y1391D02*
X361Y1391D01*
X272Y1390D02*
X300Y1390D01*
X333Y1390D02*
X361Y1390D01*
X272Y1389D02*
X301Y1389D01*
X332Y1389D02*
X361Y1389D01*
X272Y1388D02*
X302Y1388D01*
X331Y1388D02*
X361Y1388D01*
X272Y1387D02*
X303Y1387D01*
X330Y1387D02*
X361Y1387D01*
X272Y1386D02*
X304Y1386D01*
X329Y1386D02*
X361Y1386D01*
X272Y1385D02*
X305Y1385D01*
X328Y1385D02*
X361Y1385D01*
X272Y1384D02*
X307Y1384D01*
X326Y1384D02*
X361Y1384D01*
X272Y1383D02*
X309Y1383D01*
X324Y1383D02*
X361Y1383D01*
X272Y1382D02*
X312Y1382D01*
X321Y1382D02*
X361Y1382D01*
X272Y1381D02*
X361Y1381D01*
X272Y1380D02*
X361Y1380D01*
X272Y1379D02*
X361Y1379D01*
X272Y1378D02*
X361Y1378D01*
X272Y1377D02*
X361Y1377D01*
X272Y1376D02*
X361Y1376D01*
X272Y1375D02*
X361Y1375D01*
X272Y1374D02*
X361Y1374D01*
X272Y1373D02*
X361Y1373D01*
X272Y1372D02*
X361Y1372D01*
X272Y1371D02*
X361Y1371D01*
X272Y1370D02*
X361Y1370D01*
X272Y1369D02*
X361Y1369D01*
X272Y1368D02*
X361Y1368D01*
X272Y1367D02*
X361Y1367D01*
X272Y1366D02*
X361Y1366D01*
X272Y1365D02*
X361Y1365D01*
X272Y1364D02*
X361Y1364D01*
X272Y1363D02*
X361Y1363D01*
X272Y1362D02*
X361Y1362D01*
X272Y1361D02*
X361Y1361D01*
X272Y1360D02*
X361Y1360D01*
X272Y1359D02*
X361Y1359D01*
X272Y1358D02*
X361Y1358D01*
X272Y1357D02*
X361Y1357D01*
X272Y1356D02*
X361Y1356D01*
X1751Y1007D02*
X1840Y1007D01*
X1751Y1006D02*
X1840Y1006D01*
X1751Y1005D02*
X1840Y1005D01*
X1751Y1004D02*
X1840Y1004D01*
X1751Y1003D02*
X1840Y1003D01*
X1751Y1002D02*
X1840Y1002D01*
X1751Y1001D02*
X1840Y1001D01*
X1751Y1000D02*
X1840Y1000D01*
X1751Y999D02*
X1840Y999D01*
X1751Y998D02*
X1840Y998D01*
X1751Y997D02*
X1840Y997D01*
X1751Y996D02*
X1840Y996D01*
X1751Y995D02*
X1840Y995D01*
X1751Y994D02*
X1840Y994D01*
X1751Y993D02*
X1840Y993D01*
X1751Y992D02*
X1840Y992D01*
X1751Y991D02*
X1840Y991D01*
X1751Y990D02*
X1840Y990D01*
X1751Y989D02*
X1840Y989D01*
X1751Y988D02*
X1840Y988D01*
X1751Y987D02*
X1840Y987D01*
X1751Y986D02*
X1840Y986D01*
X1751Y985D02*
X1840Y985D01*
X1751Y984D02*
X1840Y984D01*
X1751Y983D02*
X1840Y983D01*
X1751Y982D02*
X1840Y982D01*
X1751Y981D02*
X1790Y981D01*
X1800Y981D02*
X1840Y981D01*
X1751Y980D02*
X1787Y980D01*
X1803Y980D02*
X1840Y980D01*
X1751Y979D02*
X1785Y979D01*
X1805Y979D02*
X1840Y979D01*
X1751Y978D02*
X1784Y978D01*
X1807Y978D02*
X1840Y978D01*
X1751Y977D02*
X1783Y977D01*
X1808Y977D02*
X1840Y977D01*
X1751Y976D02*
X1782Y976D01*
X1809Y976D02*
X1840Y976D01*
X1751Y975D02*
X1781Y975D01*
X1810Y975D02*
X1840Y975D01*
X1751Y974D02*
X1780Y974D01*
X1811Y974D02*
X1840Y974D01*
X1751Y973D02*
X1779Y973D01*
X1811Y973D02*
X1840Y973D01*
X1751Y972D02*
X1779Y972D01*
X1812Y972D02*
X1840Y972D01*
X1751Y971D02*
X1778Y971D01*
X1812Y971D02*
X1840Y971D01*
X1751Y970D02*
X1777Y970D01*
X1813Y970D02*
X1840Y970D01*
X1751Y969D02*
X1777Y969D01*
X1813Y969D02*
X1840Y969D01*
X1751Y968D02*
X1777Y968D01*
X1814Y968D02*
X1840Y968D01*
X1751Y967D02*
X1777Y967D01*
X1814Y967D02*
X1840Y967D01*
X1751Y966D02*
X1776Y966D01*
X1814Y966D02*
X1840Y966D01*
X1751Y965D02*
X1776Y965D01*
X1814Y965D02*
X1840Y965D01*
X1751Y964D02*
X1776Y964D01*
X1814Y964D02*
X1840Y964D01*
X1751Y963D02*
X1776Y963D01*
X1814Y963D02*
X1840Y963D01*
X1751Y962D02*
X1776Y962D01*
X1814Y962D02*
X1840Y962D01*
X1751Y961D02*
X1776Y961D01*
X1814Y961D02*
X1840Y961D01*
X1751Y960D02*
X1776Y960D01*
X1814Y960D02*
X1840Y960D01*
X1751Y959D02*
X1776Y959D01*
X1814Y959D02*
X1840Y959D01*
X1751Y958D02*
X1777Y958D01*
X1814Y958D02*
X1840Y958D01*
X1751Y957D02*
X1777Y957D01*
X1813Y957D02*
X1840Y957D01*
X1751Y956D02*
X1777Y956D01*
X1813Y956D02*
X1840Y956D01*
X1751Y955D02*
X1778Y955D01*
X1813Y955D02*
X1840Y955D01*
X1751Y954D02*
X1778Y954D01*
X1812Y954D02*
X1840Y954D01*
X1751Y953D02*
X1779Y953D01*
X1812Y953D02*
X1840Y953D01*
X1751Y952D02*
X1780Y952D01*
X1811Y952D02*
X1840Y952D01*
X1751Y951D02*
X1780Y951D01*
X1810Y951D02*
X1840Y951D01*
X1751Y950D02*
X1781Y950D01*
X1809Y950D02*
X1840Y950D01*
X1751Y949D02*
X1782Y949D01*
X1808Y949D02*
X1840Y949D01*
X1751Y948D02*
X1784Y948D01*
X1807Y948D02*
X1840Y948D01*
X1751Y947D02*
X1785Y947D01*
X1806Y947D02*
X1840Y947D01*
X1751Y946D02*
X1787Y946D01*
X1804Y946D02*
X1840Y946D01*
X1751Y945D02*
X1790Y945D01*
X1801Y945D02*
X1840Y945D01*
X1751Y944D02*
X1840Y944D01*
X1751Y943D02*
X1840Y943D01*
X1751Y942D02*
X1840Y942D01*
X1751Y941D02*
X1840Y941D01*
X1751Y940D02*
X1840Y940D01*
X1751Y939D02*
X1840Y939D01*
X1751Y938D02*
X1840Y938D01*
X1751Y937D02*
X1840Y937D01*
X1751Y936D02*
X1840Y936D01*
X1751Y935D02*
X1840Y935D01*
X1751Y934D02*
X1840Y934D01*
X1751Y933D02*
X1840Y933D01*
X1751Y932D02*
X1840Y932D01*
X1751Y931D02*
X1840Y931D01*
X1751Y930D02*
X1840Y930D01*
X1751Y929D02*
X1840Y929D01*
X1751Y928D02*
X1840Y928D01*
X1751Y927D02*
X1840Y927D01*
X1751Y926D02*
X1840Y926D01*
X1751Y925D02*
X1840Y925D01*
X1751Y924D02*
X1840Y924D01*
X1751Y923D02*
X1840Y923D01*
X1751Y922D02*
X1840Y922D01*
X1751Y921D02*
X1840Y921D01*
X1751Y920D02*
X1840Y920D01*
X1751Y919D02*
X1840Y919D01*
X1751Y918D02*
X1839Y918D01*
X273Y841D02*
X362Y841D01*
X273Y840D02*
X362Y840D01*
X273Y839D02*
X362Y839D01*
X273Y838D02*
X362Y838D01*
X273Y837D02*
X362Y837D01*
X273Y836D02*
X362Y836D01*
X273Y835D02*
X362Y835D01*
X273Y834D02*
X362Y834D01*
X273Y833D02*
X362Y833D01*
X273Y832D02*
X362Y832D01*
X273Y831D02*
X362Y831D01*
X273Y830D02*
X362Y830D01*
X273Y829D02*
X362Y829D01*
X273Y828D02*
X362Y828D01*
X273Y827D02*
X362Y827D01*
X273Y826D02*
X362Y826D01*
X273Y825D02*
X362Y825D01*
X273Y824D02*
X362Y824D01*
X273Y823D02*
X362Y823D01*
X273Y822D02*
X362Y822D01*
X273Y821D02*
X362Y821D01*
X273Y820D02*
X362Y820D01*
X273Y819D02*
X362Y819D01*
X273Y818D02*
X362Y818D01*
X273Y817D02*
X362Y817D01*
X273Y816D02*
X362Y816D01*
X273Y815D02*
X362Y815D01*
X273Y814D02*
X311Y814D01*
X324Y814D02*
X362Y814D01*
X273Y813D02*
X309Y813D01*
X327Y813D02*
X362Y813D01*
X273Y812D02*
X307Y812D01*
X328Y812D02*
X362Y812D01*
X273Y811D02*
X306Y811D01*
X330Y811D02*
X362Y811D01*
X273Y810D02*
X304Y810D01*
X331Y810D02*
X362Y810D01*
X273Y809D02*
X303Y809D01*
X332Y809D02*
X362Y809D01*
X273Y808D02*
X303Y808D01*
X333Y808D02*
X362Y808D01*
X273Y807D02*
X302Y807D01*
X333Y807D02*
X362Y807D01*
X273Y806D02*
X301Y806D01*
X334Y806D02*
X362Y806D01*
X273Y805D02*
X301Y805D01*
X335Y805D02*
X362Y805D01*
X273Y804D02*
X300Y804D01*
X335Y804D02*
X362Y804D01*
X273Y803D02*
X300Y803D01*
X336Y803D02*
X362Y803D01*
X273Y802D02*
X299Y802D01*
X336Y802D02*
X362Y802D01*
X273Y801D02*
X299Y801D01*
X336Y801D02*
X362Y801D01*
X273Y800D02*
X299Y800D01*
X336Y800D02*
X362Y800D01*
X273Y799D02*
X299Y799D01*
X336Y799D02*
X362Y799D01*
X273Y798D02*
X299Y798D01*
X337Y798D02*
X362Y798D01*
X273Y797D02*
X299Y797D01*
X337Y797D02*
X362Y797D01*
X273Y796D02*
X299Y796D01*
X337Y796D02*
X362Y796D01*
X273Y795D02*
X299Y795D01*
X337Y795D02*
X362Y795D01*
X273Y794D02*
X299Y794D01*
X336Y794D02*
X362Y794D01*
X273Y793D02*
X299Y793D01*
X336Y793D02*
X362Y793D01*
X273Y792D02*
X299Y792D01*
X336Y792D02*
X362Y792D01*
X273Y791D02*
X299Y791D01*
X336Y791D02*
X362Y791D01*
X273Y790D02*
X300Y790D01*
X336Y790D02*
X362Y790D01*
X273Y789D02*
X300Y789D01*
X335Y789D02*
X362Y789D01*
X273Y788D02*
X300Y788D01*
X335Y788D02*
X362Y788D01*
X273Y787D02*
X301Y787D01*
X334Y787D02*
X362Y787D01*
X273Y786D02*
X302Y786D01*
X334Y786D02*
X362Y786D01*
X273Y785D02*
X302Y785D01*
X333Y785D02*
X362Y785D01*
X273Y784D02*
X303Y784D01*
X332Y784D02*
X362Y784D01*
X273Y783D02*
X304Y783D01*
X331Y783D02*
X362Y783D01*
X273Y782D02*
X305Y782D01*
X330Y782D02*
X362Y782D01*
X273Y781D02*
X307Y781D01*
X329Y781D02*
X362Y781D01*
X273Y780D02*
X308Y780D01*
X327Y780D02*
X362Y780D01*
X273Y779D02*
X310Y779D01*
X325Y779D02*
X362Y779D01*
X273Y778D02*
X315Y778D01*
X320Y778D02*
X362Y778D01*
X273Y777D02*
X362Y777D01*
X273Y776D02*
X362Y776D01*
X273Y775D02*
X362Y775D01*
X273Y774D02*
X362Y774D01*
X273Y773D02*
X362Y773D01*
X273Y772D02*
X362Y772D01*
X273Y771D02*
X362Y771D01*
X273Y770D02*
X362Y770D01*
X273Y769D02*
X362Y769D01*
X273Y768D02*
X362Y768D01*
X273Y767D02*
X362Y767D01*
X273Y766D02*
X362Y766D01*
X273Y765D02*
X362Y765D01*
X273Y764D02*
X362Y764D01*
X273Y763D02*
X362Y763D01*
X273Y762D02*
X362Y762D01*
X273Y761D02*
X362Y761D01*
X273Y760D02*
X362Y760D01*
X273Y759D02*
X362Y759D01*
X273Y758D02*
X362Y758D01*
X273Y757D02*
X362Y757D01*
X273Y756D02*
X362Y756D01*
X273Y755D02*
X362Y755D01*
X273Y754D02*
X362Y754D01*
X273Y753D02*
X362Y753D01*
X273Y752D02*
X362Y752D01*
X274Y228D02*
X363Y228D01*
X274Y227D02*
X363Y227D01*
X274Y226D02*
X363Y226D01*
X274Y225D02*
X363Y225D01*
X274Y224D02*
X363Y224D01*
X274Y223D02*
X363Y223D01*
X274Y222D02*
X363Y222D01*
X274Y221D02*
X363Y221D01*
X274Y220D02*
X363Y220D01*
X274Y219D02*
X363Y219D01*
X274Y218D02*
X363Y218D01*
X274Y217D02*
X363Y217D01*
X274Y216D02*
X363Y216D01*
X274Y215D02*
X363Y215D01*
X274Y214D02*
X363Y214D01*
X274Y213D02*
X363Y213D01*
X274Y212D02*
X363Y212D01*
X274Y211D02*
X363Y211D01*
X274Y210D02*
X363Y210D01*
X274Y209D02*
X363Y209D01*
X274Y208D02*
X363Y208D01*
X274Y207D02*
X363Y207D01*
X274Y206D02*
X363Y206D01*
X274Y205D02*
X363Y205D01*
X274Y204D02*
X363Y204D01*
X274Y203D02*
X363Y203D01*
X274Y202D02*
X314Y202D01*
X323Y202D02*
X363Y202D01*
X274Y201D02*
X310Y201D01*
X326Y201D02*
X363Y201D01*
X274Y200D02*
X309Y200D01*
X328Y200D02*
X363Y200D01*
X274Y199D02*
X307Y199D01*
X330Y199D02*
X363Y199D01*
X274Y198D02*
X306Y198D01*
X331Y198D02*
X363Y198D01*
X274Y197D02*
X305Y197D01*
X332Y197D02*
X363Y197D01*
X274Y196D02*
X304Y196D01*
X333Y196D02*
X363Y196D01*
X274Y195D02*
X303Y195D01*
X334Y195D02*
X363Y195D01*
X274Y194D02*
X302Y194D01*
X334Y194D02*
X363Y194D01*
X274Y193D02*
X302Y193D01*
X335Y193D02*
X363Y193D01*
X274Y192D02*
X301Y192D01*
X336Y192D02*
X363Y192D01*
X274Y191D02*
X301Y191D01*
X336Y191D02*
X363Y191D01*
X274Y190D02*
X300Y190D01*
X336Y190D02*
X363Y190D01*
X274Y189D02*
X300Y189D01*
X337Y189D02*
X363Y189D01*
X274Y188D02*
X300Y188D01*
X337Y188D02*
X363Y188D01*
X274Y187D02*
X299Y187D01*
X337Y187D02*
X363Y187D01*
X274Y186D02*
X299Y186D01*
X337Y186D02*
X363Y186D01*
X274Y185D02*
X299Y185D01*
X337Y185D02*
X363Y185D01*
X274Y184D02*
X299Y184D01*
X337Y184D02*
X363Y184D01*
X274Y183D02*
X299Y183D01*
X337Y183D02*
X363Y183D01*
X274Y182D02*
X299Y182D01*
X337Y182D02*
X363Y182D01*
X274Y181D02*
X299Y181D01*
X337Y181D02*
X363Y181D01*
X274Y180D02*
X300Y180D01*
X337Y180D02*
X363Y180D01*
X274Y179D02*
X300Y179D01*
X337Y179D02*
X363Y179D01*
X274Y178D02*
X300Y178D01*
X336Y178D02*
X363Y178D01*
X274Y177D02*
X300Y177D01*
X336Y177D02*
X363Y177D01*
X274Y176D02*
X301Y176D01*
X336Y176D02*
X363Y176D01*
X274Y175D02*
X301Y175D01*
X335Y175D02*
X363Y175D01*
X274Y174D02*
X302Y174D01*
X335Y174D02*
X363Y174D01*
X274Y173D02*
X303Y173D01*
X334Y173D02*
X363Y173D01*
X274Y172D02*
X304Y172D01*
X333Y172D02*
X363Y172D01*
X274Y171D02*
X304Y171D01*
X332Y171D02*
X363Y171D01*
X274Y170D02*
X305Y170D01*
X331Y170D02*
X363Y170D01*
X274Y169D02*
X307Y169D01*
X330Y169D02*
X363Y169D01*
X274Y168D02*
X308Y168D01*
X329Y168D02*
X363Y168D01*
X274Y167D02*
X310Y167D01*
X327Y167D02*
X363Y167D01*
X274Y166D02*
X312Y166D01*
X324Y166D02*
X363Y166D01*
X274Y165D02*
X363Y165D01*
X274Y164D02*
X363Y164D01*
X274Y163D02*
X363Y163D01*
X274Y162D02*
X363Y162D01*
X274Y161D02*
X363Y161D01*
X274Y160D02*
X363Y160D01*
X274Y159D02*
X363Y159D01*
X274Y158D02*
X363Y158D01*
X274Y157D02*
X363Y157D01*
X274Y156D02*
X363Y156D01*
X274Y155D02*
X363Y155D01*
X274Y154D02*
X363Y154D01*
X274Y153D02*
X363Y153D01*
X274Y152D02*
X363Y152D01*
X274Y151D02*
X363Y151D01*
X274Y150D02*
X363Y150D01*
X274Y149D02*
X363Y149D01*
X274Y148D02*
X363Y148D01*
X274Y147D02*
X363Y147D01*
X274Y146D02*
X363Y146D01*
X274Y145D02*
X363Y145D01*
X274Y144D02*
X363Y144D01*
X274Y143D02*
X363Y143D01*
X274Y142D02*
X363Y142D01*
X274Y141D02*
X363Y141D01*
X274Y140D02*
X363Y140D01*
X274Y139D02*
X363Y139D01*
D02*
G04 End of Mask1*
M02*