G04 MADE WITH FRITZING*
G04 WWW.FRITZING.ORG*
G04 DOUBLE SIDED*
G04 HOLES PLATED*
G04 CONTOUR ON CENTER OF CONTOUR VECTOR*
%ASAXBY*%
%FSLAX23Y23*%
%MOIN*%
%OFA0B0*%
%SFA1.0B1.0*%
%ADD10R,1.968500X1.968500X1.952500X1.952500*%
%ADD11C,0.008000*%
%ADD12C,0.010417*%
%ADD13R,0.001000X0.001000*%
%LNSILK0*%
G90*
G70*
G54D11*
X4Y1965D02*
X1965Y1965D01*
X1965Y4D01*
X4Y4D01*
X4Y1965D01*
D02*
G54D12*
X452Y712D02*
X452Y1306D01*
D02*
X452Y1306D02*
X208Y1306D01*
D02*
X208Y1306D02*
X176Y1306D01*
D02*
X176Y1306D02*
X176Y712D01*
D02*
X176Y712D02*
X208Y712D01*
D02*
X208Y712D02*
X452Y712D01*
D02*
X208Y1306D02*
X208Y712D01*
D02*
X1655Y1719D02*
X1655Y1124D01*
D02*
X1655Y1124D02*
X1899Y1124D01*
D02*
X1899Y1124D02*
X1931Y1124D01*
D02*
X1931Y1124D02*
X1931Y1719D01*
D02*
X1931Y1719D02*
X1899Y1719D01*
D02*
X1899Y1719D02*
X1655Y1719D01*
D02*
X1899Y1124D02*
X1899Y1719D01*
D02*
X1662Y1045D02*
X1662Y451D01*
D02*
X1662Y451D02*
X1906Y451D01*
D02*
X1906Y451D02*
X1938Y451D01*
D02*
X1938Y451D02*
X1938Y1045D01*
D02*
X1938Y1045D02*
X1906Y1045D01*
D02*
X1906Y1045D02*
X1662Y1045D01*
D02*
X1906Y451D02*
X1906Y1045D01*
D02*
X451Y1315D02*
X451Y1910D01*
D02*
X451Y1910D02*
X207Y1910D01*
D02*
X207Y1910D02*
X175Y1910D01*
D02*
X175Y1910D02*
X175Y1315D01*
D02*
X175Y1315D02*
X207Y1315D01*
D02*
X207Y1315D02*
X451Y1315D01*
D02*
X207Y1910D02*
X207Y1315D01*
D02*
X453Y99D02*
X453Y693D01*
D02*
X453Y693D02*
X209Y693D01*
D02*
X209Y693D02*
X177Y693D01*
D02*
X177Y693D02*
X177Y99D01*
D02*
X177Y99D02*
X209Y99D01*
D02*
X209Y99D02*
X453Y99D01*
D02*
X209Y693D02*
X209Y99D01*
G54D13*
X1572Y1737D02*
X1574Y1737D01*
X1571Y1736D02*
X1575Y1736D01*
X1570Y1735D02*
X1576Y1735D01*
X1569Y1734D02*
X1576Y1734D01*
X1568Y1733D02*
X1576Y1733D01*
X1567Y1732D02*
X1576Y1732D01*
X1567Y1731D02*
X1575Y1731D01*
X1566Y1730D02*
X1574Y1730D01*
X1584Y1730D02*
X1592Y1730D01*
X1601Y1730D02*
X1604Y1730D01*
X1565Y1729D02*
X1573Y1729D01*
X1582Y1729D02*
X1593Y1729D01*
X1600Y1729D02*
X1605Y1729D01*
X1564Y1728D02*
X1572Y1728D01*
X1582Y1728D02*
X1594Y1728D01*
X1600Y1728D02*
X1605Y1728D01*
X1563Y1727D02*
X1571Y1727D01*
X1581Y1727D02*
X1594Y1727D01*
X1600Y1727D02*
X1605Y1727D01*
X1562Y1726D02*
X1571Y1726D01*
X1580Y1726D02*
X1594Y1726D01*
X1600Y1726D02*
X1605Y1726D01*
X1561Y1725D02*
X1570Y1725D01*
X1579Y1725D02*
X1593Y1725D01*
X1600Y1725D02*
X1605Y1725D01*
X1561Y1724D02*
X1569Y1724D01*
X1578Y1724D02*
X1592Y1724D01*
X1601Y1724D02*
X1604Y1724D01*
X1560Y1723D02*
X1568Y1723D01*
X1577Y1723D02*
X1586Y1723D01*
X1559Y1722D02*
X1567Y1722D01*
X1576Y1722D02*
X1585Y1722D01*
X1558Y1721D02*
X1566Y1721D01*
X1576Y1721D02*
X1584Y1721D01*
X1557Y1720D02*
X1565Y1720D01*
X1575Y1720D02*
X1583Y1720D01*
X1556Y1719D02*
X1565Y1719D01*
X1574Y1719D02*
X1582Y1719D01*
X1555Y1718D02*
X1564Y1718D01*
X1573Y1718D02*
X1581Y1718D01*
X1555Y1717D02*
X1563Y1717D01*
X1572Y1717D02*
X1580Y1717D01*
X1554Y1716D02*
X1562Y1716D01*
X1571Y1716D02*
X1580Y1716D01*
X1553Y1715D02*
X1561Y1715D01*
X1571Y1715D02*
X1579Y1715D01*
X1553Y1714D02*
X1560Y1714D01*
X1570Y1714D02*
X1578Y1714D01*
X1552Y1713D02*
X1560Y1713D01*
X1569Y1713D02*
X1577Y1713D01*
X1553Y1712D02*
X1560Y1712D01*
X1568Y1712D02*
X1576Y1712D01*
X1553Y1711D02*
X1561Y1711D01*
X1567Y1711D02*
X1575Y1711D01*
X1554Y1710D02*
X1562Y1710D01*
X1566Y1710D02*
X1574Y1710D01*
X1555Y1709D02*
X1574Y1709D01*
X1556Y1708D02*
X1573Y1708D01*
X1557Y1707D02*
X1572Y1707D01*
X1557Y1706D02*
X1571Y1706D01*
X1558Y1705D02*
X1570Y1705D01*
X1559Y1704D02*
X1569Y1704D01*
X1561Y1703D02*
X1568Y1703D01*
X1157Y1346D02*
X1174Y1346D01*
X1156Y1345D02*
X1174Y1345D01*
X1155Y1344D02*
X1174Y1344D01*
X1155Y1343D02*
X1173Y1343D01*
X1155Y1342D02*
X1173Y1342D01*
X1156Y1341D02*
X1173Y1341D01*
X1157Y1340D02*
X1172Y1340D01*
X1176Y1305D02*
X1177Y1305D01*
X1176Y1304D02*
X1177Y1304D01*
X1175Y1303D02*
X1178Y1303D01*
X1175Y1302D02*
X1179Y1302D01*
X1174Y1301D02*
X1179Y1301D01*
X1173Y1300D02*
X1180Y1300D01*
X1157Y1299D02*
X1180Y1299D01*
X1156Y1298D02*
X1180Y1298D01*
X1137Y1297D02*
X1138Y1297D01*
X1155Y1297D02*
X1179Y1297D01*
X1136Y1296D02*
X1138Y1296D01*
X1155Y1296D02*
X1178Y1296D01*
X1135Y1295D02*
X1138Y1295D01*
X1155Y1295D02*
X1177Y1295D01*
X1134Y1294D02*
X1138Y1294D01*
X1156Y1294D02*
X1176Y1294D01*
X1132Y1293D02*
X1138Y1293D01*
X1157Y1293D02*
X1174Y1293D01*
X1232Y1266D02*
X1517Y1266D01*
X1230Y1265D02*
X1518Y1265D01*
X1228Y1264D02*
X1519Y1264D01*
X1226Y1263D02*
X1520Y1263D01*
X1225Y1262D02*
X1231Y1262D01*
X1516Y1262D02*
X1521Y1262D01*
X1224Y1261D02*
X1229Y1261D01*
X1517Y1261D02*
X1522Y1261D01*
X1223Y1260D02*
X1227Y1260D01*
X1518Y1260D02*
X1523Y1260D01*
X1222Y1259D02*
X1226Y1259D01*
X1519Y1259D02*
X1524Y1259D01*
X1222Y1258D02*
X1225Y1258D01*
X1520Y1258D02*
X1525Y1258D01*
X1221Y1257D02*
X1224Y1257D01*
X1521Y1257D02*
X1526Y1257D01*
X1221Y1256D02*
X1224Y1256D01*
X1522Y1256D02*
X1527Y1256D01*
X1220Y1255D02*
X1223Y1255D01*
X1523Y1255D02*
X1528Y1255D01*
X1220Y1254D02*
X1223Y1254D01*
X1524Y1254D02*
X1529Y1254D01*
X1220Y1253D02*
X1223Y1253D01*
X1525Y1253D02*
X1530Y1253D01*
X1219Y1252D02*
X1222Y1252D01*
X1526Y1252D02*
X1531Y1252D01*
X1219Y1251D02*
X1222Y1251D01*
X1527Y1251D02*
X1532Y1251D01*
X1219Y1250D02*
X1222Y1250D01*
X1528Y1250D02*
X1533Y1250D01*
X1219Y1249D02*
X1222Y1249D01*
X1529Y1249D02*
X1534Y1249D01*
X1219Y1248D02*
X1222Y1248D01*
X1530Y1248D02*
X1535Y1248D01*
X1219Y1247D02*
X1222Y1247D01*
X1393Y1247D02*
X1398Y1247D01*
X1531Y1247D02*
X1536Y1247D01*
X1219Y1246D02*
X1222Y1246D01*
X1378Y1246D02*
X1413Y1246D01*
X1532Y1246D02*
X1537Y1246D01*
X1219Y1245D02*
X1222Y1245D01*
X1371Y1245D02*
X1420Y1245D01*
X1533Y1245D02*
X1538Y1245D01*
X1219Y1244D02*
X1222Y1244D01*
X1366Y1244D02*
X1425Y1244D01*
X1534Y1244D02*
X1539Y1244D01*
X1219Y1243D02*
X1222Y1243D01*
X1361Y1243D02*
X1389Y1243D01*
X1402Y1243D02*
X1430Y1243D01*
X1535Y1243D02*
X1540Y1243D01*
X1219Y1242D02*
X1222Y1242D01*
X1357Y1242D02*
X1377Y1242D01*
X1415Y1242D02*
X1434Y1242D01*
X1536Y1242D02*
X1541Y1242D01*
X1219Y1241D02*
X1222Y1241D01*
X1353Y1241D02*
X1370Y1241D01*
X1421Y1241D02*
X1438Y1241D01*
X1537Y1241D02*
X1542Y1241D01*
X1219Y1240D02*
X1222Y1240D01*
X1350Y1240D02*
X1365Y1240D01*
X1427Y1240D02*
X1442Y1240D01*
X1538Y1240D02*
X1543Y1240D01*
X1219Y1239D02*
X1222Y1239D01*
X1347Y1239D02*
X1360Y1239D01*
X1431Y1239D02*
X1444Y1239D01*
X1539Y1239D02*
X1544Y1239D01*
X1219Y1238D02*
X1222Y1238D01*
X1344Y1238D02*
X1356Y1238D01*
X1435Y1238D02*
X1447Y1238D01*
X1540Y1238D02*
X1545Y1238D01*
X1219Y1237D02*
X1222Y1237D01*
X1341Y1237D02*
X1352Y1237D01*
X1439Y1237D02*
X1450Y1237D01*
X1541Y1237D02*
X1546Y1237D01*
X1219Y1236D02*
X1222Y1236D01*
X1338Y1236D02*
X1349Y1236D01*
X1442Y1236D02*
X1453Y1236D01*
X1542Y1236D02*
X1547Y1236D01*
X1219Y1235D02*
X1222Y1235D01*
X1336Y1235D02*
X1346Y1235D01*
X1445Y1235D02*
X1455Y1235D01*
X1543Y1235D02*
X1548Y1235D01*
X1219Y1234D02*
X1222Y1234D01*
X1334Y1234D02*
X1343Y1234D01*
X1448Y1234D02*
X1457Y1234D01*
X1544Y1234D02*
X1549Y1234D01*
X1219Y1233D02*
X1222Y1233D01*
X1331Y1233D02*
X1340Y1233D01*
X1451Y1233D02*
X1460Y1233D01*
X1545Y1233D02*
X1550Y1233D01*
X1219Y1232D02*
X1222Y1232D01*
X1329Y1232D02*
X1338Y1232D01*
X1453Y1232D02*
X1462Y1232D01*
X1546Y1232D02*
X1551Y1232D01*
X1219Y1231D02*
X1222Y1231D01*
X1327Y1231D02*
X1335Y1231D01*
X1456Y1231D02*
X1464Y1231D01*
X1547Y1231D02*
X1552Y1231D01*
X1219Y1230D02*
X1222Y1230D01*
X1325Y1230D02*
X1333Y1230D01*
X1458Y1230D02*
X1466Y1230D01*
X1548Y1230D02*
X1553Y1230D01*
X1219Y1229D02*
X1222Y1229D01*
X1323Y1229D02*
X1331Y1229D01*
X1461Y1229D02*
X1468Y1229D01*
X1549Y1229D02*
X1554Y1229D01*
X1219Y1228D02*
X1222Y1228D01*
X1321Y1228D02*
X1329Y1228D01*
X1463Y1228D02*
X1470Y1228D01*
X1550Y1228D02*
X1555Y1228D01*
X1219Y1227D02*
X1222Y1227D01*
X1319Y1227D02*
X1327Y1227D01*
X1465Y1227D02*
X1472Y1227D01*
X1551Y1227D02*
X1556Y1227D01*
X1219Y1226D02*
X1222Y1226D01*
X1318Y1226D02*
X1325Y1226D01*
X1467Y1226D02*
X1474Y1226D01*
X1552Y1226D02*
X1557Y1226D01*
X1219Y1225D02*
X1222Y1225D01*
X1316Y1225D02*
X1323Y1225D01*
X1468Y1225D02*
X1475Y1225D01*
X1553Y1225D02*
X1558Y1225D01*
X1219Y1224D02*
X1222Y1224D01*
X1314Y1224D02*
X1321Y1224D01*
X1470Y1224D02*
X1477Y1224D01*
X1554Y1224D02*
X1559Y1224D01*
X1219Y1223D02*
X1222Y1223D01*
X1313Y1223D02*
X1319Y1223D01*
X1472Y1223D02*
X1478Y1223D01*
X1555Y1223D02*
X1560Y1223D01*
X1219Y1222D02*
X1222Y1222D01*
X1311Y1222D02*
X1317Y1222D01*
X1474Y1222D02*
X1480Y1222D01*
X1556Y1222D02*
X1561Y1222D01*
X1219Y1221D02*
X1222Y1221D01*
X1310Y1221D02*
X1316Y1221D01*
X1475Y1221D02*
X1482Y1221D01*
X1557Y1221D02*
X1562Y1221D01*
X1219Y1220D02*
X1222Y1220D01*
X1308Y1220D02*
X1314Y1220D01*
X1477Y1220D02*
X1483Y1220D01*
X1558Y1220D02*
X1563Y1220D01*
X1219Y1219D02*
X1222Y1219D01*
X1307Y1219D02*
X1312Y1219D01*
X1479Y1219D02*
X1485Y1219D01*
X1559Y1219D02*
X1564Y1219D01*
X1219Y1218D02*
X1222Y1218D01*
X1305Y1218D02*
X1311Y1218D01*
X1480Y1218D02*
X1486Y1218D01*
X1560Y1218D02*
X1565Y1218D01*
X1219Y1217D02*
X1222Y1217D01*
X1304Y1217D02*
X1309Y1217D01*
X1482Y1217D02*
X1487Y1217D01*
X1561Y1217D02*
X1566Y1217D01*
X1219Y1216D02*
X1222Y1216D01*
X1302Y1216D02*
X1308Y1216D01*
X1483Y1216D02*
X1489Y1216D01*
X1562Y1216D02*
X1567Y1216D01*
X1219Y1215D02*
X1222Y1215D01*
X1301Y1215D02*
X1307Y1215D01*
X1485Y1215D02*
X1490Y1215D01*
X1563Y1215D02*
X1568Y1215D01*
X1219Y1214D02*
X1222Y1214D01*
X1300Y1214D02*
X1305Y1214D01*
X1486Y1214D02*
X1491Y1214D01*
X1564Y1214D02*
X1569Y1214D01*
X1219Y1213D02*
X1222Y1213D01*
X1299Y1213D02*
X1304Y1213D01*
X1487Y1213D02*
X1493Y1213D01*
X1565Y1213D02*
X1570Y1213D01*
X1219Y1212D02*
X1222Y1212D01*
X1297Y1212D02*
X1302Y1212D01*
X1489Y1212D02*
X1494Y1212D01*
X1566Y1212D02*
X1571Y1212D01*
X1219Y1211D02*
X1222Y1211D01*
X1296Y1211D02*
X1301Y1211D01*
X1490Y1211D02*
X1495Y1211D01*
X1567Y1211D02*
X1572Y1211D01*
X1219Y1210D02*
X1222Y1210D01*
X1295Y1210D02*
X1300Y1210D01*
X1491Y1210D02*
X1496Y1210D01*
X1568Y1210D02*
X1572Y1210D01*
X1219Y1209D02*
X1222Y1209D01*
X1294Y1209D02*
X1299Y1209D01*
X1493Y1209D02*
X1498Y1209D01*
X1569Y1209D02*
X1572Y1209D01*
X1219Y1208D02*
X1222Y1208D01*
X1292Y1208D02*
X1297Y1208D01*
X1494Y1208D02*
X1499Y1208D01*
X1569Y1208D02*
X1572Y1208D01*
X1219Y1207D02*
X1222Y1207D01*
X1291Y1207D02*
X1296Y1207D01*
X1495Y1207D02*
X1500Y1207D01*
X1569Y1207D02*
X1572Y1207D01*
X1219Y1206D02*
X1222Y1206D01*
X1290Y1206D02*
X1295Y1206D01*
X1496Y1206D02*
X1501Y1206D01*
X1569Y1206D02*
X1572Y1206D01*
X1219Y1205D02*
X1222Y1205D01*
X1289Y1205D02*
X1294Y1205D01*
X1497Y1205D02*
X1502Y1205D01*
X1569Y1205D02*
X1572Y1205D01*
X1219Y1204D02*
X1222Y1204D01*
X1288Y1204D02*
X1293Y1204D01*
X1499Y1204D02*
X1503Y1204D01*
X1569Y1204D02*
X1572Y1204D01*
X1219Y1203D02*
X1222Y1203D01*
X1287Y1203D02*
X1292Y1203D01*
X1500Y1203D02*
X1504Y1203D01*
X1569Y1203D02*
X1572Y1203D01*
X1219Y1202D02*
X1222Y1202D01*
X1286Y1202D02*
X1291Y1202D01*
X1501Y1202D02*
X1505Y1202D01*
X1569Y1202D02*
X1572Y1202D01*
X1219Y1201D02*
X1222Y1201D01*
X1285Y1201D02*
X1290Y1201D01*
X1502Y1201D02*
X1506Y1201D01*
X1569Y1201D02*
X1572Y1201D01*
X1219Y1200D02*
X1222Y1200D01*
X1284Y1200D02*
X1288Y1200D01*
X1503Y1200D02*
X1507Y1200D01*
X1569Y1200D02*
X1572Y1200D01*
X1219Y1199D02*
X1222Y1199D01*
X1283Y1199D02*
X1287Y1199D01*
X1504Y1199D02*
X1508Y1199D01*
X1569Y1199D02*
X1572Y1199D01*
X1219Y1198D02*
X1222Y1198D01*
X1282Y1198D02*
X1286Y1198D01*
X1505Y1198D02*
X1509Y1198D01*
X1569Y1198D02*
X1572Y1198D01*
X1219Y1197D02*
X1222Y1197D01*
X1281Y1197D02*
X1285Y1197D01*
X1506Y1197D02*
X1510Y1197D01*
X1569Y1197D02*
X1572Y1197D01*
X1219Y1196D02*
X1222Y1196D01*
X1280Y1196D02*
X1284Y1196D01*
X1507Y1196D02*
X1511Y1196D01*
X1569Y1196D02*
X1572Y1196D01*
X1219Y1195D02*
X1222Y1195D01*
X1279Y1195D02*
X1283Y1195D01*
X1508Y1195D02*
X1512Y1195D01*
X1569Y1195D02*
X1572Y1195D01*
X1219Y1194D02*
X1222Y1194D01*
X1278Y1194D02*
X1283Y1194D01*
X1509Y1194D02*
X1513Y1194D01*
X1569Y1194D02*
X1572Y1194D01*
X1219Y1193D02*
X1222Y1193D01*
X1278Y1193D02*
X1282Y1193D01*
X1510Y1193D02*
X1514Y1193D01*
X1569Y1193D02*
X1572Y1193D01*
X1219Y1192D02*
X1222Y1192D01*
X1277Y1192D02*
X1281Y1192D01*
X1510Y1192D02*
X1515Y1192D01*
X1569Y1192D02*
X1572Y1192D01*
X1219Y1191D02*
X1222Y1191D01*
X1276Y1191D02*
X1280Y1191D01*
X1511Y1191D02*
X1515Y1191D01*
X1569Y1191D02*
X1572Y1191D01*
X1219Y1190D02*
X1222Y1190D01*
X1275Y1190D02*
X1279Y1190D01*
X1512Y1190D02*
X1516Y1190D01*
X1569Y1190D02*
X1572Y1190D01*
X1219Y1189D02*
X1222Y1189D01*
X1274Y1189D02*
X1278Y1189D01*
X1513Y1189D02*
X1517Y1189D01*
X1569Y1189D02*
X1572Y1189D01*
X1219Y1188D02*
X1222Y1188D01*
X1273Y1188D02*
X1277Y1188D01*
X1514Y1188D02*
X1518Y1188D01*
X1569Y1188D02*
X1572Y1188D01*
X1219Y1187D02*
X1222Y1187D01*
X1273Y1187D02*
X1276Y1187D01*
X1515Y1187D02*
X1519Y1187D01*
X1569Y1187D02*
X1572Y1187D01*
X1219Y1186D02*
X1222Y1186D01*
X1272Y1186D02*
X1276Y1186D01*
X1516Y1186D02*
X1519Y1186D01*
X1569Y1186D02*
X1572Y1186D01*
X1219Y1185D02*
X1222Y1185D01*
X1271Y1185D02*
X1275Y1185D01*
X1516Y1185D02*
X1520Y1185D01*
X1569Y1185D02*
X1572Y1185D01*
X1219Y1184D02*
X1222Y1184D01*
X1270Y1184D02*
X1274Y1184D01*
X1517Y1184D02*
X1521Y1184D01*
X1569Y1184D02*
X1572Y1184D01*
X1219Y1183D02*
X1222Y1183D01*
X1269Y1183D02*
X1273Y1183D01*
X1518Y1183D02*
X1522Y1183D01*
X1569Y1183D02*
X1572Y1183D01*
X1219Y1182D02*
X1222Y1182D01*
X1269Y1182D02*
X1273Y1182D01*
X1519Y1182D02*
X1523Y1182D01*
X1569Y1182D02*
X1572Y1182D01*
X1219Y1181D02*
X1222Y1181D01*
X1268Y1181D02*
X1272Y1181D01*
X1519Y1181D02*
X1523Y1181D01*
X1569Y1181D02*
X1572Y1181D01*
X1219Y1180D02*
X1222Y1180D01*
X1267Y1180D02*
X1271Y1180D01*
X1520Y1180D02*
X1524Y1180D01*
X1569Y1180D02*
X1572Y1180D01*
X1219Y1179D02*
X1222Y1179D01*
X1267Y1179D02*
X1270Y1179D01*
X1521Y1179D02*
X1525Y1179D01*
X1569Y1179D02*
X1572Y1179D01*
X1219Y1178D02*
X1222Y1178D01*
X1266Y1178D02*
X1270Y1178D01*
X1522Y1178D02*
X1525Y1178D01*
X1569Y1178D02*
X1572Y1178D01*
X1219Y1177D02*
X1222Y1177D01*
X1265Y1177D02*
X1269Y1177D01*
X1522Y1177D02*
X1526Y1177D01*
X1569Y1177D02*
X1572Y1177D01*
X1219Y1176D02*
X1222Y1176D01*
X1265Y1176D02*
X1268Y1176D01*
X1523Y1176D02*
X1527Y1176D01*
X1569Y1176D02*
X1572Y1176D01*
X1219Y1175D02*
X1222Y1175D01*
X1264Y1175D02*
X1268Y1175D01*
X1524Y1175D02*
X1527Y1175D01*
X1569Y1175D02*
X1572Y1175D01*
X1219Y1174D02*
X1222Y1174D01*
X1263Y1174D02*
X1267Y1174D01*
X1524Y1174D02*
X1528Y1174D01*
X1569Y1174D02*
X1572Y1174D01*
X1219Y1173D02*
X1222Y1173D01*
X1263Y1173D02*
X1266Y1173D01*
X1525Y1173D02*
X1529Y1173D01*
X1569Y1173D02*
X1572Y1173D01*
X1219Y1172D02*
X1222Y1172D01*
X1262Y1172D02*
X1266Y1172D01*
X1526Y1172D02*
X1529Y1172D01*
X1569Y1172D02*
X1572Y1172D01*
X1219Y1171D02*
X1222Y1171D01*
X1261Y1171D02*
X1265Y1171D01*
X1526Y1171D02*
X1530Y1171D01*
X1569Y1171D02*
X1572Y1171D01*
X1219Y1170D02*
X1222Y1170D01*
X1261Y1170D02*
X1264Y1170D01*
X1527Y1170D02*
X1530Y1170D01*
X1569Y1170D02*
X1572Y1170D01*
X1219Y1169D02*
X1222Y1169D01*
X1260Y1169D02*
X1264Y1169D01*
X1527Y1169D02*
X1531Y1169D01*
X1569Y1169D02*
X1572Y1169D01*
X1219Y1168D02*
X1222Y1168D01*
X1260Y1168D02*
X1263Y1168D01*
X1528Y1168D02*
X1532Y1168D01*
X1569Y1168D02*
X1572Y1168D01*
X1219Y1167D02*
X1222Y1167D01*
X1259Y1167D02*
X1263Y1167D01*
X1529Y1167D02*
X1532Y1167D01*
X1569Y1167D02*
X1572Y1167D01*
X1219Y1166D02*
X1222Y1166D01*
X1259Y1166D02*
X1262Y1166D01*
X1529Y1166D02*
X1533Y1166D01*
X1569Y1166D02*
X1572Y1166D01*
X1219Y1165D02*
X1222Y1165D01*
X1258Y1165D02*
X1261Y1165D01*
X1530Y1165D02*
X1533Y1165D01*
X1569Y1165D02*
X1572Y1165D01*
X1219Y1164D02*
X1222Y1164D01*
X1257Y1164D02*
X1261Y1164D01*
X1530Y1164D02*
X1534Y1164D01*
X1569Y1164D02*
X1572Y1164D01*
X1219Y1163D02*
X1222Y1163D01*
X1257Y1163D02*
X1260Y1163D01*
X1531Y1163D02*
X1534Y1163D01*
X1569Y1163D02*
X1572Y1163D01*
X1219Y1162D02*
X1222Y1162D01*
X1256Y1162D02*
X1260Y1162D01*
X1531Y1162D02*
X1535Y1162D01*
X1569Y1162D02*
X1572Y1162D01*
X1219Y1161D02*
X1222Y1161D01*
X1256Y1161D02*
X1259Y1161D01*
X1532Y1161D02*
X1535Y1161D01*
X1569Y1161D02*
X1572Y1161D01*
X1219Y1160D02*
X1222Y1160D01*
X1255Y1160D02*
X1259Y1160D01*
X1533Y1160D02*
X1536Y1160D01*
X1569Y1160D02*
X1572Y1160D01*
X1219Y1159D02*
X1222Y1159D01*
X1255Y1159D02*
X1258Y1159D01*
X1533Y1159D02*
X1536Y1159D01*
X1569Y1159D02*
X1572Y1159D01*
X1219Y1158D02*
X1222Y1158D01*
X1254Y1158D02*
X1258Y1158D01*
X1533Y1158D02*
X1537Y1158D01*
X1569Y1158D02*
X1572Y1158D01*
X1219Y1157D02*
X1222Y1157D01*
X1254Y1157D02*
X1257Y1157D01*
X1534Y1157D02*
X1537Y1157D01*
X1569Y1157D02*
X1572Y1157D01*
X1219Y1156D02*
X1222Y1156D01*
X1253Y1156D02*
X1257Y1156D01*
X1534Y1156D02*
X1538Y1156D01*
X1569Y1156D02*
X1572Y1156D01*
X1219Y1155D02*
X1222Y1155D01*
X1253Y1155D02*
X1256Y1155D01*
X1535Y1155D02*
X1538Y1155D01*
X1569Y1155D02*
X1572Y1155D01*
X1219Y1154D02*
X1222Y1154D01*
X1252Y1154D02*
X1256Y1154D01*
X1535Y1154D02*
X1539Y1154D01*
X1569Y1154D02*
X1572Y1154D01*
X1219Y1153D02*
X1222Y1153D01*
X1252Y1153D02*
X1255Y1153D01*
X1536Y1153D02*
X1539Y1153D01*
X1569Y1153D02*
X1572Y1153D01*
X1219Y1152D02*
X1222Y1152D01*
X1252Y1152D02*
X1255Y1152D01*
X1536Y1152D02*
X1540Y1152D01*
X1569Y1152D02*
X1572Y1152D01*
X1219Y1151D02*
X1222Y1151D01*
X1251Y1151D02*
X1254Y1151D01*
X1537Y1151D02*
X1540Y1151D01*
X1569Y1151D02*
X1572Y1151D01*
X1219Y1150D02*
X1222Y1150D01*
X1251Y1150D02*
X1254Y1150D01*
X1537Y1150D02*
X1540Y1150D01*
X1569Y1150D02*
X1572Y1150D01*
X1220Y1149D02*
X1221Y1149D01*
X1252Y1149D02*
X1253Y1149D01*
X1538Y1149D02*
X1539Y1149D01*
X1570Y1149D02*
X1571Y1149D01*
X1220Y1030D02*
X1221Y1030D01*
X1252Y1030D02*
X1253Y1030D01*
X1538Y1030D02*
X1539Y1030D01*
X1570Y1030D02*
X1571Y1030D01*
X1219Y1029D02*
X1222Y1029D01*
X1251Y1029D02*
X1254Y1029D01*
X1537Y1029D02*
X1540Y1029D01*
X1569Y1029D02*
X1572Y1029D01*
X1219Y1028D02*
X1222Y1028D01*
X1251Y1028D02*
X1255Y1028D01*
X1537Y1028D02*
X1540Y1028D01*
X1569Y1028D02*
X1572Y1028D01*
X1219Y1027D02*
X1222Y1027D01*
X1252Y1027D02*
X1255Y1027D01*
X1536Y1027D02*
X1540Y1027D01*
X1569Y1027D02*
X1572Y1027D01*
X1219Y1026D02*
X1222Y1026D01*
X1252Y1026D02*
X1255Y1026D01*
X1536Y1026D02*
X1539Y1026D01*
X1569Y1026D02*
X1572Y1026D01*
X1219Y1025D02*
X1222Y1025D01*
X1253Y1025D02*
X1256Y1025D01*
X1535Y1025D02*
X1539Y1025D01*
X1569Y1025D02*
X1572Y1025D01*
X1219Y1024D02*
X1222Y1024D01*
X1253Y1024D02*
X1256Y1024D01*
X1535Y1024D02*
X1538Y1024D01*
X1569Y1024D02*
X1572Y1024D01*
X1219Y1023D02*
X1222Y1023D01*
X1254Y1023D02*
X1257Y1023D01*
X1534Y1023D02*
X1538Y1023D01*
X1569Y1023D02*
X1572Y1023D01*
X1219Y1022D02*
X1222Y1022D01*
X1254Y1022D02*
X1257Y1022D01*
X1534Y1022D02*
X1537Y1022D01*
X1569Y1022D02*
X1572Y1022D01*
X1219Y1021D02*
X1222Y1021D01*
X1254Y1021D02*
X1258Y1021D01*
X1533Y1021D02*
X1537Y1021D01*
X1569Y1021D02*
X1572Y1021D01*
X1219Y1020D02*
X1222Y1020D01*
X1255Y1020D02*
X1258Y1020D01*
X1533Y1020D02*
X1536Y1020D01*
X1569Y1020D02*
X1572Y1020D01*
X1219Y1019D02*
X1222Y1019D01*
X1255Y1019D02*
X1259Y1019D01*
X1532Y1019D02*
X1536Y1019D01*
X1569Y1019D02*
X1572Y1019D01*
X1219Y1018D02*
X1222Y1018D01*
X1256Y1018D02*
X1259Y1018D01*
X1532Y1018D02*
X1535Y1018D01*
X1569Y1018D02*
X1572Y1018D01*
X1219Y1017D02*
X1222Y1017D01*
X1256Y1017D02*
X1260Y1017D01*
X1531Y1017D02*
X1535Y1017D01*
X1569Y1017D02*
X1572Y1017D01*
X1219Y1016D02*
X1222Y1016D01*
X1257Y1016D02*
X1260Y1016D01*
X1531Y1016D02*
X1534Y1016D01*
X1569Y1016D02*
X1572Y1016D01*
X1219Y1015D02*
X1222Y1015D01*
X1257Y1015D02*
X1261Y1015D01*
X1530Y1015D02*
X1534Y1015D01*
X1569Y1015D02*
X1572Y1015D01*
X1219Y1014D02*
X1222Y1014D01*
X1258Y1014D02*
X1262Y1014D01*
X1530Y1014D02*
X1533Y1014D01*
X1569Y1014D02*
X1572Y1014D01*
X1219Y1013D02*
X1222Y1013D01*
X1259Y1013D02*
X1262Y1013D01*
X1529Y1013D02*
X1533Y1013D01*
X1569Y1013D02*
X1572Y1013D01*
X1219Y1012D02*
X1222Y1012D01*
X1259Y1012D02*
X1263Y1012D01*
X1528Y1012D02*
X1532Y1012D01*
X1569Y1012D02*
X1572Y1012D01*
X1219Y1011D02*
X1222Y1011D01*
X1260Y1011D02*
X1263Y1011D01*
X1528Y1011D02*
X1531Y1011D01*
X1569Y1011D02*
X1572Y1011D01*
X1219Y1010D02*
X1222Y1010D01*
X1260Y1010D02*
X1264Y1010D01*
X1527Y1010D02*
X1531Y1010D01*
X1569Y1010D02*
X1572Y1010D01*
X1219Y1009D02*
X1222Y1009D01*
X1261Y1009D02*
X1264Y1009D01*
X1527Y1009D02*
X1530Y1009D01*
X1569Y1009D02*
X1572Y1009D01*
X1219Y1008D02*
X1222Y1008D01*
X1261Y1008D02*
X1265Y1008D01*
X1526Y1008D02*
X1530Y1008D01*
X1569Y1008D02*
X1572Y1008D01*
X1219Y1007D02*
X1222Y1007D01*
X1262Y1007D02*
X1266Y1007D01*
X1525Y1007D02*
X1529Y1007D01*
X1569Y1007D02*
X1572Y1007D01*
X1219Y1006D02*
X1222Y1006D01*
X1263Y1006D02*
X1266Y1006D01*
X1525Y1006D02*
X1528Y1006D01*
X1569Y1006D02*
X1572Y1006D01*
X1219Y1005D02*
X1222Y1005D01*
X1263Y1005D02*
X1267Y1005D01*
X1524Y1005D02*
X1528Y1005D01*
X1569Y1005D02*
X1572Y1005D01*
X1219Y1004D02*
X1222Y1004D01*
X1264Y1004D02*
X1268Y1004D01*
X1523Y1004D02*
X1527Y1004D01*
X1569Y1004D02*
X1572Y1004D01*
X1219Y1003D02*
X1222Y1003D01*
X1265Y1003D02*
X1268Y1003D01*
X1523Y1003D02*
X1526Y1003D01*
X1569Y1003D02*
X1572Y1003D01*
X1219Y1002D02*
X1222Y1002D01*
X1265Y1002D02*
X1269Y1002D01*
X1522Y1002D02*
X1526Y1002D01*
X1569Y1002D02*
X1572Y1002D01*
X1219Y1001D02*
X1222Y1001D01*
X1266Y1001D02*
X1270Y1001D01*
X1521Y1001D02*
X1525Y1001D01*
X1569Y1001D02*
X1572Y1001D01*
X1219Y1000D02*
X1222Y1000D01*
X1267Y1000D02*
X1270Y1000D01*
X1521Y1000D02*
X1524Y1000D01*
X1569Y1000D02*
X1572Y1000D01*
X1219Y999D02*
X1222Y999D01*
X1267Y999D02*
X1271Y999D01*
X1520Y999D02*
X1524Y999D01*
X1569Y999D02*
X1572Y999D01*
X1219Y998D02*
X1222Y998D01*
X1268Y998D02*
X1272Y998D01*
X1519Y998D02*
X1523Y998D01*
X1569Y998D02*
X1572Y998D01*
X1219Y997D02*
X1222Y997D01*
X1269Y997D02*
X1273Y997D01*
X1518Y997D02*
X1522Y997D01*
X1569Y997D02*
X1572Y997D01*
X1219Y996D02*
X1222Y996D01*
X1270Y996D02*
X1273Y996D01*
X1518Y996D02*
X1522Y996D01*
X1569Y996D02*
X1572Y996D01*
X1219Y995D02*
X1222Y995D01*
X1270Y995D02*
X1274Y995D01*
X1517Y995D02*
X1521Y995D01*
X1569Y995D02*
X1572Y995D01*
X1219Y994D02*
X1222Y994D01*
X1271Y994D02*
X1275Y994D01*
X1516Y994D02*
X1520Y994D01*
X1569Y994D02*
X1572Y994D01*
X1219Y993D02*
X1222Y993D01*
X1272Y993D02*
X1276Y993D01*
X1515Y993D02*
X1519Y993D01*
X1569Y993D02*
X1572Y993D01*
X1219Y992D02*
X1222Y992D01*
X1273Y992D02*
X1277Y992D01*
X1515Y992D02*
X1518Y992D01*
X1569Y992D02*
X1572Y992D01*
X1219Y991D02*
X1222Y991D01*
X1273Y991D02*
X1277Y991D01*
X1514Y991D02*
X1518Y991D01*
X1569Y991D02*
X1572Y991D01*
X1219Y990D02*
X1222Y990D01*
X1274Y990D02*
X1278Y990D01*
X1513Y990D02*
X1517Y990D01*
X1569Y990D02*
X1572Y990D01*
X1219Y989D02*
X1222Y989D01*
X1275Y989D02*
X1279Y989D01*
X1512Y989D02*
X1516Y989D01*
X1569Y989D02*
X1572Y989D01*
X1219Y988D02*
X1222Y988D01*
X1276Y988D02*
X1280Y988D01*
X1511Y988D02*
X1515Y988D01*
X1569Y988D02*
X1572Y988D01*
X1219Y987D02*
X1222Y987D01*
X1277Y987D02*
X1281Y987D01*
X1510Y987D02*
X1514Y987D01*
X1569Y987D02*
X1572Y987D01*
X1219Y986D02*
X1222Y986D01*
X1278Y986D02*
X1282Y986D01*
X1509Y986D02*
X1513Y986D01*
X1569Y986D02*
X1572Y986D01*
X1219Y985D02*
X1222Y985D01*
X1279Y985D02*
X1283Y985D01*
X1508Y985D02*
X1513Y985D01*
X1569Y985D02*
X1572Y985D01*
X1219Y984D02*
X1222Y984D01*
X1279Y984D02*
X1284Y984D01*
X1507Y984D02*
X1512Y984D01*
X1569Y984D02*
X1572Y984D01*
X1219Y983D02*
X1222Y983D01*
X1280Y983D02*
X1285Y983D01*
X1507Y983D02*
X1511Y983D01*
X1569Y983D02*
X1572Y983D01*
X1219Y982D02*
X1222Y982D01*
X1281Y982D02*
X1286Y982D01*
X1506Y982D02*
X1510Y982D01*
X1569Y982D02*
X1572Y982D01*
X1219Y981D02*
X1222Y981D01*
X1282Y981D02*
X1287Y981D01*
X1505Y981D02*
X1509Y981D01*
X1569Y981D02*
X1572Y981D01*
X1219Y980D02*
X1222Y980D01*
X1283Y980D02*
X1288Y980D01*
X1504Y980D02*
X1508Y980D01*
X1569Y980D02*
X1572Y980D01*
X1219Y979D02*
X1222Y979D01*
X1284Y979D02*
X1289Y979D01*
X1502Y979D02*
X1507Y979D01*
X1569Y979D02*
X1572Y979D01*
X1219Y978D02*
X1222Y978D01*
X1285Y978D02*
X1290Y978D01*
X1501Y978D02*
X1506Y978D01*
X1569Y978D02*
X1572Y978D01*
X1219Y977D02*
X1222Y977D01*
X1286Y977D02*
X1291Y977D01*
X1500Y977D02*
X1505Y977D01*
X1569Y977D02*
X1572Y977D01*
X1219Y976D02*
X1222Y976D01*
X1287Y976D02*
X1292Y976D01*
X1499Y976D02*
X1504Y976D01*
X1569Y976D02*
X1572Y976D01*
X1219Y975D02*
X1222Y975D01*
X1288Y975D02*
X1293Y975D01*
X1498Y975D02*
X1503Y975D01*
X1569Y975D02*
X1572Y975D01*
X1219Y974D02*
X1222Y974D01*
X1289Y974D02*
X1294Y974D01*
X1497Y974D02*
X1502Y974D01*
X1569Y974D02*
X1572Y974D01*
X1219Y973D02*
X1222Y973D01*
X1290Y973D02*
X1295Y973D01*
X1496Y973D02*
X1501Y973D01*
X1569Y973D02*
X1572Y973D01*
X1219Y972D02*
X1222Y972D01*
X1291Y972D02*
X1296Y972D01*
X1495Y972D02*
X1500Y972D01*
X1569Y972D02*
X1572Y972D01*
X1219Y971D02*
X1222Y971D01*
X1293Y971D02*
X1298Y971D01*
X1494Y971D02*
X1498Y971D01*
X1569Y971D02*
X1572Y971D01*
X1219Y970D02*
X1222Y970D01*
X1294Y970D02*
X1299Y970D01*
X1492Y970D02*
X1497Y970D01*
X1569Y970D02*
X1572Y970D01*
X1219Y969D02*
X1222Y969D01*
X1295Y969D02*
X1300Y969D01*
X1491Y969D02*
X1496Y969D01*
X1568Y969D02*
X1572Y969D01*
X1219Y968D02*
X1222Y968D01*
X1296Y968D02*
X1301Y968D01*
X1490Y968D02*
X1495Y968D01*
X1567Y968D02*
X1571Y968D01*
X1219Y967D02*
X1222Y967D01*
X1298Y967D02*
X1303Y967D01*
X1489Y967D02*
X1494Y967D01*
X1566Y967D02*
X1570Y967D01*
X1219Y966D02*
X1222Y966D01*
X1299Y966D02*
X1304Y966D01*
X1487Y966D02*
X1492Y966D01*
X1565Y966D02*
X1569Y966D01*
X1219Y965D02*
X1222Y965D01*
X1300Y965D02*
X1305Y965D01*
X1486Y965D02*
X1491Y965D01*
X1564Y965D02*
X1568Y965D01*
X1219Y964D02*
X1222Y964D01*
X1301Y964D02*
X1307Y964D01*
X1484Y964D02*
X1490Y964D01*
X1563Y964D02*
X1567Y964D01*
X1219Y963D02*
X1222Y963D01*
X1303Y963D02*
X1308Y963D01*
X1483Y963D02*
X1488Y963D01*
X1562Y963D02*
X1566Y963D01*
X1219Y962D02*
X1222Y962D01*
X1304Y962D02*
X1310Y962D01*
X1482Y962D02*
X1487Y962D01*
X1561Y962D02*
X1565Y962D01*
X1219Y961D02*
X1222Y961D01*
X1306Y961D02*
X1311Y961D01*
X1480Y961D02*
X1486Y961D01*
X1560Y961D02*
X1564Y961D01*
X1219Y960D02*
X1222Y960D01*
X1307Y960D02*
X1313Y960D01*
X1478Y960D02*
X1484Y960D01*
X1559Y960D02*
X1563Y960D01*
X1219Y959D02*
X1222Y959D01*
X1308Y959D02*
X1314Y959D01*
X1477Y959D02*
X1483Y959D01*
X1558Y959D02*
X1562Y959D01*
X1219Y958D02*
X1222Y958D01*
X1310Y958D02*
X1316Y958D01*
X1475Y958D02*
X1481Y958D01*
X1557Y958D02*
X1561Y958D01*
X1219Y957D02*
X1222Y957D01*
X1311Y957D02*
X1318Y957D01*
X1473Y957D02*
X1480Y957D01*
X1556Y957D02*
X1560Y957D01*
X1219Y956D02*
X1222Y956D01*
X1313Y956D02*
X1319Y956D01*
X1472Y956D02*
X1478Y956D01*
X1555Y956D02*
X1559Y956D01*
X1219Y955D02*
X1222Y955D01*
X1315Y955D02*
X1321Y955D01*
X1470Y955D02*
X1476Y955D01*
X1554Y955D02*
X1558Y955D01*
X1219Y954D02*
X1222Y954D01*
X1316Y954D02*
X1323Y954D01*
X1468Y954D02*
X1475Y954D01*
X1553Y954D02*
X1557Y954D01*
X1219Y953D02*
X1222Y953D01*
X1318Y953D02*
X1325Y953D01*
X1466Y953D02*
X1473Y953D01*
X1552Y953D02*
X1556Y953D01*
X1219Y952D02*
X1222Y952D01*
X1320Y952D02*
X1327Y952D01*
X1464Y952D02*
X1471Y952D01*
X1551Y952D02*
X1555Y952D01*
X1219Y951D02*
X1222Y951D01*
X1322Y951D02*
X1329Y951D01*
X1462Y951D02*
X1469Y951D01*
X1550Y951D02*
X1554Y951D01*
X1219Y950D02*
X1222Y950D01*
X1324Y950D02*
X1331Y950D01*
X1460Y950D02*
X1468Y950D01*
X1549Y950D02*
X1553Y950D01*
X1219Y949D02*
X1222Y949D01*
X1326Y949D02*
X1333Y949D01*
X1458Y949D02*
X1466Y949D01*
X1548Y949D02*
X1552Y949D01*
X1219Y948D02*
X1222Y948D01*
X1328Y948D02*
X1336Y948D01*
X1455Y948D02*
X1464Y948D01*
X1547Y948D02*
X1551Y948D01*
X1219Y947D02*
X1222Y947D01*
X1329Y947D02*
X1338Y947D01*
X1453Y947D02*
X1462Y947D01*
X1546Y947D02*
X1550Y947D01*
X1219Y946D02*
X1222Y946D01*
X1332Y946D02*
X1341Y946D01*
X1450Y946D02*
X1459Y946D01*
X1545Y946D02*
X1549Y946D01*
X1219Y945D02*
X1222Y945D01*
X1334Y945D02*
X1344Y945D01*
X1448Y945D02*
X1457Y945D01*
X1544Y945D02*
X1548Y945D01*
X1219Y944D02*
X1222Y944D01*
X1337Y944D02*
X1347Y944D01*
X1445Y944D02*
X1455Y944D01*
X1543Y944D02*
X1547Y944D01*
X1219Y943D02*
X1222Y943D01*
X1339Y943D02*
X1349Y943D01*
X1442Y943D02*
X1452Y943D01*
X1542Y943D02*
X1546Y943D01*
X1219Y942D02*
X1222Y942D01*
X1342Y942D02*
X1353Y942D01*
X1438Y942D02*
X1450Y942D01*
X1541Y942D02*
X1545Y942D01*
X1219Y941D02*
X1222Y941D01*
X1344Y941D02*
X1357Y941D01*
X1434Y941D02*
X1447Y941D01*
X1540Y941D02*
X1544Y941D01*
X1219Y940D02*
X1222Y940D01*
X1347Y940D02*
X1361Y940D01*
X1431Y940D02*
X1444Y940D01*
X1539Y940D02*
X1543Y940D01*
X1219Y939D02*
X1222Y939D01*
X1350Y939D02*
X1366Y939D01*
X1425Y939D02*
X1441Y939D01*
X1538Y939D02*
X1542Y939D01*
X1219Y938D02*
X1222Y938D01*
X1354Y938D02*
X1371Y938D01*
X1420Y938D02*
X1437Y938D01*
X1537Y938D02*
X1541Y938D01*
X1219Y937D02*
X1222Y937D01*
X1358Y937D02*
X1378Y937D01*
X1413Y937D02*
X1433Y937D01*
X1536Y937D02*
X1540Y937D01*
X1219Y936D02*
X1222Y936D01*
X1362Y936D02*
X1430Y936D01*
X1535Y936D02*
X1539Y936D01*
X1219Y935D02*
X1222Y935D01*
X1367Y935D02*
X1424Y935D01*
X1534Y935D02*
X1538Y935D01*
X1219Y934D02*
X1222Y934D01*
X1372Y934D02*
X1419Y934D01*
X1533Y934D02*
X1537Y934D01*
X1219Y933D02*
X1222Y933D01*
X1380Y933D02*
X1411Y933D01*
X1532Y933D02*
X1536Y933D01*
X1219Y932D02*
X1222Y932D01*
X1531Y932D02*
X1535Y932D01*
X1219Y931D02*
X1222Y931D01*
X1530Y931D02*
X1534Y931D01*
X1219Y930D02*
X1222Y930D01*
X1529Y930D02*
X1533Y930D01*
X1219Y929D02*
X1222Y929D01*
X1528Y929D02*
X1532Y929D01*
X1219Y928D02*
X1222Y928D01*
X1527Y928D02*
X1531Y928D01*
X1219Y927D02*
X1222Y927D01*
X1526Y927D02*
X1530Y927D01*
X1220Y926D02*
X1223Y926D01*
X1525Y926D02*
X1529Y926D01*
X1220Y925D02*
X1223Y925D01*
X1524Y925D02*
X1528Y925D01*
X1220Y924D02*
X1223Y924D01*
X1523Y924D02*
X1527Y924D01*
X1221Y923D02*
X1224Y923D01*
X1522Y923D02*
X1526Y923D01*
X1221Y922D02*
X1225Y922D01*
X1521Y922D02*
X1525Y922D01*
X1222Y921D02*
X1225Y921D01*
X1520Y921D02*
X1524Y921D01*
X1222Y920D02*
X1226Y920D01*
X1519Y920D02*
X1523Y920D01*
X1223Y919D02*
X1228Y919D01*
X1518Y919D02*
X1522Y919D01*
X1224Y918D02*
X1229Y918D01*
X1517Y918D02*
X1521Y918D01*
X1225Y917D02*
X1232Y917D01*
X1516Y917D02*
X1520Y917D01*
X1226Y916D02*
X1519Y916D01*
X1228Y915D02*
X1518Y915D01*
X1230Y914D02*
X1517Y914D01*
X1233Y913D02*
X1516Y913D01*
X1265Y596D02*
X1291Y596D01*
X1316Y596D02*
X1333Y596D01*
X1264Y595D02*
X1291Y595D01*
X1315Y595D02*
X1335Y595D01*
X1264Y594D02*
X1291Y594D01*
X1314Y594D02*
X1337Y594D01*
X1264Y593D02*
X1291Y593D01*
X1314Y593D02*
X1338Y593D01*
X1264Y592D02*
X1291Y592D01*
X1314Y592D02*
X1338Y592D01*
X1265Y591D02*
X1291Y591D01*
X1315Y591D02*
X1339Y591D01*
X1266Y590D02*
X1291Y590D01*
X1316Y590D02*
X1339Y590D01*
X1285Y589D02*
X1291Y589D01*
X1333Y589D02*
X1340Y589D01*
X1285Y588D02*
X1291Y588D01*
X1333Y588D02*
X1340Y588D01*
X1285Y587D02*
X1291Y587D01*
X1334Y587D02*
X1341Y587D01*
X1285Y586D02*
X1291Y586D01*
X1335Y586D02*
X1341Y586D01*
X1285Y585D02*
X1291Y585D01*
X1335Y585D02*
X1342Y585D01*
X1285Y584D02*
X1291Y584D01*
X1336Y584D02*
X1342Y584D01*
X1285Y583D02*
X1291Y583D01*
X1336Y583D02*
X1343Y583D01*
X1285Y582D02*
X1291Y582D01*
X1337Y582D02*
X1343Y582D01*
X1285Y581D02*
X1291Y581D01*
X1337Y581D02*
X1344Y581D01*
X1285Y580D02*
X1291Y580D01*
X1338Y580D02*
X1344Y580D01*
X1285Y579D02*
X1291Y579D01*
X1338Y579D02*
X1345Y579D01*
X1285Y578D02*
X1291Y578D01*
X1339Y578D02*
X1345Y578D01*
X1285Y577D02*
X1291Y577D01*
X1339Y577D02*
X1346Y577D01*
X1285Y576D02*
X1291Y576D01*
X1340Y576D02*
X1346Y576D01*
X1285Y575D02*
X1291Y575D01*
X1340Y575D02*
X1347Y575D01*
X1285Y574D02*
X1291Y574D01*
X1341Y574D02*
X1347Y574D01*
X1269Y573D02*
X1291Y573D01*
X1341Y573D02*
X1347Y573D01*
X1267Y572D02*
X1291Y572D01*
X1341Y572D02*
X1347Y572D01*
X1266Y571D02*
X1291Y571D01*
X1342Y571D02*
X1348Y571D01*
X1265Y570D02*
X1291Y570D01*
X1342Y570D02*
X1348Y570D01*
X1265Y569D02*
X1291Y569D01*
X1342Y569D02*
X1348Y569D01*
X1264Y568D02*
X1291Y568D01*
X1341Y568D02*
X1348Y568D01*
X1264Y567D02*
X1291Y567D01*
X1341Y567D02*
X1347Y567D01*
X1264Y566D02*
X1270Y566D01*
X1341Y566D02*
X1347Y566D01*
X1264Y565D02*
X1270Y565D01*
X1340Y565D02*
X1347Y565D01*
X1264Y564D02*
X1270Y564D01*
X1340Y564D02*
X1347Y564D01*
X1264Y563D02*
X1270Y563D01*
X1339Y563D02*
X1346Y563D01*
X1264Y562D02*
X1270Y562D01*
X1339Y562D02*
X1346Y562D01*
X1264Y561D02*
X1270Y561D01*
X1338Y561D02*
X1345Y561D01*
X1264Y560D02*
X1270Y560D01*
X1338Y560D02*
X1345Y560D01*
X1264Y559D02*
X1270Y559D01*
X1337Y559D02*
X1344Y559D01*
X1264Y558D02*
X1270Y558D01*
X1337Y558D02*
X1344Y558D01*
X1264Y557D02*
X1270Y557D01*
X1336Y557D02*
X1343Y557D01*
X1264Y556D02*
X1270Y556D01*
X1336Y556D02*
X1343Y556D01*
X1264Y555D02*
X1270Y555D01*
X1335Y555D02*
X1342Y555D01*
X1264Y554D02*
X1270Y554D01*
X1335Y554D02*
X1342Y554D01*
X1264Y553D02*
X1270Y553D01*
X1334Y553D02*
X1341Y553D01*
X1264Y552D02*
X1270Y552D01*
X1293Y552D02*
X1296Y552D01*
X1334Y552D02*
X1341Y552D01*
X1264Y551D02*
X1270Y551D01*
X1291Y551D02*
X1297Y551D01*
X1333Y551D02*
X1340Y551D01*
X1264Y550D02*
X1270Y550D01*
X1288Y550D02*
X1297Y550D01*
X1332Y550D02*
X1340Y550D01*
X1264Y549D02*
X1297Y549D01*
X1316Y549D02*
X1339Y549D01*
X1264Y548D02*
X1297Y548D01*
X1315Y548D02*
X1339Y548D01*
X1264Y547D02*
X1297Y547D01*
X1314Y547D02*
X1338Y547D01*
X1265Y546D02*
X1296Y546D01*
X1314Y546D02*
X1337Y546D01*
X1266Y545D02*
X1294Y545D01*
X1314Y545D02*
X1336Y545D01*
X1267Y544D02*
X1292Y544D01*
X1315Y544D02*
X1335Y544D01*
X1269Y543D02*
X1289Y543D01*
X1316Y543D02*
X1332Y543D01*
X1391Y516D02*
X1676Y516D01*
X1388Y515D02*
X1677Y515D01*
X1387Y514D02*
X1678Y514D01*
X1385Y513D02*
X1679Y513D01*
X1384Y512D02*
X1390Y512D01*
X1675Y512D02*
X1680Y512D01*
X1383Y511D02*
X1388Y511D01*
X1676Y511D02*
X1681Y511D01*
X1382Y510D02*
X1386Y510D01*
X1677Y510D02*
X1682Y510D01*
X1381Y509D02*
X1385Y509D01*
X1678Y509D02*
X1683Y509D01*
X1381Y508D02*
X1384Y508D01*
X1679Y508D02*
X1684Y508D01*
X1380Y507D02*
X1384Y507D01*
X1680Y507D02*
X1685Y507D01*
X1380Y506D02*
X1383Y506D01*
X1681Y506D02*
X1686Y506D01*
X1379Y505D02*
X1382Y505D01*
X1682Y505D02*
X1687Y505D01*
X1379Y504D02*
X1382Y504D01*
X1683Y504D02*
X1688Y504D01*
X1379Y503D02*
X1382Y503D01*
X1684Y503D02*
X1689Y503D01*
X1378Y502D02*
X1381Y502D01*
X1685Y502D02*
X1690Y502D01*
X1378Y501D02*
X1381Y501D01*
X1686Y501D02*
X1691Y501D01*
X1378Y500D02*
X1381Y500D01*
X1687Y500D02*
X1692Y500D01*
X1378Y499D02*
X1381Y499D01*
X1688Y499D02*
X1693Y499D01*
X1378Y498D02*
X1381Y498D01*
X1689Y498D02*
X1694Y498D01*
X1378Y497D02*
X1381Y497D01*
X1547Y497D02*
X1563Y497D01*
X1690Y497D02*
X1695Y497D01*
X1378Y496D02*
X1381Y496D01*
X1536Y496D02*
X1574Y496D01*
X1691Y496D02*
X1696Y496D01*
X1378Y495D02*
X1381Y495D01*
X1529Y495D02*
X1580Y495D01*
X1692Y495D02*
X1697Y495D01*
X1378Y494D02*
X1381Y494D01*
X1524Y494D02*
X1586Y494D01*
X1693Y494D02*
X1698Y494D01*
X1378Y493D02*
X1381Y493D01*
X1519Y493D02*
X1545Y493D01*
X1565Y493D02*
X1590Y493D01*
X1694Y493D02*
X1699Y493D01*
X1378Y492D02*
X1381Y492D01*
X1515Y492D02*
X1534Y492D01*
X1575Y492D02*
X1594Y492D01*
X1695Y492D02*
X1700Y492D01*
X1378Y491D02*
X1381Y491D01*
X1512Y491D02*
X1528Y491D01*
X1582Y491D02*
X1598Y491D01*
X1696Y491D02*
X1701Y491D01*
X1378Y490D02*
X1381Y490D01*
X1508Y490D02*
X1523Y490D01*
X1587Y490D02*
X1601Y490D01*
X1697Y490D02*
X1702Y490D01*
X1378Y489D02*
X1381Y489D01*
X1505Y489D02*
X1518Y489D01*
X1591Y489D02*
X1604Y489D01*
X1698Y489D02*
X1703Y489D01*
X1378Y488D02*
X1381Y488D01*
X1503Y488D02*
X1514Y488D01*
X1595Y488D02*
X1607Y488D01*
X1699Y488D02*
X1704Y488D01*
X1378Y487D02*
X1381Y487D01*
X1500Y487D02*
X1511Y487D01*
X1599Y487D02*
X1610Y487D01*
X1700Y487D02*
X1705Y487D01*
X1378Y486D02*
X1381Y486D01*
X1497Y486D02*
X1508Y486D01*
X1602Y486D02*
X1612Y486D01*
X1701Y486D02*
X1706Y486D01*
X1378Y485D02*
X1381Y485D01*
X1495Y485D02*
X1505Y485D01*
X1605Y485D02*
X1615Y485D01*
X1702Y485D02*
X1707Y485D01*
X1378Y484D02*
X1381Y484D01*
X1492Y484D02*
X1502Y484D01*
X1608Y484D02*
X1617Y484D01*
X1703Y484D02*
X1708Y484D01*
X1378Y483D02*
X1381Y483D01*
X1490Y483D02*
X1499Y483D01*
X1611Y483D02*
X1619Y483D01*
X1704Y483D02*
X1709Y483D01*
X1378Y482D02*
X1381Y482D01*
X1488Y482D02*
X1497Y482D01*
X1613Y482D02*
X1622Y482D01*
X1705Y482D02*
X1710Y482D01*
X1378Y481D02*
X1381Y481D01*
X1486Y481D02*
X1494Y481D01*
X1615Y481D02*
X1624Y481D01*
X1706Y481D02*
X1711Y481D01*
X1378Y480D02*
X1381Y480D01*
X1484Y480D02*
X1492Y480D01*
X1618Y480D02*
X1626Y480D01*
X1707Y480D02*
X1712Y480D01*
X1378Y479D02*
X1381Y479D01*
X1482Y479D02*
X1489Y479D01*
X1620Y479D02*
X1628Y479D01*
X1708Y479D02*
X1713Y479D01*
X1378Y478D02*
X1381Y478D01*
X1480Y478D02*
X1487Y478D01*
X1622Y478D02*
X1629Y478D01*
X1709Y478D02*
X1714Y478D01*
X1378Y477D02*
X1381Y477D01*
X1478Y477D02*
X1485Y477D01*
X1624Y477D02*
X1631Y477D01*
X1710Y477D02*
X1715Y477D01*
X1378Y476D02*
X1381Y476D01*
X1477Y476D02*
X1484Y476D01*
X1626Y476D02*
X1633Y476D01*
X1711Y476D02*
X1716Y476D01*
X1378Y475D02*
X1381Y475D01*
X1475Y475D02*
X1482Y475D01*
X1628Y475D02*
X1635Y475D01*
X1712Y475D02*
X1717Y475D01*
X1378Y474D02*
X1381Y474D01*
X1473Y474D02*
X1480Y474D01*
X1630Y474D02*
X1636Y474D01*
X1713Y474D02*
X1718Y474D01*
X1378Y473D02*
X1381Y473D01*
X1472Y473D02*
X1478Y473D01*
X1632Y473D02*
X1638Y473D01*
X1714Y473D02*
X1719Y473D01*
X1378Y472D02*
X1381Y472D01*
X1470Y472D02*
X1476Y472D01*
X1633Y472D02*
X1640Y472D01*
X1715Y472D02*
X1720Y472D01*
X1378Y471D02*
X1381Y471D01*
X1468Y471D02*
X1475Y471D01*
X1635Y471D02*
X1641Y471D01*
X1716Y471D02*
X1721Y471D01*
X1378Y470D02*
X1381Y470D01*
X1467Y470D02*
X1473Y470D01*
X1637Y470D02*
X1643Y470D01*
X1717Y470D02*
X1722Y470D01*
X1378Y469D02*
X1381Y469D01*
X1466Y469D02*
X1471Y469D01*
X1638Y469D02*
X1644Y469D01*
X1718Y469D02*
X1723Y469D01*
X1378Y468D02*
X1381Y468D01*
X1464Y468D02*
X1470Y468D01*
X1640Y468D02*
X1645Y468D01*
X1719Y468D02*
X1724Y468D01*
X1378Y467D02*
X1381Y467D01*
X1463Y467D02*
X1468Y467D01*
X1641Y467D02*
X1647Y467D01*
X1720Y467D02*
X1725Y467D01*
X1378Y466D02*
X1381Y466D01*
X1461Y466D02*
X1467Y466D01*
X1643Y466D02*
X1648Y466D01*
X1721Y466D02*
X1726Y466D01*
X1378Y465D02*
X1381Y465D01*
X1460Y465D02*
X1466Y465D01*
X1644Y465D02*
X1650Y465D01*
X1722Y465D02*
X1727Y465D01*
X1378Y464D02*
X1381Y464D01*
X1459Y464D02*
X1464Y464D01*
X1646Y464D02*
X1651Y464D01*
X1723Y464D02*
X1728Y464D01*
X1378Y463D02*
X1381Y463D01*
X1457Y463D02*
X1463Y463D01*
X1647Y463D02*
X1652Y463D01*
X1724Y463D02*
X1729Y463D01*
X1378Y462D02*
X1381Y462D01*
X1456Y462D02*
X1461Y462D01*
X1648Y462D02*
X1653Y462D01*
X1725Y462D02*
X1730Y462D01*
X1378Y461D02*
X1381Y461D01*
X1455Y461D02*
X1460Y461D01*
X1650Y461D02*
X1655Y461D01*
X1726Y461D02*
X1731Y461D01*
X1378Y460D02*
X1381Y460D01*
X1454Y460D02*
X1459Y460D01*
X1651Y460D02*
X1656Y460D01*
X1727Y460D02*
X1731Y460D01*
X1378Y459D02*
X1381Y459D01*
X1453Y459D02*
X1458Y459D01*
X1652Y459D02*
X1657Y459D01*
X1728Y459D02*
X1731Y459D01*
X1378Y458D02*
X1381Y458D01*
X1451Y458D02*
X1456Y458D01*
X1653Y458D02*
X1658Y458D01*
X1728Y458D02*
X1731Y458D01*
X1378Y457D02*
X1381Y457D01*
X1450Y457D02*
X1455Y457D01*
X1654Y457D02*
X1659Y457D01*
X1728Y457D02*
X1731Y457D01*
X1378Y456D02*
X1381Y456D01*
X1449Y456D02*
X1454Y456D01*
X1656Y456D02*
X1660Y456D01*
X1728Y456D02*
X1731Y456D01*
X1378Y455D02*
X1381Y455D01*
X1448Y455D02*
X1453Y455D01*
X1657Y455D02*
X1661Y455D01*
X1728Y455D02*
X1731Y455D01*
X1378Y454D02*
X1381Y454D01*
X1447Y454D02*
X1452Y454D01*
X1658Y454D02*
X1662Y454D01*
X1728Y454D02*
X1731Y454D01*
X1378Y453D02*
X1381Y453D01*
X1446Y453D02*
X1451Y453D01*
X1659Y453D02*
X1664Y453D01*
X1728Y453D02*
X1731Y453D01*
X1378Y452D02*
X1381Y452D01*
X1445Y452D02*
X1450Y452D01*
X1660Y452D02*
X1665Y452D01*
X1728Y452D02*
X1731Y452D01*
X1378Y451D02*
X1381Y451D01*
X1444Y451D02*
X1449Y451D01*
X1661Y451D02*
X1666Y451D01*
X1728Y451D02*
X1731Y451D01*
X1378Y450D02*
X1381Y450D01*
X1443Y450D02*
X1447Y450D01*
X1662Y450D02*
X1667Y450D01*
X1728Y450D02*
X1731Y450D01*
X1378Y449D02*
X1381Y449D01*
X1442Y449D02*
X1446Y449D01*
X1663Y449D02*
X1668Y449D01*
X1728Y449D02*
X1731Y449D01*
X1378Y448D02*
X1381Y448D01*
X1441Y448D02*
X1445Y448D01*
X1664Y448D02*
X1669Y448D01*
X1728Y448D02*
X1731Y448D01*
X1378Y447D02*
X1381Y447D01*
X1440Y447D02*
X1444Y447D01*
X1665Y447D02*
X1669Y447D01*
X1728Y447D02*
X1731Y447D01*
X1378Y446D02*
X1381Y446D01*
X1439Y446D02*
X1443Y446D01*
X1666Y446D02*
X1670Y446D01*
X1728Y446D02*
X1731Y446D01*
X1378Y445D02*
X1381Y445D01*
X1438Y445D02*
X1443Y445D01*
X1667Y445D02*
X1671Y445D01*
X1728Y445D02*
X1731Y445D01*
X1378Y444D02*
X1381Y444D01*
X1437Y444D02*
X1442Y444D01*
X1668Y444D02*
X1672Y444D01*
X1728Y444D02*
X1731Y444D01*
X1378Y443D02*
X1381Y443D01*
X1437Y443D02*
X1441Y443D01*
X1669Y443D02*
X1673Y443D01*
X1728Y443D02*
X1731Y443D01*
X1378Y442D02*
X1381Y442D01*
X1436Y442D02*
X1440Y442D01*
X1670Y442D02*
X1674Y442D01*
X1728Y442D02*
X1731Y442D01*
X1378Y441D02*
X1381Y441D01*
X1435Y441D02*
X1439Y441D01*
X1671Y441D02*
X1675Y441D01*
X1728Y441D02*
X1731Y441D01*
X1378Y440D02*
X1381Y440D01*
X1434Y440D02*
X1438Y440D01*
X1672Y440D02*
X1676Y440D01*
X1728Y440D02*
X1731Y440D01*
X1378Y439D02*
X1381Y439D01*
X1433Y439D02*
X1437Y439D01*
X1673Y439D02*
X1676Y439D01*
X1728Y439D02*
X1731Y439D01*
X1378Y438D02*
X1381Y438D01*
X1432Y438D02*
X1436Y438D01*
X1673Y438D02*
X1677Y438D01*
X1728Y438D02*
X1731Y438D01*
X1378Y437D02*
X1381Y437D01*
X1432Y437D02*
X1436Y437D01*
X1674Y437D02*
X1678Y437D01*
X1728Y437D02*
X1731Y437D01*
X1378Y436D02*
X1381Y436D01*
X1431Y436D02*
X1435Y436D01*
X1675Y436D02*
X1679Y436D01*
X1728Y436D02*
X1731Y436D01*
X1378Y435D02*
X1381Y435D01*
X1430Y435D02*
X1434Y435D01*
X1676Y435D02*
X1680Y435D01*
X1728Y435D02*
X1731Y435D01*
X1378Y434D02*
X1381Y434D01*
X1429Y434D02*
X1433Y434D01*
X1676Y434D02*
X1680Y434D01*
X1728Y434D02*
X1731Y434D01*
X1378Y433D02*
X1381Y433D01*
X1428Y433D02*
X1432Y433D01*
X1677Y433D02*
X1681Y433D01*
X1728Y433D02*
X1731Y433D01*
X1378Y432D02*
X1381Y432D01*
X1428Y432D02*
X1432Y432D01*
X1678Y432D02*
X1682Y432D01*
X1728Y432D02*
X1731Y432D01*
X1378Y431D02*
X1381Y431D01*
X1427Y431D02*
X1431Y431D01*
X1679Y431D02*
X1683Y431D01*
X1728Y431D02*
X1731Y431D01*
X1378Y430D02*
X1381Y430D01*
X1426Y430D02*
X1430Y430D01*
X1680Y430D02*
X1683Y430D01*
X1728Y430D02*
X1731Y430D01*
X1378Y429D02*
X1381Y429D01*
X1426Y429D02*
X1429Y429D01*
X1680Y429D02*
X1684Y429D01*
X1728Y429D02*
X1731Y429D01*
X1378Y428D02*
X1381Y428D01*
X1425Y428D02*
X1429Y428D01*
X1681Y428D02*
X1685Y428D01*
X1728Y428D02*
X1731Y428D01*
X1378Y427D02*
X1381Y427D01*
X1424Y427D02*
X1428Y427D01*
X1682Y427D02*
X1685Y427D01*
X1728Y427D02*
X1731Y427D01*
X1378Y426D02*
X1381Y426D01*
X1424Y426D02*
X1427Y426D01*
X1682Y426D02*
X1686Y426D01*
X1728Y426D02*
X1731Y426D01*
X1378Y425D02*
X1381Y425D01*
X1423Y425D02*
X1427Y425D01*
X1683Y425D02*
X1687Y425D01*
X1728Y425D02*
X1731Y425D01*
X1378Y424D02*
X1381Y424D01*
X1422Y424D02*
X1426Y424D01*
X1684Y424D02*
X1687Y424D01*
X1728Y424D02*
X1731Y424D01*
X1378Y423D02*
X1381Y423D01*
X1422Y423D02*
X1425Y423D01*
X1684Y423D02*
X1688Y423D01*
X1728Y423D02*
X1731Y423D01*
X1378Y422D02*
X1381Y422D01*
X1421Y422D02*
X1425Y422D01*
X1685Y422D02*
X1689Y422D01*
X1728Y422D02*
X1731Y422D01*
X1378Y421D02*
X1381Y421D01*
X1420Y421D02*
X1424Y421D01*
X1686Y421D02*
X1689Y421D01*
X1728Y421D02*
X1731Y421D01*
X1378Y420D02*
X1381Y420D01*
X1420Y420D02*
X1423Y420D01*
X1686Y420D02*
X1690Y420D01*
X1728Y420D02*
X1731Y420D01*
X1378Y419D02*
X1381Y419D01*
X1419Y419D02*
X1423Y419D01*
X1687Y419D02*
X1690Y419D01*
X1728Y419D02*
X1731Y419D01*
X1378Y418D02*
X1381Y418D01*
X1419Y418D02*
X1422Y418D01*
X1687Y418D02*
X1691Y418D01*
X1728Y418D02*
X1731Y418D01*
X1378Y417D02*
X1381Y417D01*
X1418Y417D02*
X1422Y417D01*
X1688Y417D02*
X1691Y417D01*
X1728Y417D02*
X1731Y417D01*
X1378Y416D02*
X1381Y416D01*
X1418Y416D02*
X1421Y416D01*
X1688Y416D02*
X1692Y416D01*
X1728Y416D02*
X1731Y416D01*
X1378Y415D02*
X1381Y415D01*
X1417Y415D02*
X1421Y415D01*
X1689Y415D02*
X1693Y415D01*
X1728Y415D02*
X1731Y415D01*
X1378Y414D02*
X1381Y414D01*
X1417Y414D02*
X1420Y414D01*
X1690Y414D02*
X1693Y414D01*
X1728Y414D02*
X1731Y414D01*
X1378Y413D02*
X1381Y413D01*
X1416Y413D02*
X1419Y413D01*
X1690Y413D02*
X1694Y413D01*
X1728Y413D02*
X1731Y413D01*
X1378Y412D02*
X1381Y412D01*
X1415Y412D02*
X1419Y412D01*
X1691Y412D02*
X1694Y412D01*
X1728Y412D02*
X1731Y412D01*
X1378Y411D02*
X1381Y411D01*
X1415Y411D02*
X1418Y411D01*
X1691Y411D02*
X1695Y411D01*
X1728Y411D02*
X1731Y411D01*
X1378Y410D02*
X1381Y410D01*
X1414Y410D02*
X1418Y410D01*
X1692Y410D02*
X1695Y410D01*
X1728Y410D02*
X1731Y410D01*
X1378Y409D02*
X1381Y409D01*
X1414Y409D02*
X1417Y409D01*
X1692Y409D02*
X1696Y409D01*
X1728Y409D02*
X1731Y409D01*
X1378Y408D02*
X1381Y408D01*
X1414Y408D02*
X1417Y408D01*
X1693Y408D02*
X1696Y408D01*
X1728Y408D02*
X1731Y408D01*
X1378Y407D02*
X1381Y407D01*
X1413Y407D02*
X1416Y407D01*
X1693Y407D02*
X1697Y407D01*
X1728Y407D02*
X1731Y407D01*
X1378Y406D02*
X1381Y406D01*
X1413Y406D02*
X1416Y406D01*
X1694Y406D02*
X1697Y406D01*
X1728Y406D02*
X1731Y406D01*
X1378Y405D02*
X1381Y405D01*
X1412Y405D02*
X1415Y405D01*
X1694Y405D02*
X1698Y405D01*
X1728Y405D02*
X1731Y405D01*
X1378Y404D02*
X1381Y404D01*
X1412Y404D02*
X1415Y404D01*
X1695Y404D02*
X1698Y404D01*
X1728Y404D02*
X1731Y404D01*
X1378Y403D02*
X1381Y403D01*
X1411Y403D02*
X1415Y403D01*
X1695Y403D02*
X1698Y403D01*
X1728Y403D02*
X1731Y403D01*
X1378Y402D02*
X1381Y402D01*
X1411Y402D02*
X1414Y402D01*
X1696Y402D02*
X1699Y402D01*
X1728Y402D02*
X1731Y402D01*
X1378Y401D02*
X1381Y401D01*
X1410Y401D02*
X1414Y401D01*
X1696Y401D02*
X1699Y401D01*
X1728Y401D02*
X1731Y401D01*
X1378Y400D02*
X1381Y400D01*
X1411Y400D02*
X1413Y400D01*
X1697Y400D02*
X1699Y400D01*
X1729Y400D02*
X1731Y400D01*
X1379Y399D02*
X1380Y399D01*
X1412Y399D02*
X1412Y399D01*
X1698Y399D02*
X1698Y399D01*
X1730Y399D02*
X1730Y399D01*
X1379Y280D02*
X1381Y280D01*
X1411Y280D02*
X1413Y280D01*
X1697Y280D02*
X1699Y280D01*
X1729Y280D02*
X1731Y280D01*
X1378Y279D02*
X1381Y279D01*
X1410Y279D02*
X1413Y279D01*
X1696Y279D02*
X1699Y279D01*
X1729Y279D02*
X1731Y279D01*
X1378Y278D02*
X1381Y278D01*
X1410Y278D02*
X1414Y278D01*
X1696Y278D02*
X1699Y278D01*
X1728Y278D02*
X1731Y278D01*
X1378Y277D02*
X1381Y277D01*
X1411Y277D02*
X1414Y277D01*
X1695Y277D02*
X1699Y277D01*
X1728Y277D02*
X1731Y277D01*
X1378Y276D02*
X1381Y276D01*
X1411Y276D02*
X1415Y276D01*
X1695Y276D02*
X1698Y276D01*
X1728Y276D02*
X1731Y276D01*
X1378Y275D02*
X1381Y275D01*
X1412Y275D02*
X1415Y275D01*
X1694Y275D02*
X1698Y275D01*
X1728Y275D02*
X1731Y275D01*
X1378Y274D02*
X1381Y274D01*
X1412Y274D02*
X1416Y274D01*
X1694Y274D02*
X1697Y274D01*
X1728Y274D02*
X1731Y274D01*
X1378Y273D02*
X1381Y273D01*
X1413Y273D02*
X1416Y273D01*
X1693Y273D02*
X1697Y273D01*
X1728Y273D02*
X1731Y273D01*
X1378Y272D02*
X1381Y272D01*
X1413Y272D02*
X1417Y272D01*
X1693Y272D02*
X1696Y272D01*
X1728Y272D02*
X1731Y272D01*
X1378Y271D02*
X1381Y271D01*
X1414Y271D02*
X1417Y271D01*
X1692Y271D02*
X1696Y271D01*
X1728Y271D02*
X1731Y271D01*
X1378Y270D02*
X1381Y270D01*
X1414Y270D02*
X1418Y270D01*
X1692Y270D02*
X1695Y270D01*
X1728Y270D02*
X1731Y270D01*
X1378Y269D02*
X1381Y269D01*
X1415Y269D02*
X1418Y269D01*
X1692Y269D02*
X1695Y269D01*
X1728Y269D02*
X1731Y269D01*
X1378Y268D02*
X1381Y268D01*
X1415Y268D02*
X1419Y268D01*
X1691Y268D02*
X1694Y268D01*
X1728Y268D02*
X1731Y268D01*
X1378Y267D02*
X1381Y267D01*
X1416Y267D02*
X1419Y267D01*
X1690Y267D02*
X1694Y267D01*
X1728Y267D02*
X1731Y267D01*
X1378Y266D02*
X1381Y266D01*
X1416Y266D02*
X1420Y266D01*
X1690Y266D02*
X1693Y266D01*
X1728Y266D02*
X1731Y266D01*
X1378Y265D02*
X1381Y265D01*
X1417Y265D02*
X1420Y265D01*
X1689Y265D02*
X1693Y265D01*
X1728Y265D02*
X1731Y265D01*
X1378Y264D02*
X1381Y264D01*
X1417Y264D02*
X1421Y264D01*
X1689Y264D02*
X1692Y264D01*
X1728Y264D02*
X1731Y264D01*
X1378Y263D02*
X1381Y263D01*
X1418Y263D02*
X1421Y263D01*
X1688Y263D02*
X1692Y263D01*
X1728Y263D02*
X1731Y263D01*
X1378Y262D02*
X1381Y262D01*
X1419Y262D02*
X1422Y262D01*
X1688Y262D02*
X1691Y262D01*
X1728Y262D02*
X1731Y262D01*
X1378Y261D02*
X1381Y261D01*
X1419Y261D02*
X1423Y261D01*
X1687Y261D02*
X1690Y261D01*
X1728Y261D02*
X1731Y261D01*
X1378Y260D02*
X1381Y260D01*
X1420Y260D02*
X1423Y260D01*
X1686Y260D02*
X1690Y260D01*
X1728Y260D02*
X1731Y260D01*
X1378Y259D02*
X1381Y259D01*
X1420Y259D02*
X1424Y259D01*
X1686Y259D02*
X1689Y259D01*
X1728Y259D02*
X1731Y259D01*
X1378Y258D02*
X1381Y258D01*
X1421Y258D02*
X1424Y258D01*
X1685Y258D02*
X1689Y258D01*
X1728Y258D02*
X1731Y258D01*
X1378Y257D02*
X1381Y257D01*
X1421Y257D02*
X1425Y257D01*
X1685Y257D02*
X1688Y257D01*
X1728Y257D02*
X1731Y257D01*
X1378Y256D02*
X1381Y256D01*
X1422Y256D02*
X1426Y256D01*
X1684Y256D02*
X1688Y256D01*
X1728Y256D02*
X1731Y256D01*
X1378Y255D02*
X1381Y255D01*
X1423Y255D02*
X1426Y255D01*
X1683Y255D02*
X1687Y255D01*
X1728Y255D02*
X1731Y255D01*
X1378Y254D02*
X1381Y254D01*
X1423Y254D02*
X1427Y254D01*
X1683Y254D02*
X1686Y254D01*
X1728Y254D02*
X1731Y254D01*
X1378Y253D02*
X1381Y253D01*
X1424Y253D02*
X1428Y253D01*
X1682Y253D02*
X1686Y253D01*
X1728Y253D02*
X1731Y253D01*
X1378Y252D02*
X1381Y252D01*
X1425Y252D02*
X1428Y252D01*
X1681Y252D02*
X1685Y252D01*
X1728Y252D02*
X1731Y252D01*
X1378Y251D02*
X1381Y251D01*
X1425Y251D02*
X1429Y251D01*
X1681Y251D02*
X1684Y251D01*
X1728Y251D02*
X1731Y251D01*
X1378Y250D02*
X1381Y250D01*
X1426Y250D02*
X1430Y250D01*
X1680Y250D02*
X1684Y250D01*
X1728Y250D02*
X1731Y250D01*
X1378Y249D02*
X1381Y249D01*
X1427Y249D02*
X1430Y249D01*
X1679Y249D02*
X1683Y249D01*
X1728Y249D02*
X1731Y249D01*
X1378Y248D02*
X1381Y248D01*
X1427Y248D02*
X1431Y248D01*
X1678Y248D02*
X1682Y248D01*
X1728Y248D02*
X1731Y248D01*
X1378Y247D02*
X1381Y247D01*
X1428Y247D02*
X1432Y247D01*
X1678Y247D02*
X1681Y247D01*
X1728Y247D02*
X1731Y247D01*
X1378Y246D02*
X1381Y246D01*
X1429Y246D02*
X1433Y246D01*
X1677Y246D02*
X1681Y246D01*
X1728Y246D02*
X1731Y246D01*
X1378Y245D02*
X1381Y245D01*
X1430Y245D02*
X1434Y245D01*
X1676Y245D02*
X1680Y245D01*
X1728Y245D02*
X1731Y245D01*
X1378Y244D02*
X1381Y244D01*
X1430Y244D02*
X1434Y244D01*
X1675Y244D02*
X1679Y244D01*
X1728Y244D02*
X1731Y244D01*
X1378Y243D02*
X1381Y243D01*
X1431Y243D02*
X1435Y243D01*
X1674Y243D02*
X1678Y243D01*
X1728Y243D02*
X1731Y243D01*
X1378Y242D02*
X1381Y242D01*
X1432Y242D02*
X1436Y242D01*
X1674Y242D02*
X1678Y242D01*
X1728Y242D02*
X1731Y242D01*
X1378Y241D02*
X1381Y241D01*
X1433Y241D02*
X1437Y241D01*
X1673Y241D02*
X1677Y241D01*
X1728Y241D02*
X1731Y241D01*
X1378Y240D02*
X1381Y240D01*
X1434Y240D02*
X1438Y240D01*
X1672Y240D02*
X1676Y240D01*
X1728Y240D02*
X1731Y240D01*
X1378Y239D02*
X1381Y239D01*
X1434Y239D02*
X1439Y239D01*
X1671Y239D02*
X1675Y239D01*
X1728Y239D02*
X1731Y239D01*
X1378Y238D02*
X1381Y238D01*
X1435Y238D02*
X1439Y238D01*
X1670Y238D02*
X1674Y238D01*
X1728Y238D02*
X1731Y238D01*
X1378Y237D02*
X1381Y237D01*
X1436Y237D02*
X1440Y237D01*
X1669Y237D02*
X1673Y237D01*
X1728Y237D02*
X1731Y237D01*
X1378Y236D02*
X1381Y236D01*
X1437Y236D02*
X1441Y236D01*
X1668Y236D02*
X1673Y236D01*
X1728Y236D02*
X1731Y236D01*
X1378Y235D02*
X1381Y235D01*
X1438Y235D02*
X1442Y235D01*
X1667Y235D02*
X1672Y235D01*
X1728Y235D02*
X1731Y235D01*
X1378Y234D02*
X1381Y234D01*
X1439Y234D02*
X1443Y234D01*
X1667Y234D02*
X1671Y234D01*
X1728Y234D02*
X1731Y234D01*
X1378Y233D02*
X1381Y233D01*
X1440Y233D02*
X1444Y233D01*
X1666Y233D02*
X1670Y233D01*
X1728Y233D02*
X1731Y233D01*
X1378Y232D02*
X1381Y232D01*
X1441Y232D02*
X1445Y232D01*
X1665Y232D02*
X1669Y232D01*
X1728Y232D02*
X1731Y232D01*
X1378Y231D02*
X1381Y231D01*
X1442Y231D02*
X1446Y231D01*
X1664Y231D02*
X1668Y231D01*
X1728Y231D02*
X1731Y231D01*
X1378Y230D02*
X1381Y230D01*
X1443Y230D02*
X1447Y230D01*
X1663Y230D02*
X1667Y230D01*
X1728Y230D02*
X1731Y230D01*
X1378Y229D02*
X1381Y229D01*
X1444Y229D02*
X1448Y229D01*
X1662Y229D02*
X1666Y229D01*
X1728Y229D02*
X1731Y229D01*
X1378Y228D02*
X1381Y228D01*
X1445Y228D02*
X1449Y228D01*
X1660Y228D02*
X1665Y228D01*
X1728Y228D02*
X1731Y228D01*
X1378Y227D02*
X1381Y227D01*
X1446Y227D02*
X1450Y227D01*
X1659Y227D02*
X1664Y227D01*
X1728Y227D02*
X1731Y227D01*
X1378Y226D02*
X1381Y226D01*
X1447Y226D02*
X1451Y226D01*
X1658Y226D02*
X1663Y226D01*
X1728Y226D02*
X1731Y226D01*
X1378Y225D02*
X1381Y225D01*
X1448Y225D02*
X1452Y225D01*
X1657Y225D02*
X1662Y225D01*
X1728Y225D02*
X1731Y225D01*
X1378Y224D02*
X1381Y224D01*
X1449Y224D02*
X1453Y224D01*
X1656Y224D02*
X1661Y224D01*
X1728Y224D02*
X1731Y224D01*
X1378Y223D02*
X1381Y223D01*
X1450Y223D02*
X1455Y223D01*
X1655Y223D02*
X1660Y223D01*
X1728Y223D02*
X1731Y223D01*
X1378Y222D02*
X1381Y222D01*
X1451Y222D02*
X1456Y222D01*
X1654Y222D02*
X1659Y222D01*
X1728Y222D02*
X1731Y222D01*
X1378Y221D02*
X1381Y221D01*
X1452Y221D02*
X1457Y221D01*
X1653Y221D02*
X1657Y221D01*
X1728Y221D02*
X1731Y221D01*
X1378Y220D02*
X1381Y220D01*
X1453Y220D02*
X1458Y220D01*
X1651Y220D02*
X1656Y220D01*
X1728Y220D02*
X1731Y220D01*
X1378Y219D02*
X1381Y219D01*
X1455Y219D02*
X1459Y219D01*
X1650Y219D02*
X1655Y219D01*
X1727Y219D02*
X1731Y219D01*
X1378Y218D02*
X1381Y218D01*
X1456Y218D02*
X1461Y218D01*
X1649Y218D02*
X1654Y218D01*
X1726Y218D02*
X1730Y218D01*
X1378Y217D02*
X1381Y217D01*
X1457Y217D02*
X1462Y217D01*
X1647Y217D02*
X1653Y217D01*
X1725Y217D02*
X1730Y217D01*
X1378Y216D02*
X1381Y216D01*
X1458Y216D02*
X1464Y216D01*
X1646Y216D02*
X1651Y216D01*
X1724Y216D02*
X1729Y216D01*
X1378Y215D02*
X1381Y215D01*
X1459Y215D02*
X1465Y215D01*
X1645Y215D02*
X1650Y215D01*
X1723Y215D02*
X1728Y215D01*
X1378Y214D02*
X1381Y214D01*
X1461Y214D02*
X1466Y214D01*
X1643Y214D02*
X1649Y214D01*
X1722Y214D02*
X1727Y214D01*
X1378Y213D02*
X1381Y213D01*
X1462Y213D02*
X1468Y213D01*
X1642Y213D02*
X1647Y213D01*
X1721Y213D02*
X1726Y213D01*
X1378Y212D02*
X1381Y212D01*
X1464Y212D02*
X1469Y212D01*
X1640Y212D02*
X1646Y212D01*
X1720Y212D02*
X1725Y212D01*
X1378Y211D02*
X1381Y211D01*
X1465Y211D02*
X1471Y211D01*
X1639Y211D02*
X1645Y211D01*
X1719Y211D02*
X1724Y211D01*
X1378Y210D02*
X1381Y210D01*
X1466Y210D02*
X1472Y210D01*
X1637Y210D02*
X1643Y210D01*
X1718Y210D02*
X1723Y210D01*
X1378Y209D02*
X1381Y209D01*
X1468Y209D02*
X1474Y209D01*
X1636Y209D02*
X1642Y209D01*
X1717Y209D02*
X1722Y209D01*
X1378Y208D02*
X1381Y208D01*
X1469Y208D02*
X1476Y208D01*
X1634Y208D02*
X1640Y208D01*
X1716Y208D02*
X1721Y208D01*
X1378Y207D02*
X1381Y207D01*
X1471Y207D02*
X1477Y207D01*
X1632Y207D02*
X1639Y207D01*
X1715Y207D02*
X1720Y207D01*
X1378Y206D02*
X1381Y206D01*
X1473Y206D02*
X1479Y206D01*
X1631Y206D02*
X1637Y206D01*
X1714Y206D02*
X1719Y206D01*
X1378Y205D02*
X1381Y205D01*
X1474Y205D02*
X1481Y205D01*
X1629Y205D02*
X1635Y205D01*
X1713Y205D02*
X1718Y205D01*
X1378Y204D02*
X1381Y204D01*
X1476Y204D02*
X1483Y204D01*
X1627Y204D02*
X1634Y204D01*
X1712Y204D02*
X1717Y204D01*
X1378Y203D02*
X1381Y203D01*
X1478Y203D02*
X1485Y203D01*
X1625Y203D02*
X1632Y203D01*
X1711Y203D02*
X1716Y203D01*
X1378Y202D02*
X1381Y202D01*
X1479Y202D02*
X1487Y202D01*
X1623Y202D02*
X1630Y202D01*
X1710Y202D02*
X1715Y202D01*
X1378Y201D02*
X1381Y201D01*
X1481Y201D02*
X1489Y201D01*
X1621Y201D02*
X1628Y201D01*
X1709Y201D02*
X1714Y201D01*
X1378Y200D02*
X1381Y200D01*
X1483Y200D02*
X1491Y200D01*
X1619Y200D02*
X1626Y200D01*
X1708Y200D02*
X1713Y200D01*
X1378Y199D02*
X1381Y199D01*
X1485Y199D02*
X1493Y199D01*
X1616Y199D02*
X1624Y199D01*
X1707Y199D02*
X1712Y199D01*
X1378Y198D02*
X1381Y198D01*
X1487Y198D02*
X1496Y198D01*
X1614Y198D02*
X1622Y198D01*
X1706Y198D02*
X1711Y198D01*
X1378Y197D02*
X1381Y197D01*
X1489Y197D02*
X1498Y197D01*
X1612Y197D02*
X1620Y197D01*
X1705Y197D02*
X1710Y197D01*
X1378Y196D02*
X1381Y196D01*
X1491Y196D02*
X1500Y196D01*
X1609Y196D02*
X1618Y196D01*
X1704Y196D02*
X1709Y196D01*
X1378Y195D02*
X1381Y195D01*
X1494Y195D02*
X1503Y195D01*
X1606Y195D02*
X1616Y195D01*
X1703Y195D02*
X1708Y195D01*
X1378Y194D02*
X1381Y194D01*
X1496Y194D02*
X1506Y194D01*
X1603Y194D02*
X1613Y194D01*
X1702Y194D02*
X1707Y194D01*
X1378Y193D02*
X1381Y193D01*
X1499Y193D02*
X1509Y193D01*
X1600Y193D02*
X1611Y193D01*
X1701Y193D02*
X1706Y193D01*
X1378Y192D02*
X1381Y192D01*
X1501Y192D02*
X1513Y192D01*
X1597Y192D02*
X1608Y192D01*
X1700Y192D02*
X1705Y192D01*
X1378Y191D02*
X1381Y191D01*
X1504Y191D02*
X1517Y191D01*
X1593Y191D02*
X1605Y191D01*
X1699Y191D02*
X1704Y191D01*
X1378Y190D02*
X1381Y190D01*
X1507Y190D02*
X1521Y190D01*
X1589Y190D02*
X1602Y190D01*
X1698Y190D02*
X1703Y190D01*
X1378Y189D02*
X1381Y189D01*
X1510Y189D02*
X1526Y189D01*
X1584Y189D02*
X1599Y189D01*
X1697Y189D02*
X1702Y189D01*
X1378Y188D02*
X1381Y188D01*
X1514Y188D02*
X1531Y188D01*
X1578Y188D02*
X1596Y188D01*
X1696Y188D02*
X1701Y188D01*
X1378Y187D02*
X1381Y187D01*
X1518Y187D02*
X1540Y187D01*
X1570Y187D02*
X1592Y187D01*
X1695Y187D02*
X1700Y187D01*
X1378Y186D02*
X1381Y186D01*
X1522Y186D02*
X1588Y186D01*
X1694Y186D02*
X1699Y186D01*
X1378Y185D02*
X1381Y185D01*
X1527Y185D02*
X1582Y185D01*
X1693Y185D02*
X1698Y185D01*
X1378Y184D02*
X1381Y184D01*
X1533Y184D02*
X1577Y184D01*
X1692Y184D02*
X1697Y184D01*
X1378Y183D02*
X1381Y183D01*
X1541Y183D02*
X1568Y183D01*
X1691Y183D02*
X1696Y183D01*
X1378Y182D02*
X1381Y182D01*
X1690Y182D02*
X1695Y182D01*
X1378Y181D02*
X1381Y181D01*
X1689Y181D02*
X1694Y181D01*
X1378Y180D02*
X1381Y180D01*
X1688Y180D02*
X1693Y180D01*
X1378Y179D02*
X1381Y179D01*
X1687Y179D02*
X1692Y179D01*
X1378Y178D02*
X1381Y178D01*
X1686Y178D02*
X1691Y178D01*
X1379Y177D02*
X1382Y177D01*
X1685Y177D02*
X1690Y177D01*
X1379Y176D02*
X1382Y176D01*
X1684Y176D02*
X1689Y176D01*
X1379Y175D02*
X1382Y175D01*
X1683Y175D02*
X1688Y175D01*
X1380Y174D02*
X1383Y174D01*
X1682Y174D02*
X1687Y174D01*
X1380Y173D02*
X1383Y173D01*
X1681Y173D02*
X1686Y173D01*
X1381Y172D02*
X1384Y172D01*
X1680Y172D02*
X1685Y172D01*
X1381Y171D02*
X1385Y171D01*
X1679Y171D02*
X1684Y171D01*
X1382Y170D02*
X1386Y170D01*
X1678Y170D02*
X1683Y170D01*
X1383Y169D02*
X1387Y169D01*
X1677Y169D02*
X1682Y169D01*
X1384Y168D02*
X1389Y168D01*
X1676Y168D02*
X1681Y168D01*
X1385Y167D02*
X1392Y167D01*
X1675Y167D02*
X1680Y167D01*
X1386Y166D02*
X1679Y166D01*
X1388Y165D02*
X1678Y165D01*
X1390Y164D02*
X1677Y164D01*
X1393Y163D02*
X1675Y163D01*
D02*
G04 End of Silk0*
M02*