; NON-PLATED HOLES START AT T1
; THROUGH (PLATED) HOLES START AT T100
M48
INCH
T100C0.030000
T101C0.027559
T102C0.051139
T103C0.015748
%
T100
X038940Y035083
X043940Y026083
X043940Y045083
X009940Y018083
X015940Y036083
X010940Y038083
X009940Y021083
X010940Y022083
X038940Y015083
X010940Y041083
X038940Y034083
X043940Y025083
X043940Y044083
X009940Y017083
X015940Y035083
X010940Y037083
X009940Y020083
X038940Y014083
X010940Y040083
X038940Y033083
X043940Y024083
X043940Y043083
X009940Y016083
X015940Y034083
X010940Y036083
X038940Y029083
X038940Y013083
X038940Y032083
X043940Y023083
X043940Y042083
X009940Y015083
X015940Y033083
X010940Y035083
X038940Y028083
X043940Y019083
X038940Y047083
X043940Y038083
X015940Y029083
X038940Y031083
X043940Y022083
X043940Y041083
X009940Y014083
X015940Y032083
X010940Y034083
X038940Y027083
X043940Y018083
X038940Y046083
X043940Y037083
X015940Y028083
X015940Y047083
X043940Y040083
X015940Y031083
X010940Y033083
X038940Y026083
X043940Y017083
X038940Y045083
X043940Y036083
X015940Y027083
X010940Y029083
X014940Y019083
X043940Y020083
X015940Y046083
X010940Y032083
X038940Y025083
X043940Y016083
X038940Y044083
X043940Y035083
X015940Y026083
X010940Y028083
X014940Y018083
X015940Y045083
X010940Y047083
X010940Y031083
X014940Y021083
X038940Y024083
X043940Y015083
X038940Y043083
X043940Y034083
X015940Y025083
X010940Y027083
X014940Y017083
X015940Y044083
X010940Y046083
X014940Y020083
X038940Y023083
X043940Y014083
X038940Y042083
X043940Y033083
X015940Y024083
X010940Y026083
X014940Y016083
X038940Y019083
X015940Y043083
X010940Y045083
X038940Y038083
X043940Y029083
X038940Y022083
X043940Y013083
X038940Y041083
X043940Y032083
X015940Y023083
X010940Y025083
X014940Y015083
X038940Y018083
X015940Y042083
X010940Y044083
X038940Y037083
X043940Y028083
X043940Y047083
X038940Y040083
X015940Y038083
X043940Y031083
X015940Y022083
X010940Y024083
X014940Y014083
X038940Y017083
X015940Y041083
X010940Y043083
X038940Y036083
X043940Y027083
X043940Y046083
X009940Y019083
X038940Y020083
X015940Y037083
X010940Y023083
X038940Y016083
X015940Y040083
X010940Y042083
T101
X050940Y030870
X050940Y042445
X007940Y024083
X007940Y032720
X007940Y034295
X050940Y025870
X050940Y037445
X050940Y030083
X050940Y031657
X007940Y027720
X007940Y029295
X007940Y040083
X050940Y025083
X007940Y033508
X050940Y026657
X007940Y035083
X050940Y040870
X007940Y028508
X050940Y032445
X050940Y035870
X050940Y027445
X050940Y040083
X050940Y041657
X007940Y037720
X007940Y039295
X007940Y021720
X007940Y023295
X050940Y035083
X050940Y036657
X007940Y030083
X007940Y038508
X007940Y022508
T102
X008940Y005083
X006185Y005083
X049563Y005083
X046806Y005083
X048185Y005083
X013563Y005083
X016806Y005083
X010806Y005083
X019563Y005083
X014940Y005083
X018185Y005083
X012185Y005083
X041080Y005161
X050940Y005083
X025563Y005083
X022806Y005083
X028806Y005083
X020940Y005083
X026940Y005083
X024185Y005083
X045214Y005161
X031563Y005083
X034806Y005083
X037563Y005083
X032940Y005083
X043836Y005161
X030185Y005083
X036185Y005083
X007563Y005083
X042458Y005161
X004806Y005083
X038940Y005083
T103
X027014Y033342
X022403Y011823
X026940Y046083
X025811Y019694
X024311Y035934
X026940Y038083
X025866Y029453
X026940Y044083
X025829Y031157
X018940Y018083
X016940Y018083
X026940Y015083
X019940Y018083
X017940Y018083
X021940Y042083
X025829Y020897
X024496Y031342
X025403Y009601
X025755Y043009
X026940Y023268
X021903Y014046
X022274Y035860
X025940Y040083
X025903Y011527
X025237Y030416
X024663Y014897
X023459Y030268
X022348Y030231
X025163Y044860
X025237Y035972
X027014Y027083
X024274Y043749
X022940Y042749
X023200Y035934
X022940Y014083
X020940Y014083
X025755Y049009
X023514Y015564
X023940Y014083
T00
M30
