G04 MADE WITH FRITZING*
G04 WWW.FRITZING.ORG*
G04 DOUBLE SIDED*
G04 HOLES PLATED*
G04 CONTOUR ON CENTER OF CONTOUR VECTOR*
%ASAXBY*%
%FSLAX23Y23*%
%MOIN*%
%OFA0B0*%
%SFA1.0B1.0*%
%ADD10C,0.080000*%
%ADD11C,0.057559*%
%ADD12C,0.086139*%
%ADD13C,0.049370*%
%ADD14R,0.072992X0.167480*%
%ADD15R,0.080000X0.080000*%
%ADD16R,0.001000X0.001000*%
%LNMASK0*%
G90*
G70*
G54D10*
X4394Y1308D03*
X3894Y1308D03*
X4394Y1408D03*
X3894Y1408D03*
X4394Y1508D03*
X3894Y1508D03*
X4394Y1608D03*
X3894Y1608D03*
X4394Y1708D03*
X3894Y1708D03*
X4394Y1808D03*
X3894Y1808D03*
X4394Y1908D03*
X3894Y1908D03*
X4394Y2008D03*
X3894Y2008D03*
X1094Y2908D03*
X1594Y2908D03*
X1094Y2808D03*
X1594Y2808D03*
X1094Y2708D03*
X1594Y2708D03*
X1094Y2608D03*
X1594Y2608D03*
X1094Y2508D03*
X1594Y2508D03*
X1094Y2408D03*
X1594Y2408D03*
X1094Y2308D03*
X1594Y2308D03*
X1094Y2208D03*
X1594Y2208D03*
X1094Y4708D03*
X1594Y4708D03*
X1094Y4608D03*
X1594Y4608D03*
X1094Y4508D03*
X1594Y4508D03*
X1094Y4408D03*
X1594Y4408D03*
X1094Y4308D03*
X1594Y4308D03*
X1094Y4208D03*
X1594Y4208D03*
X1094Y4108D03*
X1594Y4108D03*
X1094Y4008D03*
X1594Y4008D03*
X4394Y2208D03*
X3894Y2208D03*
X4394Y2308D03*
X3894Y2308D03*
X4394Y2408D03*
X3894Y2408D03*
X4394Y2508D03*
X3894Y2508D03*
X4394Y2608D03*
X3894Y2608D03*
X4394Y2708D03*
X3894Y2708D03*
X4394Y2808D03*
X3894Y2808D03*
X4394Y2908D03*
X3894Y2908D03*
X994Y2108D03*
X1494Y2108D03*
X994Y2008D03*
X1494Y2008D03*
X994Y1908D03*
X1494Y1908D03*
X994Y1808D03*
X1494Y1808D03*
X994Y1708D03*
X1494Y1708D03*
X994Y1608D03*
X1494Y1608D03*
X994Y1508D03*
X1494Y1508D03*
X994Y1408D03*
X1494Y1408D03*
X4394Y3108D03*
X3894Y3108D03*
X4394Y3208D03*
X3894Y3208D03*
X4394Y3308D03*
X3894Y3308D03*
X4394Y3408D03*
X3894Y3408D03*
X4394Y3508D03*
X3894Y3508D03*
X4394Y3608D03*
X3894Y3608D03*
X4394Y3708D03*
X3894Y3708D03*
X4394Y3808D03*
X3894Y3808D03*
X1094Y3808D03*
X1594Y3808D03*
X1094Y3708D03*
X1594Y3708D03*
X1094Y3608D03*
X1594Y3608D03*
X1094Y3508D03*
X1594Y3508D03*
X1094Y3408D03*
X1594Y3408D03*
X1094Y3308D03*
X1594Y3308D03*
X1094Y3208D03*
X1594Y3208D03*
X1094Y3108D03*
X1594Y3108D03*
X4394Y4008D03*
X3894Y4008D03*
X4394Y4108D03*
X3894Y4108D03*
X4394Y4208D03*
X3894Y4208D03*
X4394Y4308D03*
X3894Y4308D03*
X4394Y4408D03*
X3894Y4408D03*
X4394Y4508D03*
X3894Y4508D03*
X4394Y4608D03*
X3894Y4608D03*
X4394Y4708D03*
X3894Y4708D03*
G54D11*
X794Y2408D03*
X794Y2330D03*
X794Y2251D03*
X794Y2172D03*
X794Y2408D03*
X794Y2330D03*
X794Y2251D03*
X794Y2172D03*
X794Y2408D03*
X794Y2330D03*
X794Y2251D03*
X794Y2172D03*
X5094Y3008D03*
X5094Y3087D03*
X5094Y3166D03*
X5094Y3245D03*
X5094Y3008D03*
X5094Y3087D03*
X5094Y3166D03*
X5094Y3245D03*
X5094Y3008D03*
X5094Y3087D03*
X5094Y3166D03*
X5094Y3245D03*
X5094Y2508D03*
X5094Y2587D03*
X5094Y2666D03*
X5094Y2745D03*
X5094Y2508D03*
X5094Y2587D03*
X5094Y2666D03*
X5094Y2745D03*
X5094Y2508D03*
X5094Y2587D03*
X5094Y2666D03*
X5094Y2745D03*
X794Y3008D03*
X794Y2930D03*
X794Y2851D03*
X794Y2772D03*
X794Y3008D03*
X794Y2930D03*
X794Y2851D03*
X794Y2772D03*
X794Y3008D03*
X794Y2930D03*
X794Y2851D03*
X794Y2772D03*
X794Y3508D03*
X794Y3430D03*
X794Y3351D03*
X794Y3272D03*
X794Y3508D03*
X794Y3430D03*
X794Y3351D03*
X794Y3272D03*
X794Y3508D03*
X794Y3430D03*
X794Y3351D03*
X794Y3272D03*
X794Y4008D03*
X794Y3930D03*
X794Y3851D03*
X794Y3772D03*
X794Y4008D03*
X794Y3930D03*
X794Y3851D03*
X794Y3772D03*
X794Y4008D03*
X794Y3930D03*
X794Y3851D03*
X794Y3772D03*
X5094Y3508D03*
X5094Y3587D03*
X5094Y3666D03*
X5094Y3745D03*
X5094Y3508D03*
X5094Y3587D03*
X5094Y3666D03*
X5094Y3745D03*
X5094Y3508D03*
X5094Y3587D03*
X5094Y3666D03*
X5094Y3745D03*
X5094Y4008D03*
X5094Y4087D03*
X5094Y4166D03*
X5094Y4245D03*
X5094Y4008D03*
X5094Y4087D03*
X5094Y4166D03*
X5094Y4245D03*
X5094Y4008D03*
X5094Y4087D03*
X5094Y4166D03*
X5094Y4245D03*
G54D12*
X5094Y508D03*
X4956Y508D03*
X4819Y508D03*
X4681Y508D03*
X5094Y508D03*
X4956Y508D03*
X4819Y508D03*
X4681Y508D03*
X894Y508D03*
X756Y508D03*
X619Y508D03*
X481Y508D03*
X894Y508D03*
X756Y508D03*
X619Y508D03*
X481Y508D03*
X4521Y516D03*
X4384Y516D03*
X4246Y516D03*
X4108Y516D03*
X4521Y516D03*
X4384Y516D03*
X4246Y516D03*
X4108Y516D03*
X1494Y508D03*
X1356Y508D03*
X1219Y508D03*
X1081Y508D03*
X1494Y508D03*
X1356Y508D03*
X1219Y508D03*
X1081Y508D03*
X3894Y508D03*
X3756Y508D03*
X3619Y508D03*
X3481Y508D03*
X3894Y508D03*
X3756Y508D03*
X3619Y508D03*
X3481Y508D03*
X2094Y508D03*
X1956Y508D03*
X1819Y508D03*
X1681Y508D03*
X2094Y508D03*
X1956Y508D03*
X1819Y508D03*
X1681Y508D03*
X2694Y508D03*
X2556Y508D03*
X2419Y508D03*
X2281Y508D03*
X2694Y508D03*
X2556Y508D03*
X2419Y508D03*
X2281Y508D03*
X3294Y508D03*
X3156Y508D03*
X3019Y508D03*
X2881Y508D03*
X3294Y508D03*
X3156Y508D03*
X3019Y508D03*
X2881Y508D03*
G54D13*
X2576Y4901D03*
X2694Y3808D03*
X2594Y4008D03*
X2694Y4608D03*
X2583Y2090D03*
X2701Y2708D03*
X2694Y2327D03*
X2590Y1153D03*
X2694Y1508D03*
X2581Y1969D03*
X2576Y4301D03*
X2694Y4408D03*
X2587Y2945D03*
X2701Y3334D03*
X2583Y3116D03*
X1694Y1808D03*
X1794Y1808D03*
X1894Y1808D03*
X1994Y1808D03*
X2094Y1408D03*
X2190Y1405D03*
X2294Y1408D03*
X2394Y1408D03*
X2194Y4208D03*
X2294Y4275D03*
X2427Y4375D03*
X2516Y4486D03*
X2227Y3586D03*
X2320Y3593D03*
X2431Y3593D03*
X2524Y3597D03*
X2235Y3023D03*
X2346Y3027D03*
X2450Y3134D03*
X2524Y3042D03*
X2540Y960D03*
X2466Y1490D03*
X2351Y1556D03*
X2240Y1182D03*
G54D14*
X3094Y2068D03*
X3094Y2308D03*
G54D15*
X3894Y2008D03*
X3894Y1408D03*
X1594Y2208D03*
X1594Y2808D03*
X1594Y4008D03*
X1594Y4608D03*
X3894Y2908D03*
X3894Y2308D03*
X1494Y1408D03*
X1494Y2008D03*
X3894Y3808D03*
X3894Y3208D03*
X1594Y3108D03*
X1594Y3708D03*
X3894Y4708D03*
X3894Y4108D03*
G54D14*
X1894Y2948D03*
X1894Y2708D03*
X2194Y2248D03*
X2194Y2008D03*
X2994Y1168D03*
X2994Y1408D03*
X1994Y4048D03*
X1994Y3808D03*
X2094Y4848D03*
X2094Y4608D03*
X3294Y3068D03*
X3294Y3308D03*
X3394Y3968D03*
X3394Y4208D03*
G54D16*
X4476Y562D02*
X4565Y562D01*
X4476Y561D02*
X4565Y561D01*
X4476Y560D02*
X4565Y560D01*
X4476Y559D02*
X4565Y559D01*
X4476Y558D02*
X4565Y558D01*
X4476Y557D02*
X4565Y557D01*
X4476Y556D02*
X4565Y556D01*
X4476Y555D02*
X4565Y555D01*
X849Y554D02*
X938Y554D01*
X1449Y554D02*
X1538Y554D01*
X2049Y554D02*
X2138Y554D01*
X2649Y554D02*
X2738Y554D01*
X3249Y554D02*
X3338Y554D01*
X3849Y554D02*
X3938Y554D01*
X4476Y554D02*
X4565Y554D01*
X5049Y554D02*
X5138Y554D01*
X849Y553D02*
X938Y553D01*
X1449Y553D02*
X1538Y553D01*
X2049Y553D02*
X2138Y553D01*
X2649Y553D02*
X2738Y553D01*
X3249Y553D02*
X3338Y553D01*
X3849Y553D02*
X3938Y553D01*
X4476Y553D02*
X4565Y553D01*
X5049Y553D02*
X5138Y553D01*
X849Y552D02*
X938Y552D01*
X1449Y552D02*
X1538Y552D01*
X2049Y552D02*
X2138Y552D01*
X2649Y552D02*
X2738Y552D01*
X3249Y552D02*
X3338Y552D01*
X3849Y552D02*
X3938Y552D01*
X4476Y552D02*
X4565Y552D01*
X5049Y552D02*
X5138Y552D01*
X849Y551D02*
X938Y551D01*
X1449Y551D02*
X1538Y551D01*
X2049Y551D02*
X2138Y551D01*
X2649Y551D02*
X2738Y551D01*
X3249Y551D02*
X3338Y551D01*
X3849Y551D02*
X3938Y551D01*
X4476Y551D02*
X4565Y551D01*
X5049Y551D02*
X5138Y551D01*
X849Y550D02*
X938Y550D01*
X1449Y550D02*
X1538Y550D01*
X2049Y550D02*
X2138Y550D01*
X2649Y550D02*
X2738Y550D01*
X3249Y550D02*
X3338Y550D01*
X3849Y550D02*
X3938Y550D01*
X4476Y550D02*
X4565Y550D01*
X5049Y550D02*
X5138Y550D01*
X849Y549D02*
X938Y549D01*
X1449Y549D02*
X1538Y549D01*
X2049Y549D02*
X2138Y549D01*
X2649Y549D02*
X2738Y549D01*
X3249Y549D02*
X3338Y549D01*
X3849Y549D02*
X3938Y549D01*
X4476Y549D02*
X4565Y549D01*
X5049Y549D02*
X5138Y549D01*
X849Y548D02*
X938Y548D01*
X1449Y548D02*
X1538Y548D01*
X2049Y548D02*
X2138Y548D01*
X2649Y548D02*
X2738Y548D01*
X3249Y548D02*
X3338Y548D01*
X3849Y548D02*
X3938Y548D01*
X4476Y548D02*
X4565Y548D01*
X5049Y548D02*
X5138Y548D01*
X849Y547D02*
X938Y547D01*
X1449Y547D02*
X1538Y547D01*
X2049Y547D02*
X2138Y547D01*
X2649Y547D02*
X2738Y547D01*
X3249Y547D02*
X3338Y547D01*
X3849Y547D02*
X3938Y547D01*
X4476Y547D02*
X4565Y547D01*
X5049Y547D02*
X5138Y547D01*
X849Y546D02*
X938Y546D01*
X1449Y546D02*
X1538Y546D01*
X2049Y546D02*
X2138Y546D01*
X2649Y546D02*
X2738Y546D01*
X3249Y546D02*
X3338Y546D01*
X3849Y546D02*
X3938Y546D01*
X4476Y546D02*
X4565Y546D01*
X5049Y546D02*
X5138Y546D01*
X849Y545D02*
X938Y545D01*
X1449Y545D02*
X1538Y545D01*
X2049Y545D02*
X2138Y545D01*
X2649Y545D02*
X2738Y545D01*
X3249Y545D02*
X3338Y545D01*
X3849Y545D02*
X3938Y545D01*
X4476Y545D02*
X4565Y545D01*
X5049Y545D02*
X5138Y545D01*
X849Y544D02*
X938Y544D01*
X1449Y544D02*
X1538Y544D01*
X2049Y544D02*
X2138Y544D01*
X2649Y544D02*
X2738Y544D01*
X3249Y544D02*
X3338Y544D01*
X3849Y544D02*
X3938Y544D01*
X4476Y544D02*
X4565Y544D01*
X5049Y544D02*
X5138Y544D01*
X849Y543D02*
X938Y543D01*
X1449Y543D02*
X1538Y543D01*
X2049Y543D02*
X2138Y543D01*
X2649Y543D02*
X2738Y543D01*
X3249Y543D02*
X3338Y543D01*
X3849Y543D02*
X3938Y543D01*
X4476Y543D02*
X4565Y543D01*
X5049Y543D02*
X5138Y543D01*
X849Y542D02*
X938Y542D01*
X1449Y542D02*
X1538Y542D01*
X2049Y542D02*
X2138Y542D01*
X2649Y542D02*
X2738Y542D01*
X3249Y542D02*
X3338Y542D01*
X3849Y542D02*
X3938Y542D01*
X4476Y542D02*
X4565Y542D01*
X5049Y542D02*
X5138Y542D01*
X849Y541D02*
X938Y541D01*
X1449Y541D02*
X1538Y541D01*
X2049Y541D02*
X2138Y541D01*
X2649Y541D02*
X2738Y541D01*
X3249Y541D02*
X3338Y541D01*
X3849Y541D02*
X3938Y541D01*
X4476Y541D02*
X4565Y541D01*
X5049Y541D02*
X5138Y541D01*
X849Y540D02*
X938Y540D01*
X1449Y540D02*
X1538Y540D01*
X2049Y540D02*
X2138Y540D01*
X2649Y540D02*
X2738Y540D01*
X3249Y540D02*
X3338Y540D01*
X3849Y540D02*
X3938Y540D01*
X4476Y540D02*
X4565Y540D01*
X5049Y540D02*
X5138Y540D01*
X849Y539D02*
X938Y539D01*
X1449Y539D02*
X1538Y539D01*
X2049Y539D02*
X2138Y539D01*
X2649Y539D02*
X2738Y539D01*
X3249Y539D02*
X3338Y539D01*
X3849Y539D02*
X3938Y539D01*
X4476Y539D02*
X4565Y539D01*
X5049Y539D02*
X5138Y539D01*
X849Y538D02*
X938Y538D01*
X1449Y538D02*
X1538Y538D01*
X2049Y538D02*
X2138Y538D01*
X2649Y538D02*
X2738Y538D01*
X3249Y538D02*
X3338Y538D01*
X3849Y538D02*
X3938Y538D01*
X4476Y538D02*
X4565Y538D01*
X5049Y538D02*
X5138Y538D01*
X849Y537D02*
X938Y537D01*
X1449Y537D02*
X1538Y537D01*
X2049Y537D02*
X2138Y537D01*
X2649Y537D02*
X2738Y537D01*
X3249Y537D02*
X3338Y537D01*
X3849Y537D02*
X3938Y537D01*
X4476Y537D02*
X4565Y537D01*
X5049Y537D02*
X5138Y537D01*
X849Y536D02*
X938Y536D01*
X1449Y536D02*
X1538Y536D01*
X2049Y536D02*
X2138Y536D01*
X2649Y536D02*
X2738Y536D01*
X3249Y536D02*
X3338Y536D01*
X3849Y536D02*
X3938Y536D01*
X4476Y536D02*
X4518Y536D01*
X4524Y536D02*
X4565Y536D01*
X5049Y536D02*
X5138Y536D01*
X849Y535D02*
X938Y535D01*
X1449Y535D02*
X1538Y535D01*
X2049Y535D02*
X2138Y535D01*
X2649Y535D02*
X2738Y535D01*
X3249Y535D02*
X3338Y535D01*
X3849Y535D02*
X3938Y535D01*
X4476Y535D02*
X4514Y535D01*
X4528Y535D02*
X4565Y535D01*
X5049Y535D02*
X5138Y535D01*
X849Y534D02*
X938Y534D01*
X1449Y534D02*
X1538Y534D01*
X2049Y534D02*
X2138Y534D01*
X2649Y534D02*
X2738Y534D01*
X3249Y534D02*
X3338Y534D01*
X3849Y534D02*
X3938Y534D01*
X4476Y534D02*
X4512Y534D01*
X4530Y534D02*
X4565Y534D01*
X5049Y534D02*
X5138Y534D01*
X849Y533D02*
X938Y533D01*
X1449Y533D02*
X1538Y533D01*
X2049Y533D02*
X2138Y533D01*
X2649Y533D02*
X2738Y533D01*
X3249Y533D02*
X3338Y533D01*
X3849Y533D02*
X3938Y533D01*
X4476Y533D02*
X4510Y533D01*
X4532Y533D02*
X4565Y533D01*
X5049Y533D02*
X5138Y533D01*
X849Y532D02*
X938Y532D01*
X1449Y532D02*
X1538Y532D01*
X2049Y532D02*
X2138Y532D01*
X2649Y532D02*
X2738Y532D01*
X3249Y532D02*
X3338Y532D01*
X3849Y532D02*
X3938Y532D01*
X4476Y532D02*
X4509Y532D01*
X4533Y532D02*
X4565Y532D01*
X5049Y532D02*
X5138Y532D01*
X849Y531D02*
X938Y531D01*
X1449Y531D02*
X1538Y531D01*
X2049Y531D02*
X2138Y531D01*
X2649Y531D02*
X2738Y531D01*
X3249Y531D02*
X3338Y531D01*
X3849Y531D02*
X3938Y531D01*
X4476Y531D02*
X4507Y531D01*
X4534Y531D02*
X4565Y531D01*
X5049Y531D02*
X5138Y531D01*
X849Y530D02*
X938Y530D01*
X1449Y530D02*
X1538Y530D01*
X2049Y530D02*
X2138Y530D01*
X2649Y530D02*
X2738Y530D01*
X3249Y530D02*
X3338Y530D01*
X3849Y530D02*
X3938Y530D01*
X4476Y530D02*
X4507Y530D01*
X4535Y530D02*
X4565Y530D01*
X5049Y530D02*
X5138Y530D01*
X849Y529D02*
X938Y529D01*
X1449Y529D02*
X1538Y529D01*
X2049Y529D02*
X2138Y529D01*
X2649Y529D02*
X2738Y529D01*
X3249Y529D02*
X3338Y529D01*
X3849Y529D02*
X3938Y529D01*
X4476Y529D02*
X4506Y529D01*
X4536Y529D02*
X4565Y529D01*
X5049Y529D02*
X5138Y529D01*
X849Y528D02*
X889Y528D01*
X898Y528D02*
X938Y528D01*
X1449Y528D02*
X1489Y528D01*
X1498Y528D02*
X1538Y528D01*
X2049Y528D02*
X2089Y528D01*
X2098Y528D02*
X2138Y528D01*
X2649Y528D02*
X2689Y528D01*
X2698Y528D02*
X2738Y528D01*
X3249Y528D02*
X3289Y528D01*
X3298Y528D02*
X3338Y528D01*
X3849Y528D02*
X3889Y528D01*
X3898Y528D02*
X3938Y528D01*
X4476Y528D02*
X4505Y528D01*
X4537Y528D02*
X4565Y528D01*
X5049Y528D02*
X5089Y528D01*
X5098Y528D02*
X5138Y528D01*
X849Y527D02*
X886Y527D01*
X901Y527D02*
X938Y527D01*
X1449Y527D02*
X1486Y527D01*
X1501Y527D02*
X1538Y527D01*
X2049Y527D02*
X2086Y527D01*
X2101Y527D02*
X2138Y527D01*
X2649Y527D02*
X2686Y527D01*
X2701Y527D02*
X2738Y527D01*
X3249Y527D02*
X3286Y527D01*
X3301Y527D02*
X3338Y527D01*
X3849Y527D02*
X3886Y527D01*
X3901Y527D02*
X3938Y527D01*
X4476Y527D02*
X4504Y527D01*
X4537Y527D02*
X4565Y527D01*
X5049Y527D02*
X5086Y527D01*
X5101Y527D02*
X5138Y527D01*
X849Y526D02*
X884Y526D01*
X903Y526D02*
X938Y526D01*
X1449Y526D02*
X1484Y526D01*
X1503Y526D02*
X1538Y526D01*
X2049Y526D02*
X2084Y526D01*
X2103Y526D02*
X2138Y526D01*
X2649Y526D02*
X2684Y526D01*
X2703Y526D02*
X2738Y526D01*
X3249Y526D02*
X3284Y526D01*
X3303Y526D02*
X3338Y526D01*
X3849Y526D02*
X3884Y526D01*
X3903Y526D02*
X3938Y526D01*
X4476Y526D02*
X4504Y526D01*
X4538Y526D02*
X4565Y526D01*
X5049Y526D02*
X5084Y526D01*
X5103Y526D02*
X5138Y526D01*
X849Y525D02*
X882Y525D01*
X905Y525D02*
X938Y525D01*
X1449Y525D02*
X1482Y525D01*
X1505Y525D02*
X1538Y525D01*
X2049Y525D02*
X2082Y525D01*
X2105Y525D02*
X2138Y525D01*
X2649Y525D02*
X2682Y525D01*
X2705Y525D02*
X2738Y525D01*
X3249Y525D02*
X3282Y525D01*
X3305Y525D02*
X3338Y525D01*
X3849Y525D02*
X3882Y525D01*
X3905Y525D02*
X3938Y525D01*
X4476Y525D02*
X4503Y525D01*
X4539Y525D02*
X4565Y525D01*
X5049Y525D02*
X5082Y525D01*
X5105Y525D02*
X5138Y525D01*
X849Y524D02*
X881Y524D01*
X906Y524D02*
X938Y524D01*
X1449Y524D02*
X1481Y524D01*
X1506Y524D02*
X1538Y524D01*
X2049Y524D02*
X2081Y524D01*
X2106Y524D02*
X2138Y524D01*
X2649Y524D02*
X2681Y524D01*
X2706Y524D02*
X2738Y524D01*
X3249Y524D02*
X3281Y524D01*
X3306Y524D02*
X3338Y524D01*
X3849Y524D02*
X3881Y524D01*
X3906Y524D02*
X3938Y524D01*
X4476Y524D02*
X4503Y524D01*
X4539Y524D02*
X4565Y524D01*
X5049Y524D02*
X5081Y524D01*
X5106Y524D02*
X5138Y524D01*
X849Y523D02*
X880Y523D01*
X907Y523D02*
X938Y523D01*
X1449Y523D02*
X1480Y523D01*
X1507Y523D02*
X1538Y523D01*
X2049Y523D02*
X2080Y523D01*
X2107Y523D02*
X2138Y523D01*
X2649Y523D02*
X2680Y523D01*
X2707Y523D02*
X2738Y523D01*
X3249Y523D02*
X3280Y523D01*
X3307Y523D02*
X3338Y523D01*
X3849Y523D02*
X3880Y523D01*
X3907Y523D02*
X3938Y523D01*
X4476Y523D02*
X4503Y523D01*
X4539Y523D02*
X4565Y523D01*
X5049Y523D02*
X5080Y523D01*
X5107Y523D02*
X5138Y523D01*
X849Y522D02*
X879Y522D01*
X908Y522D02*
X938Y522D01*
X1449Y522D02*
X1479Y522D01*
X1508Y522D02*
X1538Y522D01*
X2049Y522D02*
X2079Y522D01*
X2108Y522D02*
X2138Y522D01*
X2649Y522D02*
X2679Y522D01*
X2708Y522D02*
X2738Y522D01*
X3249Y522D02*
X3279Y522D01*
X3308Y522D02*
X3338Y522D01*
X3849Y522D02*
X3879Y522D01*
X3908Y522D02*
X3938Y522D01*
X4476Y522D02*
X4502Y522D01*
X4539Y522D02*
X4565Y522D01*
X5049Y522D02*
X5079Y522D01*
X5108Y522D02*
X5138Y522D01*
X849Y521D02*
X878Y521D01*
X909Y521D02*
X938Y521D01*
X1449Y521D02*
X1478Y521D01*
X1509Y521D02*
X1538Y521D01*
X2049Y521D02*
X2078Y521D01*
X2109Y521D02*
X2138Y521D01*
X2649Y521D02*
X2678Y521D01*
X2709Y521D02*
X2738Y521D01*
X3249Y521D02*
X3278Y521D01*
X3309Y521D02*
X3338Y521D01*
X3849Y521D02*
X3878Y521D01*
X3909Y521D02*
X3938Y521D01*
X4476Y521D02*
X4502Y521D01*
X4540Y521D02*
X4565Y521D01*
X5049Y521D02*
X5078Y521D01*
X5109Y521D02*
X5138Y521D01*
X849Y520D02*
X878Y520D01*
X910Y520D02*
X938Y520D01*
X1449Y520D02*
X1477Y520D01*
X1510Y520D02*
X1538Y520D01*
X2049Y520D02*
X2077Y520D01*
X2110Y520D02*
X2138Y520D01*
X2649Y520D02*
X2677Y520D01*
X2710Y520D02*
X2738Y520D01*
X3249Y520D02*
X3277Y520D01*
X3310Y520D02*
X3338Y520D01*
X3849Y520D02*
X3877Y520D01*
X3910Y520D02*
X3938Y520D01*
X4476Y520D02*
X4502Y520D01*
X4540Y520D02*
X4565Y520D01*
X5049Y520D02*
X5077Y520D01*
X5110Y520D02*
X5138Y520D01*
X849Y519D02*
X877Y519D01*
X910Y519D02*
X938Y519D01*
X1449Y519D02*
X1477Y519D01*
X1510Y519D02*
X1538Y519D01*
X2049Y519D02*
X2077Y519D01*
X2110Y519D02*
X2138Y519D01*
X2649Y519D02*
X2677Y519D01*
X2710Y519D02*
X2738Y519D01*
X3249Y519D02*
X3277Y519D01*
X3310Y519D02*
X3338Y519D01*
X3849Y519D02*
X3877Y519D01*
X3910Y519D02*
X3938Y519D01*
X4476Y519D02*
X4502Y519D01*
X4540Y519D02*
X4565Y519D01*
X5049Y519D02*
X5077Y519D01*
X5110Y519D02*
X5138Y519D01*
X849Y518D02*
X876Y518D01*
X911Y518D02*
X938Y518D01*
X1449Y518D02*
X1476Y518D01*
X1511Y518D02*
X1538Y518D01*
X2049Y518D02*
X2076Y518D01*
X2111Y518D02*
X2138Y518D01*
X2649Y518D02*
X2676Y518D01*
X2711Y518D02*
X2738Y518D01*
X3249Y518D02*
X3276Y518D01*
X3311Y518D02*
X3338Y518D01*
X3849Y518D02*
X3876Y518D01*
X3911Y518D02*
X3938Y518D01*
X4476Y518D02*
X4502Y518D01*
X4540Y518D02*
X4565Y518D01*
X5049Y518D02*
X5076Y518D01*
X5111Y518D02*
X5138Y518D01*
X849Y517D02*
X876Y517D01*
X911Y517D02*
X938Y517D01*
X1449Y517D02*
X1476Y517D01*
X1511Y517D02*
X1538Y517D01*
X2049Y517D02*
X2076Y517D01*
X2111Y517D02*
X2138Y517D01*
X2649Y517D02*
X2676Y517D01*
X2711Y517D02*
X2738Y517D01*
X3249Y517D02*
X3276Y517D01*
X3311Y517D02*
X3338Y517D01*
X3849Y517D02*
X3876Y517D01*
X3911Y517D02*
X3938Y517D01*
X4476Y517D02*
X4502Y517D01*
X4540Y517D02*
X4565Y517D01*
X5049Y517D02*
X5076Y517D01*
X5111Y517D02*
X5138Y517D01*
X849Y516D02*
X876Y516D01*
X912Y516D02*
X938Y516D01*
X1449Y516D02*
X1476Y516D01*
X1512Y516D02*
X1538Y516D01*
X2049Y516D02*
X2075Y516D01*
X2112Y516D02*
X2138Y516D01*
X2649Y516D02*
X2675Y516D01*
X2712Y516D02*
X2738Y516D01*
X3249Y516D02*
X3275Y516D01*
X3312Y516D02*
X3338Y516D01*
X3849Y516D02*
X3875Y516D01*
X3912Y516D02*
X3938Y516D01*
X4476Y516D02*
X4502Y516D01*
X4540Y516D02*
X4565Y516D01*
X5049Y516D02*
X5075Y516D01*
X5112Y516D02*
X5138Y516D01*
X849Y515D02*
X875Y515D01*
X912Y515D02*
X938Y515D01*
X1449Y515D02*
X1475Y515D01*
X1512Y515D02*
X1538Y515D01*
X2049Y515D02*
X2075Y515D01*
X2112Y515D02*
X2138Y515D01*
X2649Y515D02*
X2675Y515D01*
X2712Y515D02*
X2738Y515D01*
X3249Y515D02*
X3275Y515D01*
X3312Y515D02*
X3338Y515D01*
X3849Y515D02*
X3875Y515D01*
X3912Y515D02*
X3938Y515D01*
X4476Y515D02*
X4502Y515D01*
X4540Y515D02*
X4565Y515D01*
X5049Y515D02*
X5075Y515D01*
X5112Y515D02*
X5138Y515D01*
X849Y514D02*
X875Y514D01*
X912Y514D02*
X938Y514D01*
X1449Y514D02*
X1475Y514D01*
X1512Y514D02*
X1538Y514D01*
X2049Y514D02*
X2075Y514D01*
X2112Y514D02*
X2138Y514D01*
X2649Y514D02*
X2675Y514D01*
X2712Y514D02*
X2738Y514D01*
X3249Y514D02*
X3275Y514D01*
X3312Y514D02*
X3338Y514D01*
X3849Y514D02*
X3875Y514D01*
X3912Y514D02*
X3938Y514D01*
X4476Y514D02*
X4502Y514D01*
X4540Y514D02*
X4565Y514D01*
X5049Y514D02*
X5075Y514D01*
X5112Y514D02*
X5138Y514D01*
X849Y513D02*
X875Y513D01*
X912Y513D02*
X938Y513D01*
X1449Y513D02*
X1475Y513D01*
X1512Y513D02*
X1538Y513D01*
X2049Y513D02*
X2075Y513D01*
X2112Y513D02*
X2138Y513D01*
X2649Y513D02*
X2675Y513D01*
X2712Y513D02*
X2738Y513D01*
X3249Y513D02*
X3275Y513D01*
X3312Y513D02*
X3338Y513D01*
X3849Y513D02*
X3875Y513D01*
X3912Y513D02*
X3938Y513D01*
X4476Y513D02*
X4502Y513D01*
X4539Y513D02*
X4565Y513D01*
X5049Y513D02*
X5075Y513D01*
X5112Y513D02*
X5138Y513D01*
X849Y512D02*
X875Y512D01*
X912Y512D02*
X938Y512D01*
X1449Y512D02*
X1475Y512D01*
X1512Y512D02*
X1538Y512D01*
X2049Y512D02*
X2075Y512D01*
X2112Y512D02*
X2138Y512D01*
X2649Y512D02*
X2675Y512D01*
X2712Y512D02*
X2738Y512D01*
X3249Y512D02*
X3275Y512D01*
X3312Y512D02*
X3338Y512D01*
X3849Y512D02*
X3875Y512D01*
X3912Y512D02*
X3938Y512D01*
X4476Y512D02*
X4503Y512D01*
X4539Y512D02*
X4565Y512D01*
X5049Y512D02*
X5075Y512D01*
X5112Y512D02*
X5138Y512D01*
X849Y511D02*
X875Y511D01*
X913Y511D02*
X938Y511D01*
X1449Y511D02*
X1475Y511D01*
X1513Y511D02*
X1538Y511D01*
X2049Y511D02*
X2075Y511D01*
X2113Y511D02*
X2138Y511D01*
X2649Y511D02*
X2675Y511D01*
X2713Y511D02*
X2738Y511D01*
X3249Y511D02*
X3275Y511D01*
X3313Y511D02*
X3338Y511D01*
X3849Y511D02*
X3875Y511D01*
X3913Y511D02*
X3938Y511D01*
X4476Y511D02*
X4503Y511D01*
X4539Y511D02*
X4565Y511D01*
X5049Y511D02*
X5074Y511D01*
X5112Y511D02*
X5138Y511D01*
X849Y510D02*
X874Y510D01*
X913Y510D02*
X938Y510D01*
X1449Y510D02*
X1474Y510D01*
X1513Y510D02*
X1538Y510D01*
X2049Y510D02*
X2074Y510D01*
X2113Y510D02*
X2138Y510D01*
X2649Y510D02*
X2674Y510D01*
X2713Y510D02*
X2738Y510D01*
X3249Y510D02*
X3274Y510D01*
X3313Y510D02*
X3338Y510D01*
X3849Y510D02*
X3874Y510D01*
X3913Y510D02*
X3938Y510D01*
X4476Y510D02*
X4503Y510D01*
X4538Y510D02*
X4565Y510D01*
X5049Y510D02*
X5074Y510D01*
X5113Y510D02*
X5138Y510D01*
X849Y509D02*
X875Y509D01*
X913Y509D02*
X938Y509D01*
X1449Y509D02*
X1475Y509D01*
X1513Y509D02*
X1538Y509D01*
X2049Y509D02*
X2075Y509D01*
X2113Y509D02*
X2138Y509D01*
X2649Y509D02*
X2674Y509D01*
X2713Y509D02*
X2738Y509D01*
X3249Y509D02*
X3274Y509D01*
X3313Y509D02*
X3338Y509D01*
X3849Y509D02*
X3874Y509D01*
X3913Y509D02*
X3938Y509D01*
X4476Y509D02*
X4504Y509D01*
X4538Y509D02*
X4565Y509D01*
X5049Y509D02*
X5074Y509D01*
X5113Y509D02*
X5138Y509D01*
X849Y508D02*
X875Y508D01*
X913Y508D02*
X938Y508D01*
X1449Y508D02*
X1475Y508D01*
X1513Y508D02*
X1538Y508D01*
X2049Y508D02*
X2075Y508D01*
X2113Y508D02*
X2138Y508D01*
X2649Y508D02*
X2675Y508D01*
X2712Y508D02*
X2738Y508D01*
X3249Y508D02*
X3275Y508D01*
X3312Y508D02*
X3338Y508D01*
X3849Y508D02*
X3875Y508D01*
X3912Y508D02*
X3938Y508D01*
X4476Y508D02*
X4504Y508D01*
X4537Y508D02*
X4565Y508D01*
X5049Y508D02*
X5075Y508D01*
X5112Y508D02*
X5138Y508D01*
X849Y507D02*
X875Y507D01*
X912Y507D02*
X938Y507D01*
X1449Y507D02*
X1475Y507D01*
X1512Y507D02*
X1538Y507D01*
X2049Y507D02*
X2075Y507D01*
X2112Y507D02*
X2138Y507D01*
X2649Y507D02*
X2675Y507D01*
X2712Y507D02*
X2738Y507D01*
X3249Y507D02*
X3275Y507D01*
X3312Y507D02*
X3338Y507D01*
X3849Y507D02*
X3875Y507D01*
X3912Y507D02*
X3938Y507D01*
X4476Y507D02*
X4505Y507D01*
X4537Y507D02*
X4565Y507D01*
X5049Y507D02*
X5075Y507D01*
X5112Y507D02*
X5138Y507D01*
X849Y506D02*
X875Y506D01*
X912Y506D02*
X938Y506D01*
X1449Y506D02*
X1475Y506D01*
X1512Y506D02*
X1538Y506D01*
X2049Y506D02*
X2075Y506D01*
X2112Y506D02*
X2138Y506D01*
X2649Y506D02*
X2675Y506D01*
X2712Y506D02*
X2738Y506D01*
X3249Y506D02*
X3275Y506D01*
X3312Y506D02*
X3338Y506D01*
X3849Y506D02*
X3875Y506D01*
X3912Y506D02*
X3938Y506D01*
X4476Y506D02*
X4506Y506D01*
X4536Y506D02*
X4565Y506D01*
X5049Y506D02*
X5075Y506D01*
X5112Y506D02*
X5138Y506D01*
X849Y505D02*
X875Y505D01*
X912Y505D02*
X938Y505D01*
X1449Y505D02*
X1475Y505D01*
X1512Y505D02*
X1538Y505D01*
X2049Y505D02*
X2075Y505D01*
X2112Y505D02*
X2138Y505D01*
X2649Y505D02*
X2675Y505D01*
X2712Y505D02*
X2738Y505D01*
X3249Y505D02*
X3275Y505D01*
X3312Y505D02*
X3338Y505D01*
X3849Y505D02*
X3875Y505D01*
X3912Y505D02*
X3938Y505D01*
X4476Y505D02*
X4507Y505D01*
X4535Y505D02*
X4565Y505D01*
X5049Y505D02*
X5075Y505D01*
X5112Y505D02*
X5138Y505D01*
X849Y504D02*
X875Y504D01*
X912Y504D02*
X938Y504D01*
X1449Y504D02*
X1475Y504D01*
X1512Y504D02*
X1538Y504D01*
X2049Y504D02*
X2075Y504D01*
X2112Y504D02*
X2138Y504D01*
X2649Y504D02*
X2675Y504D01*
X2712Y504D02*
X2738Y504D01*
X3249Y504D02*
X3275Y504D01*
X3312Y504D02*
X3338Y504D01*
X3849Y504D02*
X3875Y504D01*
X3912Y504D02*
X3938Y504D01*
X4476Y504D02*
X4508Y504D01*
X4534Y504D02*
X4565Y504D01*
X5049Y504D02*
X5075Y504D01*
X5112Y504D02*
X5138Y504D01*
X849Y503D02*
X876Y503D01*
X911Y503D02*
X938Y503D01*
X1449Y503D02*
X1476Y503D01*
X1511Y503D02*
X1538Y503D01*
X2049Y503D02*
X2076Y503D01*
X2111Y503D02*
X2138Y503D01*
X2649Y503D02*
X2676Y503D01*
X2711Y503D02*
X2738Y503D01*
X3249Y503D02*
X3276Y503D01*
X3311Y503D02*
X3338Y503D01*
X3849Y503D02*
X3876Y503D01*
X3911Y503D02*
X3938Y503D01*
X4476Y503D02*
X4509Y503D01*
X4533Y503D02*
X4565Y503D01*
X5049Y503D02*
X5076Y503D01*
X5111Y503D02*
X5138Y503D01*
X849Y502D02*
X876Y502D01*
X911Y502D02*
X938Y502D01*
X1449Y502D02*
X1476Y502D01*
X1511Y502D02*
X1538Y502D01*
X2049Y502D02*
X2076Y502D01*
X2111Y502D02*
X2138Y502D01*
X2649Y502D02*
X2676Y502D01*
X2711Y502D02*
X2738Y502D01*
X3249Y502D02*
X3276Y502D01*
X3311Y502D02*
X3338Y502D01*
X3849Y502D02*
X3876Y502D01*
X3911Y502D02*
X3938Y502D01*
X4476Y502D02*
X4510Y502D01*
X4532Y502D02*
X4565Y502D01*
X5049Y502D02*
X5076Y502D01*
X5111Y502D02*
X5138Y502D01*
X849Y501D02*
X877Y501D01*
X911Y501D02*
X938Y501D01*
X1449Y501D02*
X1477Y501D01*
X1510Y501D02*
X1538Y501D01*
X2049Y501D02*
X2077Y501D01*
X2110Y501D02*
X2138Y501D01*
X2649Y501D02*
X2677Y501D01*
X2710Y501D02*
X2738Y501D01*
X3249Y501D02*
X3277Y501D01*
X3310Y501D02*
X3338Y501D01*
X3849Y501D02*
X3877Y501D01*
X3910Y501D02*
X3938Y501D01*
X4476Y501D02*
X4512Y501D01*
X4530Y501D02*
X4565Y501D01*
X5049Y501D02*
X5077Y501D01*
X5110Y501D02*
X5138Y501D01*
X849Y500D02*
X877Y500D01*
X910Y500D02*
X938Y500D01*
X1449Y500D02*
X1477Y500D01*
X1510Y500D02*
X1538Y500D01*
X2049Y500D02*
X2077Y500D01*
X2110Y500D02*
X2138Y500D01*
X2649Y500D02*
X2677Y500D01*
X2710Y500D02*
X2738Y500D01*
X3249Y500D02*
X3277Y500D01*
X3310Y500D02*
X3338Y500D01*
X3849Y500D02*
X3877Y500D01*
X3910Y500D02*
X3938Y500D01*
X4476Y500D02*
X4514Y500D01*
X4527Y500D02*
X4565Y500D01*
X5049Y500D02*
X5077Y500D01*
X5110Y500D02*
X5138Y500D01*
X849Y499D02*
X878Y499D01*
X909Y499D02*
X938Y499D01*
X1449Y499D02*
X1478Y499D01*
X1509Y499D02*
X1538Y499D01*
X2049Y499D02*
X2078Y499D01*
X2109Y499D02*
X2138Y499D01*
X2649Y499D02*
X2678Y499D01*
X2709Y499D02*
X2738Y499D01*
X3249Y499D02*
X3278Y499D01*
X3309Y499D02*
X3338Y499D01*
X3849Y499D02*
X3878Y499D01*
X3909Y499D02*
X3938Y499D01*
X4476Y499D02*
X4565Y499D01*
X5049Y499D02*
X5078Y499D01*
X5109Y499D02*
X5138Y499D01*
X849Y498D02*
X879Y498D01*
X908Y498D02*
X938Y498D01*
X1449Y498D02*
X1479Y498D01*
X1508Y498D02*
X1538Y498D01*
X2049Y498D02*
X2079Y498D01*
X2108Y498D02*
X2138Y498D01*
X2649Y498D02*
X2679Y498D01*
X2708Y498D02*
X2738Y498D01*
X3249Y498D02*
X3279Y498D01*
X3308Y498D02*
X3338Y498D01*
X3849Y498D02*
X3879Y498D01*
X3908Y498D02*
X3938Y498D01*
X4476Y498D02*
X4565Y498D01*
X5049Y498D02*
X5079Y498D01*
X5108Y498D02*
X5138Y498D01*
X849Y497D02*
X880Y497D01*
X908Y497D02*
X938Y497D01*
X1449Y497D02*
X1480Y497D01*
X1508Y497D02*
X1538Y497D01*
X2049Y497D02*
X2080Y497D01*
X2108Y497D02*
X2138Y497D01*
X2649Y497D02*
X2680Y497D01*
X2708Y497D02*
X2738Y497D01*
X3249Y497D02*
X3280Y497D01*
X3308Y497D02*
X3338Y497D01*
X3849Y497D02*
X3880Y497D01*
X3908Y497D02*
X3938Y497D01*
X4476Y497D02*
X4565Y497D01*
X5049Y497D02*
X5079Y497D01*
X5107Y497D02*
X5138Y497D01*
X849Y496D02*
X881Y496D01*
X907Y496D02*
X938Y496D01*
X1449Y496D02*
X1481Y496D01*
X1507Y496D02*
X1538Y496D01*
X2049Y496D02*
X2081Y496D01*
X2107Y496D02*
X2138Y496D01*
X2649Y496D02*
X2681Y496D01*
X2706Y496D02*
X2738Y496D01*
X3249Y496D02*
X3281Y496D01*
X3306Y496D02*
X3338Y496D01*
X3849Y496D02*
X3881Y496D01*
X3906Y496D02*
X3938Y496D01*
X4476Y496D02*
X4565Y496D01*
X5049Y496D02*
X5081Y496D01*
X5106Y496D02*
X5138Y496D01*
X849Y495D02*
X882Y495D01*
X905Y495D02*
X938Y495D01*
X1449Y495D02*
X1482Y495D01*
X1505Y495D02*
X1538Y495D01*
X2049Y495D02*
X2082Y495D01*
X2105Y495D02*
X2138Y495D01*
X2649Y495D02*
X2682Y495D01*
X2705Y495D02*
X2738Y495D01*
X3249Y495D02*
X3282Y495D01*
X3305Y495D02*
X3338Y495D01*
X3849Y495D02*
X3882Y495D01*
X3905Y495D02*
X3938Y495D01*
X4476Y495D02*
X4565Y495D01*
X5049Y495D02*
X5082Y495D01*
X5105Y495D02*
X5138Y495D01*
X849Y494D02*
X883Y494D01*
X904Y494D02*
X938Y494D01*
X1449Y494D02*
X1483Y494D01*
X1504Y494D02*
X1538Y494D01*
X2049Y494D02*
X2083Y494D01*
X2104Y494D02*
X2138Y494D01*
X2649Y494D02*
X2683Y494D01*
X2704Y494D02*
X2738Y494D01*
X3249Y494D02*
X3283Y494D01*
X3304Y494D02*
X3338Y494D01*
X3849Y494D02*
X3883Y494D01*
X3904Y494D02*
X3938Y494D01*
X4476Y494D02*
X4565Y494D01*
X5049Y494D02*
X5083Y494D01*
X5104Y494D02*
X5138Y494D01*
X849Y493D02*
X885Y493D01*
X902Y493D02*
X938Y493D01*
X1449Y493D02*
X1485Y493D01*
X1502Y493D02*
X1538Y493D01*
X2049Y493D02*
X2085Y493D01*
X2102Y493D02*
X2138Y493D01*
X2649Y493D02*
X2685Y493D01*
X2702Y493D02*
X2738Y493D01*
X3249Y493D02*
X3285Y493D01*
X3302Y493D02*
X3338Y493D01*
X3849Y493D02*
X3885Y493D01*
X3902Y493D02*
X3938Y493D01*
X4476Y493D02*
X4565Y493D01*
X5049Y493D02*
X5085Y493D01*
X5102Y493D02*
X5138Y493D01*
X849Y492D02*
X887Y492D01*
X900Y492D02*
X938Y492D01*
X1449Y492D02*
X1487Y492D01*
X1500Y492D02*
X1538Y492D01*
X2049Y492D02*
X2087Y492D01*
X2100Y492D02*
X2138Y492D01*
X2649Y492D02*
X2687Y492D01*
X2700Y492D02*
X2738Y492D01*
X3249Y492D02*
X3287Y492D01*
X3300Y492D02*
X3338Y492D01*
X3849Y492D02*
X3887Y492D01*
X3900Y492D02*
X3938Y492D01*
X4476Y492D02*
X4565Y492D01*
X5049Y492D02*
X5087Y492D01*
X5100Y492D02*
X5138Y492D01*
X849Y491D02*
X938Y491D01*
X1449Y491D02*
X1538Y491D01*
X2049Y491D02*
X2138Y491D01*
X2649Y491D02*
X2738Y491D01*
X3249Y491D02*
X3338Y491D01*
X3849Y491D02*
X3938Y491D01*
X4476Y491D02*
X4565Y491D01*
X5049Y491D02*
X5138Y491D01*
X849Y490D02*
X938Y490D01*
X1449Y490D02*
X1538Y490D01*
X2049Y490D02*
X2138Y490D01*
X2649Y490D02*
X2738Y490D01*
X3249Y490D02*
X3338Y490D01*
X3849Y490D02*
X3938Y490D01*
X4476Y490D02*
X4565Y490D01*
X5049Y490D02*
X5138Y490D01*
X849Y489D02*
X938Y489D01*
X1449Y489D02*
X1538Y489D01*
X2049Y489D02*
X2138Y489D01*
X2649Y489D02*
X2738Y489D01*
X3249Y489D02*
X3338Y489D01*
X3849Y489D02*
X3938Y489D01*
X4476Y489D02*
X4565Y489D01*
X5049Y489D02*
X5138Y489D01*
X849Y488D02*
X938Y488D01*
X1449Y488D02*
X1538Y488D01*
X2049Y488D02*
X2138Y488D01*
X2649Y488D02*
X2738Y488D01*
X3249Y488D02*
X3338Y488D01*
X3849Y488D02*
X3938Y488D01*
X4476Y488D02*
X4565Y488D01*
X5049Y488D02*
X5138Y488D01*
X849Y487D02*
X938Y487D01*
X1449Y487D02*
X1538Y487D01*
X2049Y487D02*
X2138Y487D01*
X2649Y487D02*
X2738Y487D01*
X3249Y487D02*
X3338Y487D01*
X3849Y487D02*
X3938Y487D01*
X4476Y487D02*
X4565Y487D01*
X5049Y487D02*
X5138Y487D01*
X849Y486D02*
X938Y486D01*
X1449Y486D02*
X1538Y486D01*
X2049Y486D02*
X2138Y486D01*
X2649Y486D02*
X2738Y486D01*
X3249Y486D02*
X3338Y486D01*
X3849Y486D02*
X3938Y486D01*
X4476Y486D02*
X4565Y486D01*
X5049Y486D02*
X5138Y486D01*
X849Y485D02*
X938Y485D01*
X1449Y485D02*
X1538Y485D01*
X2049Y485D02*
X2138Y485D01*
X2649Y485D02*
X2738Y485D01*
X3249Y485D02*
X3338Y485D01*
X3849Y485D02*
X3938Y485D01*
X4476Y485D02*
X4565Y485D01*
X5049Y485D02*
X5138Y485D01*
X849Y484D02*
X938Y484D01*
X1449Y484D02*
X1538Y484D01*
X2049Y484D02*
X2138Y484D01*
X2649Y484D02*
X2738Y484D01*
X3249Y484D02*
X3338Y484D01*
X3849Y484D02*
X3938Y484D01*
X4476Y484D02*
X4565Y484D01*
X5049Y484D02*
X5138Y484D01*
X849Y483D02*
X938Y483D01*
X1449Y483D02*
X1538Y483D01*
X2049Y483D02*
X2138Y483D01*
X2649Y483D02*
X2738Y483D01*
X3249Y483D02*
X3338Y483D01*
X3849Y483D02*
X3938Y483D01*
X4476Y483D02*
X4565Y483D01*
X5049Y483D02*
X5138Y483D01*
X849Y482D02*
X938Y482D01*
X1449Y482D02*
X1538Y482D01*
X2049Y482D02*
X2138Y482D01*
X2649Y482D02*
X2738Y482D01*
X3249Y482D02*
X3338Y482D01*
X3849Y482D02*
X3938Y482D01*
X4476Y482D02*
X4565Y482D01*
X5049Y482D02*
X5138Y482D01*
X849Y481D02*
X938Y481D01*
X1449Y481D02*
X1538Y481D01*
X2049Y481D02*
X2138Y481D01*
X2649Y481D02*
X2738Y481D01*
X3249Y481D02*
X3338Y481D01*
X3849Y481D02*
X3938Y481D01*
X4476Y481D02*
X4565Y481D01*
X5049Y481D02*
X5138Y481D01*
X849Y480D02*
X938Y480D01*
X1449Y480D02*
X1538Y480D01*
X2049Y480D02*
X2138Y480D01*
X2649Y480D02*
X2738Y480D01*
X3249Y480D02*
X3338Y480D01*
X3849Y480D02*
X3938Y480D01*
X4476Y480D02*
X4565Y480D01*
X5049Y480D02*
X5138Y480D01*
X849Y479D02*
X938Y479D01*
X1449Y479D02*
X1538Y479D01*
X2049Y479D02*
X2138Y479D01*
X2649Y479D02*
X2738Y479D01*
X3249Y479D02*
X3338Y479D01*
X3849Y479D02*
X3938Y479D01*
X4476Y479D02*
X4565Y479D01*
X5049Y479D02*
X5138Y479D01*
X849Y478D02*
X938Y478D01*
X1449Y478D02*
X1538Y478D01*
X2049Y478D02*
X2138Y478D01*
X2649Y478D02*
X2738Y478D01*
X3249Y478D02*
X3338Y478D01*
X3849Y478D02*
X3938Y478D01*
X4476Y478D02*
X4565Y478D01*
X5049Y478D02*
X5138Y478D01*
X849Y477D02*
X938Y477D01*
X1449Y477D02*
X1538Y477D01*
X2049Y477D02*
X2138Y477D01*
X2649Y477D02*
X2738Y477D01*
X3249Y477D02*
X3338Y477D01*
X3849Y477D02*
X3938Y477D01*
X4476Y477D02*
X4565Y477D01*
X5049Y477D02*
X5138Y477D01*
X849Y476D02*
X938Y476D01*
X1449Y476D02*
X1538Y476D01*
X2049Y476D02*
X2138Y476D01*
X2649Y476D02*
X2738Y476D01*
X3249Y476D02*
X3338Y476D01*
X3849Y476D02*
X3938Y476D01*
X4476Y476D02*
X4565Y476D01*
X5049Y476D02*
X5138Y476D01*
X849Y475D02*
X938Y475D01*
X1449Y475D02*
X1538Y475D01*
X2049Y475D02*
X2138Y475D01*
X2649Y475D02*
X2738Y475D01*
X3249Y475D02*
X3338Y475D01*
X3849Y475D02*
X3938Y475D01*
X4476Y475D02*
X4565Y475D01*
X5049Y475D02*
X5138Y475D01*
X849Y474D02*
X938Y474D01*
X1449Y474D02*
X1538Y474D01*
X2049Y474D02*
X2138Y474D01*
X2649Y474D02*
X2738Y474D01*
X3249Y474D02*
X3338Y474D01*
X3849Y474D02*
X3938Y474D01*
X4476Y474D02*
X4565Y474D01*
X5049Y474D02*
X5138Y474D01*
X849Y473D02*
X938Y473D01*
X1449Y473D02*
X1538Y473D01*
X2049Y473D02*
X2138Y473D01*
X2649Y473D02*
X2738Y473D01*
X3249Y473D02*
X3338Y473D01*
X3849Y473D02*
X3938Y473D01*
X4476Y473D02*
X4565Y473D01*
X5049Y473D02*
X5138Y473D01*
X849Y472D02*
X938Y472D01*
X1449Y472D02*
X1538Y472D01*
X2049Y472D02*
X2138Y472D01*
X2649Y472D02*
X2738Y472D01*
X3249Y472D02*
X3338Y472D01*
X3849Y472D02*
X3938Y472D01*
X5049Y472D02*
X5138Y472D01*
X849Y471D02*
X938Y471D01*
X1449Y471D02*
X1538Y471D01*
X2049Y471D02*
X2138Y471D01*
X2649Y471D02*
X2738Y471D01*
X3249Y471D02*
X3338Y471D01*
X3849Y471D02*
X3938Y471D01*
X5049Y471D02*
X5138Y471D01*
X849Y470D02*
X938Y470D01*
X1449Y470D02*
X1538Y470D01*
X2049Y470D02*
X2138Y470D01*
X2649Y470D02*
X2738Y470D01*
X3249Y470D02*
X3338Y470D01*
X3849Y470D02*
X3938Y470D01*
X5049Y470D02*
X5138Y470D01*
X849Y469D02*
X938Y469D01*
X1449Y469D02*
X1538Y469D01*
X2049Y469D02*
X2138Y469D01*
X2649Y469D02*
X2738Y469D01*
X3249Y469D02*
X3338Y469D01*
X3849Y469D02*
X3938Y469D01*
X5049Y469D02*
X5138Y469D01*
X849Y468D02*
X938Y468D01*
X1449Y468D02*
X1538Y468D01*
X2049Y468D02*
X2138Y468D01*
X2649Y468D02*
X2738Y468D01*
X3249Y468D02*
X3338Y468D01*
X3849Y468D02*
X3938Y468D01*
X5049Y468D02*
X5138Y468D01*
X849Y467D02*
X938Y467D01*
X1449Y467D02*
X1538Y467D01*
X2049Y467D02*
X2138Y467D01*
X2649Y467D02*
X2738Y467D01*
X3249Y467D02*
X3338Y467D01*
X3849Y467D02*
X3938Y467D01*
X5049Y467D02*
X5138Y467D01*
X849Y466D02*
X938Y466D01*
X1449Y466D02*
X1538Y466D01*
X2049Y466D02*
X2138Y466D01*
X2649Y466D02*
X2738Y466D01*
X3249Y466D02*
X3338Y466D01*
X3849Y466D02*
X3938Y466D01*
X5049Y466D02*
X5138Y466D01*
X849Y465D02*
X938Y465D01*
X1449Y465D02*
X1538Y465D01*
X2049Y465D02*
X2138Y465D01*
X2649Y465D02*
X2738Y465D01*
X3249Y465D02*
X3338Y465D01*
X3849Y465D02*
X3938Y465D01*
X5049Y465D02*
X5138Y465D01*
D02*
G04 End of Mask0*
M02*