G04 MADE WITH FRITZING*
G04 WWW.FRITZING.ORG*
G04 DOUBLE SIDED*
G04 HOLES PLATED*
G04 CONTOUR ON CENTER OF CONTOUR VECTOR*
%ASAXBY*%
%FSLAX23Y23*%
%MOIN*%
%OFA0B0*%
%SFA1.0B1.0*%
%ADD10C,0.070000*%
%ADD11C,0.047559*%
%ADD12C,0.076139*%
%ADD13C,0.039370*%
%ADD14R,0.062992X0.157480*%
%ADD15R,0.070000X0.070000*%
%ADD16C,0.024000*%
%ADD17R,0.001000X0.001000*%
%LNCOPPER0*%
G90*
G70*
G54D10*
X4394Y1308D03*
X3894Y1308D03*
X4394Y1408D03*
X3894Y1408D03*
X4394Y1508D03*
X3894Y1508D03*
X4394Y1608D03*
X3894Y1608D03*
X4394Y1708D03*
X3894Y1708D03*
X4394Y1808D03*
X3894Y1808D03*
X4394Y1908D03*
X3894Y1908D03*
X4394Y2008D03*
X3894Y2008D03*
X1094Y2908D03*
X1594Y2908D03*
X1094Y2808D03*
X1594Y2808D03*
X1094Y2708D03*
X1594Y2708D03*
X1094Y2608D03*
X1594Y2608D03*
X1094Y2508D03*
X1594Y2508D03*
X1094Y2408D03*
X1594Y2408D03*
X1094Y2308D03*
X1594Y2308D03*
X1094Y2208D03*
X1594Y2208D03*
X1094Y4708D03*
X1594Y4708D03*
X1094Y4608D03*
X1594Y4608D03*
X1094Y4508D03*
X1594Y4508D03*
X1094Y4408D03*
X1594Y4408D03*
X1094Y4308D03*
X1594Y4308D03*
X1094Y4208D03*
X1594Y4208D03*
X1094Y4108D03*
X1594Y4108D03*
X1094Y4008D03*
X1594Y4008D03*
X4394Y2208D03*
X3894Y2208D03*
X4394Y2308D03*
X3894Y2308D03*
X4394Y2408D03*
X3894Y2408D03*
X4394Y2508D03*
X3894Y2508D03*
X4394Y2608D03*
X3894Y2608D03*
X4394Y2708D03*
X3894Y2708D03*
X4394Y2808D03*
X3894Y2808D03*
X4394Y2908D03*
X3894Y2908D03*
X994Y2108D03*
X1494Y2108D03*
X994Y2008D03*
X1494Y2008D03*
X994Y1908D03*
X1494Y1908D03*
X994Y1808D03*
X1494Y1808D03*
X994Y1708D03*
X1494Y1708D03*
X994Y1608D03*
X1494Y1608D03*
X994Y1508D03*
X1494Y1508D03*
X994Y1408D03*
X1494Y1408D03*
X4394Y3108D03*
X3894Y3108D03*
X4394Y3208D03*
X3894Y3208D03*
X4394Y3308D03*
X3894Y3308D03*
X4394Y3408D03*
X3894Y3408D03*
X4394Y3508D03*
X3894Y3508D03*
X4394Y3608D03*
X3894Y3608D03*
X4394Y3708D03*
X3894Y3708D03*
X4394Y3808D03*
X3894Y3808D03*
X1094Y3808D03*
X1594Y3808D03*
X1094Y3708D03*
X1594Y3708D03*
X1094Y3608D03*
X1594Y3608D03*
X1094Y3508D03*
X1594Y3508D03*
X1094Y3408D03*
X1594Y3408D03*
X1094Y3308D03*
X1594Y3308D03*
X1094Y3208D03*
X1594Y3208D03*
X1094Y3108D03*
X1594Y3108D03*
X4394Y4008D03*
X3894Y4008D03*
X4394Y4108D03*
X3894Y4108D03*
X4394Y4208D03*
X3894Y4208D03*
X4394Y4308D03*
X3894Y4308D03*
X4394Y4408D03*
X3894Y4408D03*
X4394Y4508D03*
X3894Y4508D03*
X4394Y4608D03*
X3894Y4608D03*
X4394Y4708D03*
X3894Y4708D03*
G54D11*
X794Y3008D03*
X794Y2930D03*
X794Y2851D03*
X794Y2772D03*
X794Y3008D03*
X794Y2930D03*
X794Y2851D03*
X794Y2772D03*
X794Y3008D03*
X794Y2930D03*
X794Y2851D03*
X794Y2772D03*
X794Y2408D03*
X794Y2330D03*
X794Y2251D03*
X794Y2172D03*
X794Y2408D03*
X794Y2330D03*
X794Y2251D03*
X794Y2172D03*
X794Y2408D03*
X794Y2330D03*
X794Y2251D03*
X794Y2172D03*
X5094Y3008D03*
X5094Y3087D03*
X5094Y3166D03*
X5094Y3245D03*
X5094Y3008D03*
X5094Y3087D03*
X5094Y3166D03*
X5094Y3245D03*
X5094Y3008D03*
X5094Y3087D03*
X5094Y3166D03*
X5094Y3245D03*
X5094Y2508D03*
X5094Y2587D03*
X5094Y2666D03*
X5094Y2745D03*
X5094Y2508D03*
X5094Y2587D03*
X5094Y2666D03*
X5094Y2745D03*
X5094Y2508D03*
X5094Y2587D03*
X5094Y2666D03*
X5094Y2745D03*
X794Y4008D03*
X794Y3930D03*
X794Y3851D03*
X794Y3772D03*
X794Y4008D03*
X794Y3930D03*
X794Y3851D03*
X794Y3772D03*
X794Y4008D03*
X794Y3930D03*
X794Y3851D03*
X794Y3772D03*
X5094Y3508D03*
X5094Y3587D03*
X5094Y3666D03*
X5094Y3745D03*
X5094Y3508D03*
X5094Y3587D03*
X5094Y3666D03*
X5094Y3745D03*
X5094Y3508D03*
X5094Y3587D03*
X5094Y3666D03*
X5094Y3745D03*
X794Y3508D03*
X794Y3430D03*
X794Y3351D03*
X794Y3272D03*
X794Y3508D03*
X794Y3430D03*
X794Y3351D03*
X794Y3272D03*
X794Y3508D03*
X794Y3430D03*
X794Y3351D03*
X794Y3272D03*
X5094Y4008D03*
X5094Y4087D03*
X5094Y4166D03*
X5094Y4245D03*
X5094Y4008D03*
X5094Y4087D03*
X5094Y4166D03*
X5094Y4245D03*
X5094Y4008D03*
X5094Y4087D03*
X5094Y4166D03*
X5094Y4245D03*
G54D12*
X5094Y508D03*
X4956Y508D03*
X4819Y508D03*
X4681Y508D03*
X5094Y508D03*
X4956Y508D03*
X4819Y508D03*
X4681Y508D03*
X1494Y508D03*
X1356Y508D03*
X1219Y508D03*
X1081Y508D03*
X1494Y508D03*
X1356Y508D03*
X1219Y508D03*
X1081Y508D03*
X894Y508D03*
X756Y508D03*
X619Y508D03*
X481Y508D03*
X894Y508D03*
X756Y508D03*
X619Y508D03*
X481Y508D03*
X4521Y516D03*
X4384Y516D03*
X4246Y516D03*
X4108Y516D03*
X4521Y516D03*
X4384Y516D03*
X4246Y516D03*
X4108Y516D03*
X2694Y508D03*
X2556Y508D03*
X2419Y508D03*
X2281Y508D03*
X2694Y508D03*
X2556Y508D03*
X2419Y508D03*
X2281Y508D03*
X3894Y508D03*
X3756Y508D03*
X3619Y508D03*
X3481Y508D03*
X3894Y508D03*
X3756Y508D03*
X3619Y508D03*
X3481Y508D03*
X2094Y508D03*
X1956Y508D03*
X1819Y508D03*
X1681Y508D03*
X2094Y508D03*
X1956Y508D03*
X1819Y508D03*
X1681Y508D03*
X3294Y508D03*
X3156Y508D03*
X3019Y508D03*
X2881Y508D03*
X3294Y508D03*
X3156Y508D03*
X3019Y508D03*
X2881Y508D03*
G54D13*
X2583Y3116D03*
X2701Y2708D03*
X2587Y2945D03*
X2583Y2090D03*
X2581Y1969D03*
X2694Y1508D03*
X2694Y2327D03*
X2694Y4608D03*
X2594Y4008D03*
X2694Y3808D03*
X2701Y3334D03*
X2576Y4901D03*
X2576Y4301D03*
X2694Y4408D03*
X2590Y1153D03*
X1694Y1808D03*
X1794Y1808D03*
X1894Y1808D03*
X1994Y1808D03*
X2094Y1408D03*
X2190Y1405D03*
X2294Y1408D03*
X2394Y1408D03*
X2194Y4208D03*
X2294Y4275D03*
X2427Y4375D03*
X2516Y4486D03*
X2227Y3586D03*
X2320Y3593D03*
X2431Y3593D03*
X2524Y3597D03*
X2235Y3023D03*
X2346Y3027D03*
X2450Y3134D03*
X2524Y3042D03*
X2540Y960D03*
X2466Y1490D03*
X2351Y1556D03*
X2240Y1182D03*
G54D14*
X3094Y2068D03*
X3094Y2308D03*
G54D15*
X3894Y2008D03*
X3894Y1408D03*
X1594Y2208D03*
X1594Y2808D03*
X1594Y4008D03*
X1594Y4608D03*
X3894Y2908D03*
X3894Y2308D03*
X1494Y1408D03*
X1494Y2008D03*
X3894Y3808D03*
X3894Y3208D03*
X1594Y3108D03*
X1594Y3708D03*
X3894Y4708D03*
X3894Y4108D03*
G54D14*
X1894Y2948D03*
X1894Y2708D03*
X2194Y2248D03*
X2194Y2008D03*
X2994Y1168D03*
X2994Y1408D03*
X2094Y4848D03*
X2094Y4608D03*
X1994Y4048D03*
X1994Y3808D03*
X3294Y3068D03*
X3294Y3308D03*
X3394Y3968D03*
X3394Y4208D03*
G54D16*
X3120Y2073D02*
X3868Y2204D01*
D02*
X3120Y2308D02*
X3868Y2308D01*
D02*
X1868Y2945D02*
X1620Y2912D01*
D02*
X3020Y1172D02*
X3868Y1304D01*
D02*
X2168Y2243D02*
X1520Y2113D01*
D02*
X1968Y4033D02*
X1616Y3822D01*
D02*
X3320Y3070D02*
X3868Y3107D01*
D02*
X3420Y3970D02*
X3868Y4006D01*
D02*
X4411Y1728D02*
X5078Y2490D01*
D02*
X1081Y2531D02*
X807Y2987D01*
D02*
X1076Y4290D02*
X812Y4026D01*
D02*
X987Y1733D02*
X801Y2384D01*
D02*
X4417Y4395D02*
X5072Y4021D01*
D02*
X1069Y3417D02*
X818Y3500D01*
D02*
X4420Y3508D02*
X5069Y3508D01*
D02*
X4417Y2621D02*
X5072Y2996D01*
D02*
X800Y2384D02*
X988Y1634D01*
D02*
X805Y2986D02*
X1082Y2432D01*
D02*
X5076Y2491D02*
X4413Y1827D01*
D02*
X5074Y4023D02*
X4415Y4493D01*
D02*
X5071Y2999D02*
X4418Y2719D01*
D02*
X815Y3495D02*
X1072Y3323D01*
D02*
X5069Y3512D02*
X4420Y3605D01*
D02*
X815Y4022D02*
X1072Y4194D01*
D02*
X1072Y4095D02*
X815Y3942D01*
D02*
X1083Y2332D02*
X805Y2907D01*
D02*
X4418Y2818D02*
X5071Y3078D01*
D02*
X988Y1534D02*
X800Y2305D01*
D02*
X4413Y1926D02*
X5076Y2570D01*
D02*
X4420Y3704D02*
X5070Y3591D01*
D02*
X1073Y3224D02*
X814Y3415D01*
D02*
X4415Y4593D02*
X5074Y4102D01*
D02*
X4413Y2026D02*
X5076Y2649D01*
D02*
X988Y1434D02*
X800Y2227D01*
D02*
X1071Y3996D02*
X816Y3862D01*
D02*
X4419Y2917D02*
X5071Y3157D01*
D02*
X4415Y4692D02*
X5074Y4181D01*
D02*
X1074Y3125D02*
X813Y3335D01*
D02*
X4420Y3803D02*
X5070Y3671D01*
D02*
X1083Y2232D02*
X805Y2828D01*
D02*
X4510Y551D02*
X3902Y2384D01*
D02*
X2497Y4487D02*
X1620Y4508D01*
D02*
X2524Y3061D02*
X2524Y3578D01*
D02*
X5066Y532D02*
X3914Y1492D01*
D02*
X3894Y545D02*
X3894Y3282D01*
D02*
X3300Y545D02*
X3890Y4183D01*
D02*
X2408Y4376D02*
X1620Y4407D01*
D02*
X2449Y3153D02*
X2432Y3575D01*
D02*
X2553Y545D02*
X2468Y1471D01*
D02*
X3758Y545D02*
X3893Y3382D01*
D02*
X3163Y544D02*
X3889Y4283D01*
D02*
X4375Y552D02*
X3900Y2483D01*
D02*
X4931Y535D02*
X3912Y1590D01*
D02*
X2417Y545D02*
X2398Y1205D01*
D02*
X2398Y1205D02*
X2354Y1538D01*
D02*
X2345Y3046D02*
X2321Y3575D01*
D02*
X2275Y4276D02*
X1620Y4307D01*
D02*
X4796Y537D02*
X3910Y1688D01*
D02*
X3027Y544D02*
X3888Y4383D01*
D02*
X3622Y545D02*
X3892Y3482D01*
D02*
X4240Y552D02*
X3898Y2583D01*
D02*
X2279Y545D02*
X2242Y1163D01*
D02*
X2175Y4208D02*
X1620Y4208D01*
D02*
X2235Y3042D02*
X2228Y3567D01*
D02*
X2890Y544D02*
X3888Y4483D01*
D02*
X3486Y545D02*
X3891Y3582D01*
D02*
X4105Y553D02*
X3897Y2682D01*
D02*
X4662Y540D02*
X3908Y1786D01*
D02*
X1598Y4605D02*
X1595Y4682D01*
D02*
X2068Y4836D02*
X1598Y4605D01*
D02*
X1619Y3715D02*
X1968Y3802D01*
D02*
X2168Y2008D02*
X1520Y2008D01*
D02*
X3420Y4203D02*
X3868Y4113D01*
D02*
X3920Y3807D02*
X5069Y3746D01*
D02*
X3868Y3213D02*
X3320Y3304D01*
D02*
X2575Y4010D02*
X2020Y4047D01*
D02*
X2675Y3808D02*
X2020Y3808D01*
D02*
X2557Y4899D02*
X2120Y4851D01*
D02*
X2675Y4608D02*
X2120Y4608D01*
D02*
X2094Y4708D02*
X2094Y4681D01*
D02*
X1620Y4613D02*
X2094Y4708D01*
D02*
X2593Y4294D02*
X3368Y3979D01*
D02*
X2712Y4403D02*
X3368Y4216D01*
D02*
X2720Y3333D02*
X3268Y3309D01*
D02*
X2602Y3114D02*
X3268Y3070D01*
D02*
X1868Y2717D02*
X1619Y2800D01*
D02*
X2568Y2945D02*
X1920Y2948D01*
D02*
X2683Y2708D02*
X1920Y2708D01*
D02*
X3020Y1408D02*
X3868Y1408D01*
D02*
X2713Y2326D02*
X3068Y2310D01*
D02*
X2602Y2089D02*
X3068Y2069D01*
D02*
X2566Y1981D02*
X2220Y2230D01*
D02*
X2681Y1522D02*
X2220Y1982D01*
D02*
X2712Y1502D02*
X2968Y1417D01*
D02*
X2609Y1153D02*
X2968Y1167D01*
D02*
X1094Y1308D02*
X1694Y1308D01*
D02*
X1081Y545D02*
X1094Y1308D01*
D02*
X1694Y1308D02*
X1694Y1789D01*
D02*
X1294Y1208D02*
X1794Y1208D01*
D02*
X1794Y1208D02*
X1794Y1789D01*
D02*
X1222Y545D02*
X1294Y1208D01*
D02*
X1394Y1108D02*
X1894Y1108D01*
D02*
X1894Y1108D02*
X1894Y1789D01*
D02*
X1359Y545D02*
X1394Y1108D01*
D02*
X1494Y1008D02*
X1994Y1008D01*
D02*
X1994Y1008D02*
X1994Y1789D01*
D02*
X1494Y545D02*
X1494Y1008D01*
D02*
X2094Y908D02*
X2094Y1389D01*
D02*
X1694Y908D02*
X2094Y908D01*
D02*
X1682Y545D02*
X1694Y908D01*
D02*
X2194Y808D02*
X2191Y1386D01*
D02*
X1794Y808D02*
X2194Y808D01*
D02*
X1816Y545D02*
X1794Y808D01*
D02*
X1994Y708D02*
X2294Y708D01*
D02*
X2294Y708D02*
X2294Y1389D01*
D02*
X1963Y544D02*
X1994Y708D01*
D02*
X2094Y608D02*
X2394Y608D01*
D02*
X2394Y608D02*
X2394Y1389D01*
D02*
X2094Y545D02*
X2094Y608D01*
G54D17*
X4481Y557D02*
X4560Y557D01*
X4481Y556D02*
X4560Y556D01*
X4481Y555D02*
X4560Y555D01*
X4481Y554D02*
X4560Y554D01*
X4481Y553D02*
X4560Y553D01*
X4481Y552D02*
X4560Y552D01*
X4481Y551D02*
X4560Y551D01*
X4481Y550D02*
X4560Y550D01*
X854Y549D02*
X933Y549D01*
X1454Y549D02*
X1533Y549D01*
X2054Y549D02*
X2133Y549D01*
X2654Y549D02*
X2733Y549D01*
X3254Y549D02*
X3333Y549D01*
X3854Y549D02*
X3933Y549D01*
X4481Y549D02*
X4560Y549D01*
X5054Y549D02*
X5133Y549D01*
X854Y548D02*
X933Y548D01*
X1454Y548D02*
X1533Y548D01*
X2054Y548D02*
X2133Y548D01*
X2654Y548D02*
X2733Y548D01*
X3254Y548D02*
X3333Y548D01*
X3854Y548D02*
X3933Y548D01*
X4481Y548D02*
X4560Y548D01*
X5054Y548D02*
X5133Y548D01*
X854Y547D02*
X933Y547D01*
X1454Y547D02*
X1533Y547D01*
X2054Y547D02*
X2133Y547D01*
X2654Y547D02*
X2733Y547D01*
X3254Y547D02*
X3333Y547D01*
X3854Y547D02*
X3933Y547D01*
X4481Y547D02*
X4560Y547D01*
X5054Y547D02*
X5133Y547D01*
X854Y546D02*
X933Y546D01*
X1454Y546D02*
X1533Y546D01*
X2054Y546D02*
X2133Y546D01*
X2654Y546D02*
X2733Y546D01*
X3254Y546D02*
X3333Y546D01*
X3854Y546D02*
X3933Y546D01*
X4481Y546D02*
X4560Y546D01*
X5054Y546D02*
X5133Y546D01*
X854Y545D02*
X933Y545D01*
X1454Y545D02*
X1533Y545D01*
X2054Y545D02*
X2133Y545D01*
X2654Y545D02*
X2733Y545D01*
X3254Y545D02*
X3333Y545D01*
X3854Y545D02*
X3933Y545D01*
X4481Y545D02*
X4560Y545D01*
X5054Y545D02*
X5133Y545D01*
X854Y544D02*
X933Y544D01*
X1454Y544D02*
X1533Y544D01*
X2054Y544D02*
X2133Y544D01*
X2654Y544D02*
X2733Y544D01*
X3254Y544D02*
X3333Y544D01*
X3854Y544D02*
X3933Y544D01*
X4481Y544D02*
X4560Y544D01*
X5054Y544D02*
X5133Y544D01*
X854Y543D02*
X933Y543D01*
X1454Y543D02*
X1533Y543D01*
X2054Y543D02*
X2133Y543D01*
X2654Y543D02*
X2733Y543D01*
X3254Y543D02*
X3333Y543D01*
X3854Y543D02*
X3933Y543D01*
X4481Y543D02*
X4560Y543D01*
X5054Y543D02*
X5133Y543D01*
X854Y542D02*
X933Y542D01*
X1454Y542D02*
X1533Y542D01*
X2054Y542D02*
X2133Y542D01*
X2654Y542D02*
X2733Y542D01*
X3254Y542D02*
X3333Y542D01*
X3854Y542D02*
X3933Y542D01*
X4481Y542D02*
X4560Y542D01*
X5054Y542D02*
X5133Y542D01*
X854Y541D02*
X933Y541D01*
X1454Y541D02*
X1533Y541D01*
X2054Y541D02*
X2133Y541D01*
X2654Y541D02*
X2733Y541D01*
X3254Y541D02*
X3333Y541D01*
X3854Y541D02*
X3933Y541D01*
X4481Y541D02*
X4517Y541D01*
X4525Y541D02*
X4560Y541D01*
X5054Y541D02*
X5133Y541D01*
X854Y540D02*
X933Y540D01*
X1454Y540D02*
X1533Y540D01*
X2054Y540D02*
X2133Y540D01*
X2654Y540D02*
X2733Y540D01*
X3254Y540D02*
X3333Y540D01*
X3854Y540D02*
X3933Y540D01*
X4481Y540D02*
X4513Y540D01*
X4529Y540D02*
X4560Y540D01*
X5054Y540D02*
X5133Y540D01*
X854Y539D02*
X933Y539D01*
X1454Y539D02*
X1533Y539D01*
X2054Y539D02*
X2133Y539D01*
X2654Y539D02*
X2733Y539D01*
X3254Y539D02*
X3333Y539D01*
X3854Y539D02*
X3933Y539D01*
X4481Y539D02*
X4511Y539D01*
X4531Y539D02*
X4560Y539D01*
X5054Y539D02*
X5133Y539D01*
X854Y538D02*
X933Y538D01*
X1454Y538D02*
X1533Y538D01*
X2054Y538D02*
X2133Y538D01*
X2654Y538D02*
X2733Y538D01*
X3254Y538D02*
X3333Y538D01*
X3854Y538D02*
X3933Y538D01*
X4481Y538D02*
X4509Y538D01*
X4533Y538D02*
X4560Y538D01*
X5054Y538D02*
X5133Y538D01*
X854Y537D02*
X933Y537D01*
X1454Y537D02*
X1533Y537D01*
X2054Y537D02*
X2133Y537D01*
X2654Y537D02*
X2733Y537D01*
X3254Y537D02*
X3333Y537D01*
X3854Y537D02*
X3933Y537D01*
X4481Y537D02*
X4507Y537D01*
X4535Y537D02*
X4560Y537D01*
X5054Y537D02*
X5133Y537D01*
X854Y536D02*
X933Y536D01*
X1454Y536D02*
X1533Y536D01*
X2054Y536D02*
X2133Y536D01*
X2654Y536D02*
X2733Y536D01*
X3254Y536D02*
X3333Y536D01*
X3854Y536D02*
X3933Y536D01*
X4481Y536D02*
X4506Y536D01*
X4536Y536D02*
X4560Y536D01*
X5054Y536D02*
X5133Y536D01*
X854Y535D02*
X933Y535D01*
X1454Y535D02*
X1533Y535D01*
X2054Y535D02*
X2133Y535D01*
X2654Y535D02*
X2733Y535D01*
X3254Y535D02*
X3333Y535D01*
X3854Y535D02*
X3933Y535D01*
X4481Y535D02*
X4505Y535D01*
X4537Y535D02*
X4560Y535D01*
X5054Y535D02*
X5133Y535D01*
X854Y534D02*
X933Y534D01*
X1454Y534D02*
X1533Y534D01*
X2054Y534D02*
X2133Y534D01*
X2654Y534D02*
X2733Y534D01*
X3254Y534D02*
X3333Y534D01*
X3854Y534D02*
X3933Y534D01*
X4481Y534D02*
X4503Y534D01*
X4538Y534D02*
X4560Y534D01*
X5054Y534D02*
X5133Y534D01*
X854Y533D02*
X889Y533D01*
X898Y533D02*
X933Y533D01*
X1454Y533D02*
X1489Y533D01*
X1498Y533D02*
X1533Y533D01*
X2054Y533D02*
X2089Y533D01*
X2098Y533D02*
X2133Y533D01*
X2654Y533D02*
X2689Y533D01*
X2698Y533D02*
X2733Y533D01*
X3254Y533D02*
X3289Y533D01*
X3298Y533D02*
X3333Y533D01*
X3854Y533D02*
X3889Y533D01*
X3898Y533D02*
X3933Y533D01*
X4481Y533D02*
X4503Y533D01*
X4539Y533D02*
X4560Y533D01*
X5054Y533D02*
X5089Y533D01*
X5098Y533D02*
X5133Y533D01*
X854Y532D02*
X885Y532D01*
X902Y532D02*
X933Y532D01*
X1454Y532D02*
X1485Y532D01*
X1502Y532D02*
X1533Y532D01*
X2054Y532D02*
X2085Y532D01*
X2102Y532D02*
X2133Y532D01*
X2654Y532D02*
X2685Y532D01*
X2702Y532D02*
X2733Y532D01*
X3254Y532D02*
X3285Y532D01*
X3302Y532D02*
X3333Y532D01*
X3854Y532D02*
X3885Y532D01*
X3902Y532D02*
X3933Y532D01*
X4481Y532D02*
X4502Y532D01*
X4540Y532D02*
X4560Y532D01*
X5054Y532D02*
X5085Y532D01*
X5102Y532D02*
X5133Y532D01*
X854Y531D02*
X883Y531D01*
X904Y531D02*
X933Y531D01*
X1454Y531D02*
X1483Y531D01*
X1504Y531D02*
X1533Y531D01*
X2054Y531D02*
X2083Y531D01*
X2104Y531D02*
X2133Y531D01*
X2654Y531D02*
X2683Y531D01*
X2704Y531D02*
X2733Y531D01*
X3254Y531D02*
X3283Y531D01*
X3304Y531D02*
X3333Y531D01*
X3854Y531D02*
X3883Y531D01*
X3904Y531D02*
X3933Y531D01*
X4481Y531D02*
X4501Y531D01*
X4541Y531D02*
X4560Y531D01*
X5054Y531D02*
X5083Y531D01*
X5104Y531D02*
X5133Y531D01*
X854Y530D02*
X881Y530D01*
X906Y530D02*
X933Y530D01*
X1454Y530D02*
X1481Y530D01*
X1506Y530D02*
X1533Y530D01*
X2054Y530D02*
X2081Y530D01*
X2106Y530D02*
X2133Y530D01*
X2654Y530D02*
X2681Y530D01*
X2706Y530D02*
X2733Y530D01*
X3254Y530D02*
X3281Y530D01*
X3306Y530D02*
X3333Y530D01*
X3854Y530D02*
X3881Y530D01*
X3906Y530D02*
X3933Y530D01*
X4481Y530D02*
X4500Y530D01*
X4541Y530D02*
X4560Y530D01*
X5054Y530D02*
X5081Y530D01*
X5106Y530D02*
X5133Y530D01*
X854Y529D02*
X879Y529D01*
X908Y529D02*
X933Y529D01*
X1454Y529D02*
X1479Y529D01*
X1508Y529D02*
X1533Y529D01*
X2054Y529D02*
X2079Y529D01*
X2108Y529D02*
X2133Y529D01*
X2654Y529D02*
X2679Y529D01*
X2708Y529D02*
X2733Y529D01*
X3254Y529D02*
X3279Y529D01*
X3308Y529D02*
X3333Y529D01*
X3854Y529D02*
X3879Y529D01*
X3908Y529D02*
X3933Y529D01*
X4481Y529D02*
X4500Y529D01*
X4542Y529D02*
X4560Y529D01*
X5054Y529D02*
X5079Y529D01*
X5108Y529D02*
X5133Y529D01*
X854Y528D02*
X878Y528D01*
X909Y528D02*
X933Y528D01*
X1454Y528D02*
X1478Y528D01*
X1509Y528D02*
X1533Y528D01*
X2054Y528D02*
X2078Y528D01*
X2109Y528D02*
X2133Y528D01*
X2654Y528D02*
X2678Y528D01*
X2709Y528D02*
X2733Y528D01*
X3254Y528D02*
X3278Y528D01*
X3309Y528D02*
X3333Y528D01*
X3854Y528D02*
X3878Y528D01*
X3909Y528D02*
X3933Y528D01*
X4481Y528D02*
X4499Y528D01*
X4542Y528D02*
X4560Y528D01*
X5054Y528D02*
X5078Y528D01*
X5109Y528D02*
X5133Y528D01*
X854Y527D02*
X877Y527D01*
X910Y527D02*
X933Y527D01*
X1454Y527D02*
X1477Y527D01*
X1510Y527D02*
X1533Y527D01*
X2054Y527D02*
X2077Y527D01*
X2110Y527D02*
X2133Y527D01*
X2654Y527D02*
X2677Y527D01*
X2710Y527D02*
X2733Y527D01*
X3254Y527D02*
X3277Y527D01*
X3310Y527D02*
X3333Y527D01*
X3854Y527D02*
X3877Y527D01*
X3910Y527D02*
X3933Y527D01*
X4481Y527D02*
X4499Y527D01*
X4543Y527D02*
X4560Y527D01*
X5054Y527D02*
X5077Y527D01*
X5110Y527D02*
X5133Y527D01*
X854Y526D02*
X876Y526D01*
X911Y526D02*
X933Y526D01*
X1454Y526D02*
X1476Y526D01*
X1511Y526D02*
X1533Y526D01*
X2054Y526D02*
X2076Y526D01*
X2111Y526D02*
X2133Y526D01*
X2654Y526D02*
X2676Y526D01*
X2711Y526D02*
X2733Y526D01*
X3254Y526D02*
X3276Y526D01*
X3311Y526D02*
X3333Y526D01*
X3854Y526D02*
X3876Y526D01*
X3911Y526D02*
X3933Y526D01*
X4481Y526D02*
X4498Y526D01*
X4543Y526D02*
X4560Y526D01*
X5054Y526D02*
X5076Y526D01*
X5111Y526D02*
X5133Y526D01*
X854Y525D02*
X875Y525D01*
X912Y525D02*
X933Y525D01*
X1454Y525D02*
X1475Y525D01*
X1512Y525D02*
X1533Y525D01*
X2054Y525D02*
X2075Y525D01*
X2112Y525D02*
X2133Y525D01*
X2654Y525D02*
X2675Y525D01*
X2712Y525D02*
X2733Y525D01*
X3254Y525D02*
X3275Y525D01*
X3312Y525D02*
X3333Y525D01*
X3854Y525D02*
X3875Y525D01*
X3912Y525D02*
X3933Y525D01*
X4481Y525D02*
X4498Y525D01*
X4544Y525D02*
X4560Y525D01*
X5054Y525D02*
X5075Y525D01*
X5112Y525D02*
X5133Y525D01*
X854Y524D02*
X874Y524D01*
X913Y524D02*
X933Y524D01*
X1454Y524D02*
X1474Y524D01*
X1513Y524D02*
X1533Y524D01*
X2054Y524D02*
X2074Y524D01*
X2113Y524D02*
X2133Y524D01*
X2654Y524D02*
X2674Y524D01*
X2713Y524D02*
X2733Y524D01*
X3254Y524D02*
X3274Y524D01*
X3313Y524D02*
X3333Y524D01*
X3854Y524D02*
X3874Y524D01*
X3913Y524D02*
X3933Y524D01*
X4481Y524D02*
X4498Y524D01*
X4544Y524D02*
X4560Y524D01*
X5054Y524D02*
X5074Y524D01*
X5113Y524D02*
X5133Y524D01*
X854Y523D02*
X874Y523D01*
X914Y523D02*
X933Y523D01*
X1454Y523D02*
X1474Y523D01*
X1514Y523D02*
X1533Y523D01*
X2054Y523D02*
X2074Y523D01*
X2114Y523D02*
X2133Y523D01*
X2654Y523D02*
X2674Y523D01*
X2714Y523D02*
X2733Y523D01*
X3254Y523D02*
X3274Y523D01*
X3314Y523D02*
X3333Y523D01*
X3854Y523D02*
X3874Y523D01*
X3914Y523D02*
X3933Y523D01*
X4481Y523D02*
X4497Y523D01*
X4544Y523D02*
X4560Y523D01*
X5054Y523D02*
X5073Y523D01*
X5114Y523D02*
X5133Y523D01*
X854Y522D02*
X873Y522D01*
X914Y522D02*
X933Y522D01*
X1454Y522D02*
X1473Y522D01*
X1514Y522D02*
X1533Y522D01*
X2054Y522D02*
X2073Y522D01*
X2114Y522D02*
X2133Y522D01*
X2654Y522D02*
X2673Y522D01*
X2714Y522D02*
X2733Y522D01*
X3254Y522D02*
X3273Y522D01*
X3314Y522D02*
X3333Y522D01*
X3854Y522D02*
X3873Y522D01*
X3914Y522D02*
X3933Y522D01*
X4481Y522D02*
X4497Y522D01*
X4545Y522D02*
X4560Y522D01*
X5054Y522D02*
X5073Y522D01*
X5114Y522D02*
X5133Y522D01*
X854Y521D02*
X872Y521D01*
X915Y521D02*
X933Y521D01*
X1454Y521D02*
X1472Y521D01*
X1515Y521D02*
X1533Y521D01*
X2054Y521D02*
X2072Y521D01*
X2115Y521D02*
X2133Y521D01*
X2654Y521D02*
X2672Y521D01*
X2715Y521D02*
X2733Y521D01*
X3254Y521D02*
X3272Y521D01*
X3315Y521D02*
X3333Y521D01*
X3854Y521D02*
X3872Y521D01*
X3915Y521D02*
X3933Y521D01*
X4481Y521D02*
X4497Y521D01*
X4545Y521D02*
X4560Y521D01*
X5054Y521D02*
X5072Y521D01*
X5115Y521D02*
X5133Y521D01*
X854Y520D02*
X872Y520D01*
X915Y520D02*
X933Y520D01*
X1454Y520D02*
X1472Y520D01*
X1515Y520D02*
X1533Y520D01*
X2054Y520D02*
X2072Y520D01*
X2115Y520D02*
X2133Y520D01*
X2654Y520D02*
X2672Y520D01*
X2715Y520D02*
X2733Y520D01*
X3254Y520D02*
X3272Y520D01*
X3315Y520D02*
X3333Y520D01*
X3854Y520D02*
X3872Y520D01*
X3915Y520D02*
X3933Y520D01*
X4481Y520D02*
X4497Y520D01*
X4545Y520D02*
X4560Y520D01*
X5054Y520D02*
X5072Y520D01*
X5115Y520D02*
X5133Y520D01*
X854Y519D02*
X871Y519D01*
X916Y519D02*
X933Y519D01*
X1454Y519D02*
X1471Y519D01*
X1516Y519D02*
X1533Y519D01*
X2054Y519D02*
X2071Y519D01*
X2116Y519D02*
X2133Y519D01*
X2654Y519D02*
X2671Y519D01*
X2716Y519D02*
X2733Y519D01*
X3254Y519D02*
X3271Y519D01*
X3316Y519D02*
X3333Y519D01*
X3854Y519D02*
X3871Y519D01*
X3916Y519D02*
X3933Y519D01*
X4481Y519D02*
X4497Y519D01*
X4545Y519D02*
X4560Y519D01*
X5054Y519D02*
X5071Y519D01*
X5116Y519D02*
X5133Y519D01*
X854Y518D02*
X871Y518D01*
X916Y518D02*
X933Y518D01*
X1454Y518D02*
X1471Y518D01*
X1516Y518D02*
X1533Y518D01*
X2054Y518D02*
X2071Y518D01*
X2116Y518D02*
X2133Y518D01*
X2654Y518D02*
X2671Y518D01*
X2716Y518D02*
X2733Y518D01*
X3254Y518D02*
X3271Y518D01*
X3316Y518D02*
X3333Y518D01*
X3854Y518D02*
X3871Y518D01*
X3916Y518D02*
X3933Y518D01*
X4481Y518D02*
X4497Y518D01*
X4545Y518D02*
X4560Y518D01*
X5054Y518D02*
X5071Y518D01*
X5116Y518D02*
X5133Y518D01*
X854Y517D02*
X871Y517D01*
X916Y517D02*
X933Y517D01*
X1454Y517D02*
X1471Y517D01*
X1516Y517D02*
X1533Y517D01*
X2054Y517D02*
X2071Y517D01*
X2116Y517D02*
X2133Y517D01*
X2654Y517D02*
X2671Y517D01*
X2716Y517D02*
X2733Y517D01*
X3254Y517D02*
X3271Y517D01*
X3316Y517D02*
X3333Y517D01*
X3854Y517D02*
X3871Y517D01*
X3916Y517D02*
X3933Y517D01*
X4481Y517D02*
X4497Y517D01*
X4545Y517D02*
X4560Y517D01*
X5054Y517D02*
X5071Y517D01*
X5116Y517D02*
X5133Y517D01*
X854Y516D02*
X870Y516D01*
X917Y516D02*
X933Y516D01*
X1454Y516D02*
X1470Y516D01*
X1517Y516D02*
X1533Y516D01*
X2054Y516D02*
X2070Y516D01*
X2117Y516D02*
X2133Y516D01*
X2654Y516D02*
X2670Y516D01*
X2717Y516D02*
X2733Y516D01*
X3254Y516D02*
X3270Y516D01*
X3317Y516D02*
X3333Y516D01*
X3854Y516D02*
X3870Y516D01*
X3917Y516D02*
X3933Y516D01*
X4481Y516D02*
X4497Y516D01*
X4545Y516D02*
X4560Y516D01*
X5054Y516D02*
X5070Y516D01*
X5117Y516D02*
X5133Y516D01*
X854Y515D02*
X870Y515D01*
X917Y515D02*
X933Y515D01*
X1454Y515D02*
X1470Y515D01*
X1517Y515D02*
X1533Y515D01*
X2054Y515D02*
X2070Y515D01*
X2117Y515D02*
X2133Y515D01*
X2654Y515D02*
X2670Y515D01*
X2717Y515D02*
X2733Y515D01*
X3254Y515D02*
X3270Y515D01*
X3317Y515D02*
X3333Y515D01*
X3854Y515D02*
X3870Y515D01*
X3917Y515D02*
X3933Y515D01*
X4481Y515D02*
X4497Y515D01*
X4545Y515D02*
X4560Y515D01*
X5054Y515D02*
X5070Y515D01*
X5117Y515D02*
X5133Y515D01*
X854Y514D02*
X870Y514D01*
X917Y514D02*
X933Y514D01*
X1454Y514D02*
X1470Y514D01*
X1517Y514D02*
X1533Y514D01*
X2054Y514D02*
X2070Y514D01*
X2117Y514D02*
X2133Y514D01*
X2654Y514D02*
X2670Y514D01*
X2717Y514D02*
X2733Y514D01*
X3254Y514D02*
X3270Y514D01*
X3317Y514D02*
X3333Y514D01*
X3854Y514D02*
X3870Y514D01*
X3917Y514D02*
X3933Y514D01*
X4481Y514D02*
X4497Y514D01*
X4545Y514D02*
X4560Y514D01*
X5054Y514D02*
X5070Y514D01*
X5117Y514D02*
X5133Y514D01*
X854Y513D02*
X870Y513D01*
X917Y513D02*
X933Y513D01*
X1454Y513D02*
X1470Y513D01*
X1517Y513D02*
X1533Y513D01*
X2054Y513D02*
X2070Y513D01*
X2117Y513D02*
X2133Y513D01*
X2654Y513D02*
X2670Y513D01*
X2717Y513D02*
X2733Y513D01*
X3254Y513D02*
X3270Y513D01*
X3317Y513D02*
X3333Y513D01*
X3854Y513D02*
X3870Y513D01*
X3917Y513D02*
X3933Y513D01*
X4481Y513D02*
X4497Y513D01*
X4545Y513D02*
X4560Y513D01*
X5054Y513D02*
X5070Y513D01*
X5117Y513D02*
X5133Y513D01*
X854Y512D02*
X870Y512D01*
X918Y512D02*
X933Y512D01*
X1454Y512D02*
X1470Y512D01*
X1518Y512D02*
X1533Y512D01*
X2054Y512D02*
X2070Y512D01*
X2118Y512D02*
X2133Y512D01*
X2654Y512D02*
X2670Y512D01*
X2718Y512D02*
X2733Y512D01*
X3254Y512D02*
X3270Y512D01*
X3318Y512D02*
X3333Y512D01*
X3854Y512D02*
X3870Y512D01*
X3918Y512D02*
X3933Y512D01*
X4481Y512D02*
X4498Y512D01*
X4544Y512D02*
X4560Y512D01*
X5054Y512D02*
X5069Y512D01*
X5117Y512D02*
X5133Y512D01*
X854Y511D02*
X870Y511D01*
X918Y511D02*
X933Y511D01*
X1454Y511D02*
X1470Y511D01*
X1518Y511D02*
X1533Y511D01*
X2054Y511D02*
X2070Y511D01*
X2118Y511D02*
X2133Y511D01*
X2654Y511D02*
X2669Y511D01*
X2718Y511D02*
X2733Y511D01*
X3254Y511D02*
X3269Y511D01*
X3318Y511D02*
X3333Y511D01*
X3854Y511D02*
X3869Y511D01*
X3918Y511D02*
X3933Y511D01*
X4481Y511D02*
X4498Y511D01*
X4544Y511D02*
X4560Y511D01*
X5054Y511D02*
X5069Y511D01*
X5118Y511D02*
X5133Y511D01*
X854Y510D02*
X869Y510D01*
X918Y510D02*
X933Y510D01*
X1454Y510D02*
X1469Y510D01*
X1518Y510D02*
X1533Y510D01*
X2054Y510D02*
X2069Y510D01*
X2118Y510D02*
X2133Y510D01*
X2654Y510D02*
X2669Y510D01*
X2718Y510D02*
X2733Y510D01*
X3254Y510D02*
X3269Y510D01*
X3318Y510D02*
X3333Y510D01*
X3854Y510D02*
X3869Y510D01*
X3918Y510D02*
X3933Y510D01*
X4481Y510D02*
X4498Y510D01*
X4544Y510D02*
X4560Y510D01*
X5054Y510D02*
X5069Y510D01*
X5118Y510D02*
X5133Y510D01*
X854Y509D02*
X869Y509D01*
X918Y509D02*
X933Y509D01*
X1454Y509D02*
X1469Y509D01*
X1518Y509D02*
X1533Y509D01*
X2054Y509D02*
X2069Y509D01*
X2118Y509D02*
X2133Y509D01*
X2654Y509D02*
X2669Y509D01*
X2718Y509D02*
X2733Y509D01*
X3254Y509D02*
X3269Y509D01*
X3318Y509D02*
X3333Y509D01*
X3854Y509D02*
X3869Y509D01*
X3918Y509D02*
X3933Y509D01*
X4481Y509D02*
X4498Y509D01*
X4543Y509D02*
X4560Y509D01*
X5054Y509D02*
X5069Y509D01*
X5118Y509D02*
X5133Y509D01*
X854Y508D02*
X870Y508D01*
X918Y508D02*
X933Y508D01*
X1454Y508D02*
X1470Y508D01*
X1518Y508D02*
X1533Y508D01*
X2054Y508D02*
X2070Y508D01*
X2118Y508D02*
X2133Y508D01*
X2654Y508D02*
X2670Y508D01*
X2718Y508D02*
X2733Y508D01*
X3254Y508D02*
X3269Y508D01*
X3318Y508D02*
X3333Y508D01*
X3854Y508D02*
X3869Y508D01*
X3918Y508D02*
X3933Y508D01*
X4481Y508D02*
X4499Y508D01*
X4543Y508D02*
X4560Y508D01*
X5054Y508D02*
X5069Y508D01*
X5118Y508D02*
X5133Y508D01*
X854Y507D02*
X870Y507D01*
X918Y507D02*
X933Y507D01*
X1454Y507D02*
X1470Y507D01*
X1518Y507D02*
X1533Y507D01*
X2054Y507D02*
X2070Y507D01*
X2117Y507D02*
X2133Y507D01*
X2654Y507D02*
X2670Y507D01*
X2717Y507D02*
X2733Y507D01*
X3254Y507D02*
X3270Y507D01*
X3317Y507D02*
X3333Y507D01*
X3854Y507D02*
X3870Y507D01*
X3917Y507D02*
X3933Y507D01*
X4481Y507D02*
X4499Y507D01*
X4542Y507D02*
X4560Y507D01*
X5054Y507D02*
X5070Y507D01*
X5117Y507D02*
X5133Y507D01*
X854Y506D02*
X870Y506D01*
X917Y506D02*
X933Y506D01*
X1454Y506D02*
X1470Y506D01*
X1517Y506D02*
X1533Y506D01*
X2054Y506D02*
X2070Y506D01*
X2117Y506D02*
X2133Y506D01*
X2654Y506D02*
X2670Y506D01*
X2717Y506D02*
X2733Y506D01*
X3254Y506D02*
X3270Y506D01*
X3317Y506D02*
X3333Y506D01*
X3854Y506D02*
X3870Y506D01*
X3917Y506D02*
X3933Y506D01*
X4481Y506D02*
X4500Y506D01*
X4542Y506D02*
X4560Y506D01*
X5054Y506D02*
X5070Y506D01*
X5117Y506D02*
X5133Y506D01*
X854Y505D02*
X870Y505D01*
X917Y505D02*
X933Y505D01*
X1454Y505D02*
X1470Y505D01*
X1517Y505D02*
X1533Y505D01*
X2054Y505D02*
X2070Y505D01*
X2117Y505D02*
X2133Y505D01*
X2654Y505D02*
X2670Y505D01*
X2717Y505D02*
X2733Y505D01*
X3254Y505D02*
X3270Y505D01*
X3317Y505D02*
X3333Y505D01*
X3854Y505D02*
X3870Y505D01*
X3917Y505D02*
X3933Y505D01*
X4481Y505D02*
X4500Y505D01*
X4541Y505D02*
X4560Y505D01*
X5054Y505D02*
X5070Y505D01*
X5117Y505D02*
X5133Y505D01*
X854Y504D02*
X870Y504D01*
X917Y504D02*
X933Y504D01*
X1454Y504D02*
X1470Y504D01*
X1517Y504D02*
X1533Y504D01*
X2054Y504D02*
X2070Y504D01*
X2117Y504D02*
X2133Y504D01*
X2654Y504D02*
X2670Y504D01*
X2717Y504D02*
X2733Y504D01*
X3254Y504D02*
X3270Y504D01*
X3317Y504D02*
X3333Y504D01*
X3854Y504D02*
X3870Y504D01*
X3917Y504D02*
X3933Y504D01*
X4481Y504D02*
X4501Y504D01*
X4541Y504D02*
X4560Y504D01*
X5054Y504D02*
X5070Y504D01*
X5117Y504D02*
X5133Y504D01*
X854Y503D02*
X871Y503D01*
X917Y503D02*
X933Y503D01*
X1454Y503D02*
X1471Y503D01*
X1517Y503D02*
X1533Y503D01*
X2054Y503D02*
X2071Y503D01*
X2117Y503D02*
X2133Y503D01*
X2654Y503D02*
X2671Y503D01*
X2717Y503D02*
X2733Y503D01*
X3254Y503D02*
X3271Y503D01*
X3317Y503D02*
X3333Y503D01*
X3854Y503D02*
X3870Y503D01*
X3917Y503D02*
X3933Y503D01*
X4481Y503D02*
X4502Y503D01*
X4540Y503D02*
X4560Y503D01*
X5054Y503D02*
X5070Y503D01*
X5117Y503D02*
X5133Y503D01*
X854Y502D02*
X871Y502D01*
X916Y502D02*
X933Y502D01*
X1454Y502D02*
X1471Y502D01*
X1516Y502D02*
X1533Y502D01*
X2054Y502D02*
X2071Y502D01*
X2116Y502D02*
X2133Y502D01*
X2654Y502D02*
X2671Y502D01*
X2716Y502D02*
X2733Y502D01*
X3254Y502D02*
X3271Y502D01*
X3316Y502D02*
X3333Y502D01*
X3854Y502D02*
X3871Y502D01*
X3916Y502D02*
X3933Y502D01*
X4481Y502D02*
X4503Y502D01*
X4539Y502D02*
X4560Y502D01*
X5054Y502D02*
X5071Y502D01*
X5116Y502D02*
X5133Y502D01*
X854Y501D02*
X871Y501D01*
X916Y501D02*
X933Y501D01*
X1454Y501D02*
X1471Y501D01*
X1516Y501D02*
X1533Y501D01*
X2054Y501D02*
X2071Y501D01*
X2116Y501D02*
X2133Y501D01*
X2654Y501D02*
X2671Y501D01*
X2716Y501D02*
X2733Y501D01*
X3254Y501D02*
X3271Y501D01*
X3316Y501D02*
X3333Y501D01*
X3854Y501D02*
X3871Y501D01*
X3916Y501D02*
X3933Y501D01*
X4481Y501D02*
X4504Y501D01*
X4538Y501D02*
X4560Y501D01*
X5054Y501D02*
X5071Y501D01*
X5116Y501D02*
X5133Y501D01*
X854Y500D02*
X872Y500D01*
X916Y500D02*
X933Y500D01*
X1454Y500D02*
X1472Y500D01*
X1516Y500D02*
X1533Y500D01*
X2054Y500D02*
X2072Y500D01*
X2116Y500D02*
X2133Y500D01*
X2654Y500D02*
X2672Y500D01*
X2715Y500D02*
X2733Y500D01*
X3254Y500D02*
X3272Y500D01*
X3315Y500D02*
X3333Y500D01*
X3854Y500D02*
X3872Y500D01*
X3915Y500D02*
X3933Y500D01*
X4481Y500D02*
X4505Y500D01*
X4537Y500D02*
X4560Y500D01*
X5054Y500D02*
X5072Y500D01*
X5115Y500D02*
X5133Y500D01*
X854Y499D02*
X872Y499D01*
X915Y499D02*
X933Y499D01*
X1454Y499D02*
X1472Y499D01*
X1515Y499D02*
X1533Y499D01*
X2054Y499D02*
X2072Y499D01*
X2115Y499D02*
X2133Y499D01*
X2654Y499D02*
X2672Y499D01*
X2715Y499D02*
X2733Y499D01*
X3254Y499D02*
X3272Y499D01*
X3315Y499D02*
X3333Y499D01*
X3854Y499D02*
X3872Y499D01*
X3915Y499D02*
X3933Y499D01*
X4481Y499D02*
X4506Y499D01*
X4536Y499D02*
X4560Y499D01*
X5054Y499D02*
X5072Y499D01*
X5115Y499D02*
X5133Y499D01*
X854Y498D02*
X873Y498D01*
X914Y498D02*
X933Y498D01*
X1454Y498D02*
X1473Y498D01*
X1514Y498D02*
X1533Y498D01*
X2054Y498D02*
X2073Y498D01*
X2114Y498D02*
X2133Y498D01*
X2654Y498D02*
X2673Y498D01*
X2714Y498D02*
X2733Y498D01*
X3254Y498D02*
X3273Y498D01*
X3314Y498D02*
X3333Y498D01*
X3854Y498D02*
X3873Y498D01*
X3914Y498D02*
X3933Y498D01*
X4481Y498D02*
X4507Y498D01*
X4534Y498D02*
X4560Y498D01*
X5054Y498D02*
X5073Y498D01*
X5114Y498D02*
X5133Y498D01*
X854Y497D02*
X873Y497D01*
X914Y497D02*
X933Y497D01*
X1454Y497D02*
X1473Y497D01*
X1514Y497D02*
X1533Y497D01*
X2054Y497D02*
X2073Y497D01*
X2114Y497D02*
X2133Y497D01*
X2654Y497D02*
X2673Y497D01*
X2714Y497D02*
X2733Y497D01*
X3254Y497D02*
X3273Y497D01*
X3314Y497D02*
X3333Y497D01*
X3854Y497D02*
X3873Y497D01*
X3914Y497D02*
X3933Y497D01*
X4481Y497D02*
X4509Y497D01*
X4533Y497D02*
X4560Y497D01*
X5054Y497D02*
X5073Y497D01*
X5114Y497D02*
X5133Y497D01*
X854Y496D02*
X874Y496D01*
X913Y496D02*
X933Y496D01*
X1454Y496D02*
X1474Y496D01*
X1513Y496D02*
X1533Y496D01*
X2054Y496D02*
X2074Y496D01*
X2113Y496D02*
X2133Y496D01*
X2654Y496D02*
X2674Y496D01*
X2713Y496D02*
X2733Y496D01*
X3254Y496D02*
X3274Y496D01*
X3313Y496D02*
X3333Y496D01*
X3854Y496D02*
X3874Y496D01*
X3913Y496D02*
X3933Y496D01*
X4481Y496D02*
X4511Y496D01*
X4531Y496D02*
X4560Y496D01*
X5054Y496D02*
X5074Y496D01*
X5113Y496D02*
X5133Y496D01*
X854Y495D02*
X875Y495D01*
X912Y495D02*
X933Y495D01*
X1454Y495D02*
X1475Y495D01*
X1512Y495D02*
X1533Y495D01*
X2054Y495D02*
X2075Y495D01*
X2112Y495D02*
X2133Y495D01*
X2654Y495D02*
X2675Y495D01*
X2712Y495D02*
X2733Y495D01*
X3254Y495D02*
X3275Y495D01*
X3312Y495D02*
X3333Y495D01*
X3854Y495D02*
X3875Y495D01*
X3912Y495D02*
X3933Y495D01*
X4481Y495D02*
X4514Y495D01*
X4528Y495D02*
X4560Y495D01*
X5054Y495D02*
X5075Y495D01*
X5112Y495D02*
X5133Y495D01*
X854Y494D02*
X876Y494D01*
X912Y494D02*
X933Y494D01*
X1454Y494D02*
X1476Y494D01*
X1512Y494D02*
X1533Y494D01*
X2054Y494D02*
X2076Y494D01*
X2112Y494D02*
X2133Y494D01*
X2654Y494D02*
X2676Y494D01*
X2712Y494D02*
X2733Y494D01*
X3254Y494D02*
X3276Y494D01*
X3312Y494D02*
X3333Y494D01*
X3854Y494D02*
X3876Y494D01*
X3911Y494D02*
X3933Y494D01*
X4481Y494D02*
X4560Y494D01*
X5054Y494D02*
X5076Y494D01*
X5111Y494D02*
X5133Y494D01*
X854Y493D02*
X876Y493D01*
X911Y493D02*
X933Y493D01*
X1454Y493D02*
X1476Y493D01*
X1511Y493D02*
X1533Y493D01*
X2054Y493D02*
X2076Y493D01*
X2111Y493D02*
X2133Y493D01*
X2654Y493D02*
X2676Y493D01*
X2711Y493D02*
X2733Y493D01*
X3254Y493D02*
X3276Y493D01*
X3311Y493D02*
X3333Y493D01*
X3854Y493D02*
X3876Y493D01*
X3911Y493D02*
X3933Y493D01*
X4481Y493D02*
X4560Y493D01*
X5054Y493D02*
X5076Y493D01*
X5111Y493D02*
X5133Y493D01*
X854Y492D02*
X878Y492D01*
X909Y492D02*
X933Y492D01*
X1454Y492D02*
X1478Y492D01*
X1509Y492D02*
X1533Y492D01*
X2054Y492D02*
X2078Y492D01*
X2109Y492D02*
X2133Y492D01*
X2654Y492D02*
X2678Y492D01*
X2709Y492D02*
X2733Y492D01*
X3254Y492D02*
X3278Y492D01*
X3309Y492D02*
X3333Y492D01*
X3854Y492D02*
X3878Y492D01*
X3909Y492D02*
X3933Y492D01*
X4481Y492D02*
X4560Y492D01*
X5054Y492D02*
X5078Y492D01*
X5109Y492D02*
X5133Y492D01*
X854Y491D02*
X879Y491D01*
X908Y491D02*
X933Y491D01*
X1454Y491D02*
X1479Y491D01*
X1508Y491D02*
X1533Y491D01*
X2054Y491D02*
X2079Y491D01*
X2108Y491D02*
X2133Y491D01*
X2654Y491D02*
X2679Y491D01*
X2708Y491D02*
X2733Y491D01*
X3254Y491D02*
X3279Y491D01*
X3308Y491D02*
X3333Y491D01*
X3854Y491D02*
X3879Y491D01*
X3908Y491D02*
X3933Y491D01*
X4481Y491D02*
X4560Y491D01*
X5054Y491D02*
X5079Y491D01*
X5108Y491D02*
X5133Y491D01*
X854Y490D02*
X880Y490D01*
X907Y490D02*
X933Y490D01*
X1454Y490D02*
X1480Y490D01*
X1507Y490D02*
X1533Y490D01*
X2054Y490D02*
X2080Y490D01*
X2107Y490D02*
X2133Y490D01*
X2654Y490D02*
X2680Y490D01*
X2707Y490D02*
X2733Y490D01*
X3254Y490D02*
X3280Y490D01*
X3307Y490D02*
X3333Y490D01*
X3854Y490D02*
X3880Y490D01*
X3907Y490D02*
X3933Y490D01*
X4481Y490D02*
X4560Y490D01*
X5054Y490D02*
X5080Y490D01*
X5107Y490D02*
X5133Y490D01*
X854Y489D02*
X882Y489D01*
X905Y489D02*
X933Y489D01*
X1454Y489D02*
X1482Y489D01*
X1505Y489D02*
X1533Y489D01*
X2054Y489D02*
X2082Y489D01*
X2105Y489D02*
X2133Y489D01*
X2654Y489D02*
X2682Y489D01*
X2705Y489D02*
X2733Y489D01*
X3254Y489D02*
X3282Y489D01*
X3305Y489D02*
X3333Y489D01*
X3854Y489D02*
X3882Y489D01*
X3905Y489D02*
X3933Y489D01*
X4481Y489D02*
X4560Y489D01*
X5054Y489D02*
X5082Y489D01*
X5105Y489D02*
X5133Y489D01*
X854Y488D02*
X884Y488D01*
X903Y488D02*
X933Y488D01*
X1454Y488D02*
X1484Y488D01*
X1503Y488D02*
X1533Y488D01*
X2054Y488D02*
X2084Y488D01*
X2103Y488D02*
X2133Y488D01*
X2654Y488D02*
X2684Y488D01*
X2703Y488D02*
X2733Y488D01*
X3254Y488D02*
X3284Y488D01*
X3303Y488D02*
X3333Y488D01*
X3854Y488D02*
X3884Y488D01*
X3903Y488D02*
X3933Y488D01*
X4481Y488D02*
X4560Y488D01*
X5054Y488D02*
X5084Y488D01*
X5103Y488D02*
X5133Y488D01*
X854Y487D02*
X887Y487D01*
X900Y487D02*
X933Y487D01*
X1454Y487D02*
X1487Y487D01*
X1500Y487D02*
X1533Y487D01*
X2054Y487D02*
X2087Y487D01*
X2100Y487D02*
X2133Y487D01*
X2654Y487D02*
X2687Y487D01*
X2700Y487D02*
X2733Y487D01*
X3254Y487D02*
X3287Y487D01*
X3300Y487D02*
X3333Y487D01*
X3854Y487D02*
X3887Y487D01*
X3900Y487D02*
X3933Y487D01*
X4481Y487D02*
X4560Y487D01*
X5054Y487D02*
X5087Y487D01*
X5100Y487D02*
X5133Y487D01*
X854Y486D02*
X933Y486D01*
X1454Y486D02*
X1533Y486D01*
X2054Y486D02*
X2133Y486D01*
X2654Y486D02*
X2733Y486D01*
X3254Y486D02*
X3333Y486D01*
X3854Y486D02*
X3933Y486D01*
X4481Y486D02*
X4560Y486D01*
X5054Y486D02*
X5133Y486D01*
X854Y485D02*
X933Y485D01*
X1454Y485D02*
X1533Y485D01*
X2054Y485D02*
X2133Y485D01*
X2654Y485D02*
X2733Y485D01*
X3254Y485D02*
X3333Y485D01*
X3854Y485D02*
X3933Y485D01*
X4481Y485D02*
X4560Y485D01*
X5054Y485D02*
X5133Y485D01*
X854Y484D02*
X933Y484D01*
X1454Y484D02*
X1533Y484D01*
X2054Y484D02*
X2133Y484D01*
X2654Y484D02*
X2733Y484D01*
X3254Y484D02*
X3333Y484D01*
X3854Y484D02*
X3933Y484D01*
X4481Y484D02*
X4560Y484D01*
X5054Y484D02*
X5133Y484D01*
X854Y483D02*
X933Y483D01*
X1454Y483D02*
X1533Y483D01*
X2054Y483D02*
X2133Y483D01*
X2654Y483D02*
X2733Y483D01*
X3254Y483D02*
X3333Y483D01*
X3854Y483D02*
X3933Y483D01*
X4481Y483D02*
X4560Y483D01*
X5054Y483D02*
X5133Y483D01*
X854Y482D02*
X933Y482D01*
X1454Y482D02*
X1533Y482D01*
X2054Y482D02*
X2133Y482D01*
X2654Y482D02*
X2733Y482D01*
X3254Y482D02*
X3333Y482D01*
X3854Y482D02*
X3933Y482D01*
X4481Y482D02*
X4560Y482D01*
X5054Y482D02*
X5133Y482D01*
X854Y481D02*
X933Y481D01*
X1454Y481D02*
X1533Y481D01*
X2054Y481D02*
X2133Y481D01*
X2654Y481D02*
X2733Y481D01*
X3254Y481D02*
X3333Y481D01*
X3854Y481D02*
X3933Y481D01*
X4481Y481D02*
X4560Y481D01*
X5054Y481D02*
X5133Y481D01*
X854Y480D02*
X933Y480D01*
X1454Y480D02*
X1533Y480D01*
X2054Y480D02*
X2133Y480D01*
X2654Y480D02*
X2733Y480D01*
X3254Y480D02*
X3333Y480D01*
X3854Y480D02*
X3933Y480D01*
X4481Y480D02*
X4560Y480D01*
X5054Y480D02*
X5133Y480D01*
X854Y479D02*
X933Y479D01*
X1454Y479D02*
X1533Y479D01*
X2054Y479D02*
X2133Y479D01*
X2654Y479D02*
X2733Y479D01*
X3254Y479D02*
X3333Y479D01*
X3854Y479D02*
X3933Y479D01*
X4481Y479D02*
X4560Y479D01*
X5054Y479D02*
X5133Y479D01*
X854Y478D02*
X933Y478D01*
X1454Y478D02*
X1533Y478D01*
X2054Y478D02*
X2133Y478D01*
X2654Y478D02*
X2733Y478D01*
X3254Y478D02*
X3333Y478D01*
X3854Y478D02*
X3933Y478D01*
X4481Y478D02*
X4560Y478D01*
X5054Y478D02*
X5133Y478D01*
X854Y477D02*
X933Y477D01*
X1454Y477D02*
X1533Y477D01*
X2054Y477D02*
X2133Y477D01*
X2654Y477D02*
X2733Y477D01*
X3254Y477D02*
X3333Y477D01*
X3854Y477D02*
X3933Y477D01*
X5054Y477D02*
X5133Y477D01*
X854Y476D02*
X933Y476D01*
X1454Y476D02*
X1533Y476D01*
X2054Y476D02*
X2133Y476D01*
X2654Y476D02*
X2733Y476D01*
X3254Y476D02*
X3333Y476D01*
X3854Y476D02*
X3933Y476D01*
X5054Y476D02*
X5133Y476D01*
X854Y475D02*
X933Y475D01*
X1454Y475D02*
X1533Y475D01*
X2054Y475D02*
X2133Y475D01*
X2654Y475D02*
X2733Y475D01*
X3254Y475D02*
X3333Y475D01*
X3854Y475D02*
X3933Y475D01*
X5054Y475D02*
X5133Y475D01*
X854Y474D02*
X933Y474D01*
X1454Y474D02*
X1533Y474D01*
X2054Y474D02*
X2133Y474D01*
X2654Y474D02*
X2733Y474D01*
X3254Y474D02*
X3333Y474D01*
X3854Y474D02*
X3933Y474D01*
X5054Y474D02*
X5133Y474D01*
X854Y473D02*
X933Y473D01*
X1454Y473D02*
X1533Y473D01*
X2054Y473D02*
X2133Y473D01*
X2654Y473D02*
X2733Y473D01*
X3254Y473D02*
X3333Y473D01*
X3854Y473D02*
X3933Y473D01*
X5054Y473D02*
X5133Y473D01*
X854Y472D02*
X933Y472D01*
X1454Y472D02*
X1533Y472D01*
X2054Y472D02*
X2133Y472D01*
X2654Y472D02*
X2733Y472D01*
X3254Y472D02*
X3333Y472D01*
X3854Y472D02*
X3933Y472D01*
X5054Y472D02*
X5133Y472D01*
X854Y471D02*
X933Y471D01*
X1454Y471D02*
X1533Y471D01*
X2054Y471D02*
X2133Y471D01*
X2654Y471D02*
X2733Y471D01*
X3254Y471D02*
X3333Y471D01*
X3854Y471D02*
X3933Y471D01*
X5054Y471D02*
X5133Y471D01*
X854Y470D02*
X933Y470D01*
X1454Y470D02*
X1533Y470D01*
X2054Y470D02*
X2133Y470D01*
X2654Y470D02*
X2733Y470D01*
X3254Y470D02*
X3333Y470D01*
X3854Y470D02*
X3933Y470D01*
X5054Y470D02*
X5133Y470D01*
D02*
G04 End of Copper0*
M02*